<?xml version="1.0" encoding="utf-8"?>
<!-- Generator: Adobe Illustrator 23.1.0, SVG Export Plug-In . SVG Version: 6.00 Build 0)  -->
<svg version="1.1" id="圖層_1" xmlns="http://www.w3.org/2000/svg" xmlns:xlink="http://www.w3.org/1999/xlink" x="0px" y="0px"
	 viewBox="0 0 14.8 9.1" style="enable-background:new 0 0 14.8 9.1;" xml:space="preserve">
<style type="text/css">
	.st0{fill:#29282A;}
	.st1{fill:#5060EF;}
</style>
<g>
	<path class="st0" d="M0.1,0.2C-0.1,0.5,0,0.8,0.2,0.9l8.9,5.2L8.1,7.9l0.7,0.4l1.1-1.8L14.1,9c0.2,0.1,0.5,0.1,0.7-0.2
		c0.1-0.2,0.1-0.5-0.2-0.7l-4.3-2.5L9.6,5.3L0.7,0.1C0.5-0.1,0.2,0,0.1,0.2z"/>
	<path class="st1" d="M7.7,7.7C7.5,8.1,7.6,8.6,8,8.8C8.4,9,8.9,8.9,9.1,8.5L7.7,7.7z"/>
	<path class="st1" d="M12.3,6.5c-0.1-0.1-0.2,0-0.3,0.1c0.1-0.1,0-0.2-0.1-0.3c-0.1-0.1-0.2,0-0.3,0.1l-0.6,1
		c-0.1,0.1,0,0.2,0.1,0.3c0.1,0.1,0.2,0,0.3-0.1c-0.1,0.1,0,0.2,0.1,0.3c0.1,0.1,0.2,0,0.3-0.1c-0.1,0.1,0,0.2,0.1,0.3
		c0.1,0.1,0.2,0,0.3-0.1c-0.1,0.1,0,0.2,0.1,0.3c0.1,0.1,0.2,0,0.3-0.1c-0.1,0.1,0,0.2,0.1,0.3c0.1,0.1,0.2,0,0.3-0.1
		c-0.1,0.1,0,0.2,0.1,0.3s0.2,0,0.3-0.1c-0.1,0.1,0,0.2,0.1,0.3s0.2,0,0.3-0.1l0.6-1c0.1-0.1,0-0.2-0.1-0.3s-0.2,0-0.3,0.1
		c0.1-0.1,0-0.2-0.1-0.3c-0.1-0.1-0.2,0-0.3,0.1c0.1-0.1,0-0.2-0.1-0.3c-0.1-0.1-0.2,0-0.3,0.1c0.1-0.1,0-0.2-0.1-0.3
		c-0.1-0.1-0.2,0-0.3,0.1c0.1-0.1,0-0.2-0.1-0.3c-0.1-0.1-0.2,0-0.3,0.1C12.5,6.7,12.4,6.6,12.3,6.5z"/>
	<path class="st0" d="M14.6,8.2l-4.3-2.5L9.6,5.3L0.7,0.1C0.5-0.1,0.2,0,0.1,0.2l14.7,8.6C14.9,8.6,14.8,8.3,14.6,8.2z"/>
	<path class="st1" d="M11.9,6.3c-0.1-0.1-0.3,0-0.3,0.1L11.3,7L14,8.6L14.4,8c0.1-0.1,0-0.3-0.1-0.3S14,7.6,14,7.8
		c0.1-0.1,0-0.3-0.1-0.3c-0.1-0.1-0.3,0-0.3,0.1c0.1-0.1,0-0.3-0.1-0.3c-0.1-0.1-0.3,0-0.3,0.1c0.1-0.1,0-0.3-0.1-0.3
		c-0.1-0.1-0.3,0-0.3,0.1c0.1-0.1,0-0.3-0.1-0.3c-0.1-0.1-0.3,0-0.3,0.1c0.1-0.1,0-0.3-0.1-0.3c-0.1-0.1-0.3,0-0.3,0.1
		C12.1,6.5,12.1,6.3,11.9,6.3z"/>
</g>
</svg>
