<?xml version="1.0" encoding="utf-8"?>
<!-- Generator: Adobe Illustrator 23.1.0, SVG Export Plug-In . SVG Version: 6.00 Build 0)  -->
<svg version="1.1" id="map" xmlns="http://www.w3.org/2000/svg" xmlns:xlink="http://www.w3.org/1999/xlink" x="0px" y="0px"
	 viewBox="0 0 989 780.6" style="enable-background:new 0 0 989 780.6;" xml:space="preserve">
<style type="text/css">
	.st0{fill:#3F3F3F;}
	.st1{fill:#8E8E8E;}
	.st2{fill:#E80A0A;}
	.st3{fill:#0000FF;}
	.st4{fill:#FFFFFF;}
	.st5{fill:#A6A8AB;}
	.st6{fill:#B3B3B3;}
	.st7{fill:#D03F28;}
	.st8{fill:#F0553C;}
	.st9{fill:#C8BDA9;}
	.st10{fill:none;stroke:#FFFFFF;stroke-width:2;stroke-miterlimit:10;}
	.st11{fill:none;stroke:#FFFFFF;stroke-width:2;stroke-miterlimit:10;stroke-dasharray:7.823,7.823;}
	.st12{fill:none;stroke:#FFFFFF;stroke-width:2;stroke-miterlimit:10;stroke-dasharray:6.1574,6.1574;}
	.st13{fill:#5060EF;}
	.st14{fill:#29282A;}
	.st15{opacity:0.17;fill:#3942EA;enable-background:new    ;}
</style>
<g id="bg">
	<g>
		<g>
			<rect x="457.3" y="222.9" class="st0" width="42.1" height="303.7"/>
			<rect x="194.3" y="223" class="st0" width="574.1" height="45.7"/>
			<rect x="194.3" y="223" class="st0" width="55" height="315"/>
			<g>
				<g>
					<rect x="319.8" y="315.5" class="st0" width="317.8" height="39.8"/>
					<rect x="319.8" y="315.5" class="st0" width="31.9" height="216.4"/>
				</g>
				<rect x="609.1" y="315.5" class="st0" width="31.9" height="216.4"/>
			</g>
			<rect x="716.6" y="222.9" class="st0" width="54.2" height="315"/>
		</g>
		<rect x="319.8" y="500.5" class="st0" width="321.2" height="31.9"/>
	</g>
	<g>
		<rect x="48.9" y="99" class="st1" width="854.2" height="85.8"/>
		<rect x="48.9" y="623" class="st1" width="854.2" height="61.9"/>
		<rect x="72.3" y="78.1" class="st1" width="86.9" height="636.7"/>
		<rect x="811.7" y="78.1" class="st1" width="60" height="636.7"/>
	</g>
	<g>
		<g>
			<rect x="475.1" y="363.4" class="st2" width="23" height="15"/>
			<g>
				<rect x="475.2" y="363.4" class="st3" width="11.1" height="7.8"/>
				<g>
					<path class="st4" d="M478.9,367.4c0-1,0.8-1.8,1.8-1.8c1,0,1.8,0.8,1.8,1.8c0,1-0.8,1.8-1.8,1.8
						C479.7,369.2,478.9,368.4,478.9,367.4z"/>
					<path class="st4" d="M479,364.4c0.4,0.3,0.7,0.7,1.1,1c-0.1,0-0.2,0.1-0.3,0.1c-0.5,0.3-0.5,0.3-0.6-0.3
						C479.1,365,479,364.7,479,364.4C479,364.4,479,364.4,479,364.4z"/>
					<path class="st4" d="M479.2,366c-0.2,0.3-0.3,0.5-0.4,0.7c-0.3-0.4-0.7-0.7-1-1.1C478.2,365.7,478.7,365.8,479.2,366z"/>
					<path class="st4" d="M478.8,368c0.1,0.2,0.3,0.4,0.4,0.7c-0.5,0.1-1,0.3-1.5,0.4C478.1,368.8,478.5,368.4,478.8,368z"/>
					<path class="st4" d="M479,370.3c0.1-0.3,0.2-0.7,0.3-1c0.1-0.4,0.1-0.4,0.5-0.2c0.1,0,0.2,0.1,0.3,0.2
						C479.8,369.7,479.4,370,479,370.3C479,370.4,479,370.4,479,370.3z"/>
					<path class="st4" d="M480.7,370.8c-0.1-0.4-0.2-0.8-0.3-1.2c0-0.2,0-0.3,0.2-0.2c0.2,0,0.4,0,0.6,0c-0.1,0.5-0.3,1-0.4,1.5
						C480.8,370.8,480.7,370.8,480.7,370.8z"/>
					<path class="st4" d="M480.8,363.9c0.1,0.5,0.3,0.9,0.4,1.5c-0.3,0-0.5,0-0.8,0c0,0-0.1-0.1-0.1-0.2c0.1-0.4,0.2-0.8,0.3-1.3
						C480.7,363.9,480.8,363.9,480.8,363.9z"/>
					<path class="st4" d="M482.5,364.4c-0.1,0.5-0.3,0.9-0.4,1.4c-0.2-0.1-0.4-0.2-0.6-0.3c0,0-0.1-0.2,0-0.2
						c0.3-0.3,0.6-0.6,0.9-0.9C482.4,364.4,482.5,364.4,482.5,364.4z"/>
					<path class="st4" d="M482.4,370.4c-0.3-0.3-0.6-0.6-0.9-0.9c0,0,0-0.2,0.1-0.2c0.2-0.1,0.3-0.2,0.6-0.3c0.1,0.5,0.3,1,0.4,1.4
						C482.5,370.3,482.4,370.3,482.4,370.4z"/>
					<path class="st4" d="M477.3,367.3c0.4-0.1,0.9-0.2,1.3-0.4c0,0,0,0,0,0c0.3,0.1,0.1,0.4,0.1,0.6c0,0-0.1,0.2-0.2,0.1
						c-0.4-0.1-0.8-0.2-1.3-0.3C477.3,367.4,477.3,367.3,477.3,367.3z"/>
					<path class="st4" d="M482.3,366c0.5-0.1,1-0.3,1.5-0.4c0,0.1-0.1,0.2-0.1,0.2c-0.3,0.3-0.5,0.5-0.8,0.8c-0.1,0.1-0.2,0.1-0.3,0
						C482.5,366.4,482.4,366.2,482.3,366z"/>
					<path class="st4" d="M483.7,369.1c-0.5-0.1-0.9-0.3-1.4-0.4c0.1-0.2,0.2-0.4,0.4-0.6c0,0,0.1,0,0.2,0c0.3,0.3,0.6,0.6,0.9,0.9
						C483.7,369.1,483.7,369.1,483.7,369.1z"/>
					<path class="st4" d="M484.2,367.4c-0.4,0.1-0.8,0.2-1.2,0.3c0,0,0,0,0,0c-0.2,0-0.2-0.1-0.2-0.2c0.1-0.2-0.2-0.6,0.2-0.6
						c0.4,0,0.8,0.2,1.3,0.3C484.2,367.3,484.2,367.4,484.2,367.4z"/>
				</g>
			</g>
			<g>
				<path class="st5" d="M475.6,363.4c-0.6,0-1.1,0.2-1.1,0.4l0.1,37.7c0,0.2,0.5,0.4,1.1,0.4s1.1-0.2,1.1-0.4l-0.1-37.7
					C476.6,363.6,476.2,363.4,475.6,363.4z"/>
				<path class="st6" d="M476.6,363.8L476.6,363.8c0-0.2-0.5-0.4-1.1-0.4v0.7l0,0l0.1,36.9l0,0v0.7c0.6,0,1.1-0.2,1.1-0.4v0h0
					L476.6,363.8z"/>
			</g>
		</g>
		<g>
			<g>
				<rect x="440.1" y="387" class="st7" width="24.7" height="90.9"/>
			</g>
			<g>
				<rect x="491.9" y="387" class="st7" width="25.3" height="90.9"/>
			</g>
			<g>
				<rect x="440.1" y="396.5" class="st7" width="76.8" height="74.6"/>
			</g>
			<g>
				<g>
					<rect x="461.7" y="408.9" class="st8" width="8.3" height="22.1"/>
				</g>
				<g>
					<rect x="474.1" y="408.8" class="st8" width="8.3" height="22.1"/>
				</g>
				<g>
					<rect x="485.9" y="408.9" class="st8" width="8.3" height="22.1"/>
				</g>
				<g>
					<g>
						<path class="st8" d="M450.3,425.3L450.3,425.3c-3.1,0-5.7-2.3-5.7-5.2v-5.9c0-2.9,2.5-5.2,5.7-5.2l0,0c3.1,0,5.7,2.3,5.7,5.2
							v5.9C456,423,453.4,425.3,450.3,425.3z"/>
					</g>
					<g>
						<rect x="444.6" y="412.8" class="st8" width="11.4" height="12.5"/>
					</g>
				</g>
				<g>
					<g>
						<path class="st8" d="M505.1,425.5L505.1,425.5c-3.1,0-5.7-2.3-5.7-5.2v-5.9c0-2.9,2.5-5.2,5.7-5.2l0,0c3.1,0,5.7,2.3,5.7,5.2
							v5.9C510.8,423.1,508.3,425.5,505.1,425.5z"/>
					</g>
					<g>
						<rect x="499.4" y="413" class="st8" width="11.4" height="12.5"/>
					</g>
				</g>
			</g>
			<g>
				<rect x="368.5" y="479.5" class="st7" width="220.3" height="60.5"/>
			</g>
			<g>
				<rect x="440.1" y="468" class="st7" width="77" height="73.9"/>
			</g>
			<g>
				<g>
					<g>
						<g>
							<rect x="377.7" y="488.3" class="st8" width="8.4" height="12.2"/>
						</g>
					</g>
					<g>
						<g>
							<rect x="377.7" y="503.8" class="st8" width="8.4" height="12.2"/>
						</g>
					</g>
					<g>
						<g>
							<rect x="377.7" y="519.3" class="st8" width="8.4" height="12.2"/>
						</g>
					</g>
				</g>
				<g>
					<g>
						<g>
							<rect x="391.8" y="488.3" class="st8" width="8.4" height="12.2"/>
						</g>
					</g>
					<g>
						<g>
							<rect x="391.8" y="503.8" class="st8" width="8.4" height="12.2"/>
						</g>
					</g>
					<g>
						<g>
							<rect x="391.8" y="519.3" class="st8" width="8.4" height="12.2"/>
						</g>
					</g>
				</g>
				<g>
					<g>
						<g>
							<rect x="406.8" y="488.3" class="st8" width="8.4" height="12.2"/>
						</g>
					</g>
					<g>
						<g>
							<rect x="406.8" y="503.8" class="st8" width="8.4" height="12.2"/>
						</g>
					</g>
					<g>
						<g>
							<rect x="406.8" y="519.3" class="st8" width="8.4" height="12.2"/>
						</g>
					</g>
				</g>
				<g>
					<g>
						<g>
							<rect x="421.2" y="488.3" class="st8" width="8.4" height="12.2"/>
						</g>
					</g>
					<g>
						<g>
							<rect x="421.2" y="503.8" class="st8" width="8.4" height="12.2"/>
						</g>
					</g>
					<g>
						<g>
							<rect x="421.2" y="519.3" class="st8" width="8.4" height="12.2"/>
						</g>
					</g>
				</g>
			</g>
			<g>
				<g>
					<g>
						<g>
							<rect x="526.4" y="488.3" class="st8" width="8.4" height="12.2"/>
						</g>
					</g>
					<g>
						<g>
							<rect x="526.4" y="503.8" class="st8" width="8.4" height="12.2"/>
						</g>
					</g>
					<g>
						<g>
							<rect x="526.4" y="519.3" class="st8" width="8.4" height="12.2"/>
						</g>
					</g>
				</g>
				<g>
					<g>
						<g>
							<rect x="540.5" y="488.3" class="st8" width="8.4" height="12.2"/>
						</g>
					</g>
					<g>
						<g>
							<rect x="540.5" y="503.8" class="st8" width="8.4" height="12.2"/>
						</g>
					</g>
					<g>
						<g>
							<rect x="540.5" y="519.3" class="st8" width="8.4" height="12.2"/>
						</g>
					</g>
				</g>
				<g>
					<g>
						<g>
							<rect x="555.5" y="488.3" class="st8" width="8.4" height="12.2"/>
						</g>
					</g>
					<g>
						<g>
							<rect x="555.5" y="503.8" class="st8" width="8.4" height="12.2"/>
						</g>
					</g>
					<g>
						<g>
							<rect x="555.5" y="519.3" class="st8" width="8.4" height="12.2"/>
						</g>
					</g>
				</g>
				<g>
					<g>
						<g>
							<rect x="569.9" y="488.3" class="st8" width="8.4" height="12.2"/>
						</g>
					</g>
					<g>
						<g>
							<rect x="569.9" y="503.8" class="st8" width="8.4" height="12.2"/>
						</g>
					</g>
					<g>
						<g>
							<rect x="569.9" y="519.3" class="st8" width="8.4" height="12.2"/>
						</g>
					</g>
				</g>
			</g>
			<g>
				<rect x="444.4" y="496.1" class="st8" width="11.4" height="43.2"/>
			</g>
			<g>
				<rect x="500.2" y="496.1" class="st8" width="11.4" height="43.2"/>
			</g>
			<g>
				<rect x="464.9" y="509.8" class="st8" width="27" height="29.5"/>
			</g>
			<g>
				<rect x="368.5" y="539.1" class="st9" width="220.3" height="5.5"/>
			</g>
			<g>
				<rect x="472.9" y="519" class="st8" width="1" height="11.1"/>
			</g>
			<g>
				<rect x="481.4" y="519" class="st8" width="1" height="11.1"/>
			</g>
			<rect x="377.8" y="471.1" class="st7" width="51.9" height="14.1"/>
			<rect x="526.4" y="468" class="st7" width="51.9" height="14.1"/>
		</g>
	</g>
	<g>
		<g>
			<line class="st10" x1="371.1" y1="141.9" x2="367.1" y2="141.9"/>
			<line class="st11" x1="359.3" y1="141.9" x2="144.2" y2="141.9"/>
			<line class="st10" x1="140.3" y1="141.9" x2="136.3" y2="141.9"/>
		</g>
	</g>
	<g>
		<g>
			<line class="st10" x1="812.4" y1="141.9" x2="808.4" y2="141.9"/>
			<line class="st11" x1="800.6" y1="141.9" x2="585.5" y2="141.9"/>
			<line class="st10" x1="581.5" y1="141.9" x2="577.5" y2="141.9"/>
		</g>
	</g>
	<g>
		<g>
			<line class="st10" x1="815.4" y1="653.9" x2="811.4" y2="653.9"/>
			<line class="st11" x1="803.6" y1="653.9" x2="588.5" y2="653.9"/>
			<line class="st10" x1="584.5" y1="653.9" x2="580.5" y2="653.9"/>
		</g>
	</g>
	<g>
		<g>
			<line class="st10" x1="377.6" y1="653.9" x2="373.6" y2="653.9"/>
			<line class="st11" x1="365.8" y1="653.9" x2="150.7" y2="653.9"/>
			<line class="st10" x1="146.8" y1="653.9" x2="142.8" y2="653.9"/>
		</g>
	</g>
	<g>
		<g>
			<line class="st10" x1="109.9" y1="102.4" x2="109.9" y2="105.4"/>
			<line class="st12" x1="109.9" y1="111.6" x2="109.9" y2="280.9"/>
			<line class="st10" x1="109.9" y1="284" x2="109.9" y2="287"/>
		</g>
	</g>
	<g>
		<g>
			<line class="st10" x1="841.7" y1="111.5" x2="841.7" y2="114.5"/>
			<line class="st12" x1="841.7" y1="120.7" x2="841.7" y2="290"/>
			<line class="st10" x1="841.7" y1="293.1" x2="841.7" y2="296"/>
		</g>
	</g>
	<g>
		<g>
			<line class="st10" x1="841.7" y1="479.6" x2="841.7" y2="482.6"/>
			<line class="st12" x1="841.7" y1="488.8" x2="841.7" y2="658.1"/>
			<line class="st10" x1="841.7" y1="661.2" x2="841.7" y2="664.2"/>
		</g>
	</g>
	<g>
		<g>
			<line class="st10" x1="115.8" y1="485.8" x2="115.8" y2="488.7"/>
			<line class="st12" x1="115.8" y1="494.9" x2="115.8" y2="664.2"/>
			<line class="st10" x1="115.8" y1="667.3" x2="115.8" y2="670.3"/>
		</g>
	</g>
	<g>
		<path class="st4" d="M110.3,306.8c0-0.7,0.3-1,0.9-1l4.8,0.4c0.6,0,1.1,0.1,1.4,0.5c0,0.1-0.2,0.4-0.6,0.8
			c-0.5,0.3-0.7,0.6-0.7,1.2v4c0,0.5,0.3,0.8,0.8,0.8h4c0.6,0.3,1.3-0.3,2.2-1.6c0.6-0.6,1.2-0.7,1.8-0.3l2.9,1.8
			c1.1,0.4,1.2,1,0.4,1.7c-0.4,0.3-0.6,0.8-0.6,1.3v9.7c0,0.6-0.3,1-1,1.1c-1.2,0.1-2.4,0.3-3.5,0.4c-0.8,0.1-1.2-0.2-1.2-0.9v-0.8
			c0-0.5-0.3-0.8-0.8-0.8h-4.2c-0.5,0-0.8,0.3-0.8,0.8v9c0,0.6-0.3,1-1,1.1l-3.5,0.5c-0.8,0.1-1.2-0.2-1.2-0.8v-9.7
			c0-0.5-0.3-0.8-0.8-0.8h-3.7c-0.5,0-0.8,0.3-0.8,0.9c0,0.6-0.3,1-1,1.1l-3.3,0.4c-0.7,0.1-1.1-0.2-1.1-0.7v-14.8
			c0-0.6,0.3-0.8,1-0.6c1.4,0.6,2.8,1.2,4.2,1.8c0.5,0.2,1,0.3,1.4,0.3h3.3c0.5,0,0.8-0.3,0.8-0.8L110.3,306.8L110.3,306.8z
			 M110.3,315.2c0-0.5-0.3-0.8-0.8-0.8h-3.7c-0.5,0-0.8,0.3-0.8,0.8v8.3c0,0.5,0.3,0.8,0.8,0.8h3.7c0.5,0,0.8-0.3,0.8-0.8V315.2z
			 M121.7,315.2c0-0.5-0.3-0.8-0.8-0.8h-4.2c-0.5,0-0.8,0.3-0.8,0.8v8.3c0,0.5,0.3,0.8,0.8,0.8h4.2c0.5,0,0.8-0.3,0.8-0.8V315.2z"/>
		<path class="st4" d="M110.1,350.4c0-0.6,0.3-1,0.9-0.9l4.8,0.4c0.5,0,0.9,0.1,1.3,0.5c0.1,0.3-0.2,0.6-0.8,0.9
			c-0.4,0.2-0.6,0.6-0.6,1.1v21.9c0,0.5,0.3,0.8,0.8,0.8h3.6c0.5,0,0.8-0.3,0.8-0.8V355c0-0.6,0.3-1,1-0.9l4.8,0.3
			c0.4,0,0.8,0.1,1.2,0.3c0.4,0.4,0.3,0.8-0.5,1.1c-0.4,0.2-0.6,0.5-0.6,1v20.9c0,0.6-0.3,1-1,1.1c-1.3,0.1-2.6,0.3-3.9,0.5
			c-0.7,0.1-1-0.2-1-0.8v-1.7c0-0.5-0.3-0.8-0.8-0.8h-14.3c-0.5,0-0.8,0.3-0.8,0.8v1.1c0,0.6-0.3,1-1,1.1c-1.1,0.1-2.2,0.3-3.3,0.4
			c-0.7,0.1-1.1-0.2-1.1-0.7v-23.8c0-0.6,0.3-1,1-1l4.8,0.3c0.3,0,0.6,0.2,0.7,0.5c0,0.1-0.2,0.3-0.5,0.6c-0.4,0.2-0.6,0.5-0.6,0.9
			v18.2c0,0.5,0.3,0.8,0.8,0.8h3.4c0.5,0,0.8-0.3,0.8-0.8C110.1,374.3,110.1,350.4,110.1,350.4z"/>
		<path class="st4" d="M106.5,393.9c0-0.6,0.3-1,1-0.9c1.6,0.1,3.2,0.2,4.8,0.4c0.4,0.1,0.6,0.3,0.6,0.5c0,0.3-0.3,0.5-0.8,0.8
			c-0.3,0.1-0.5,0.5-0.5,1v25.9c0,0.6-0.3,1-1,1.1c-1.1,0.1-2.2,0.3-3.2,0.5c-0.7,0.1-1-0.2-1-0.8v-6.8c0-0.5-0.3-0.5-0.8,0.1
			l-3.6,4.5c-0.2,0.7-0.6,1.1-1.1,1.2c-0.2-0.1-0.4-0.5-0.7-1.3l-1.3-4.3c-0.2-0.7,0-1.2,0.7-1.5l6-2.3c0.5-0.2,0.8-0.6,0.8-1.1
			v-6.5c0-0.5-0.3-0.8-0.8-0.8h-5.6c-0.6,0-1-0.1-1.2-0.5c-0.1-0.3,0.2-0.5,0.8-0.5h5.9c0.5,0,0.8-0.3,0.8-0.8
			C106.5,401.9,106.5,393.9,106.5,393.9z M115.3,393.9c0-0.6,0.3-1,0.9-0.9c1.6,0.1,3.2,0.2,4.8,0.4c0.9,0.3,0.9,0.7,0,1.4
			c-0.4,0.2-0.6,0.5-0.6,1v5.3c0,0.7,0.2,0.8,0.6,0.3c0.6-0.9,1.2-1.9,1.6-2.8c0.4-0.7,0.9-0.8,1.7-0.2c1.3,1,2.6,2,3.9,3.1
			c0.5,0.4,0.7,0.7,0.5,1.1c-0.1,0.1-0.3,0.1-0.8,0.1c-0.4-0.1-1.1,0.1-2,0.6c-1.5,0.7-3,1.4-4.5,2c-0.7,0.3-1,0.7-1,1.3v9.5
			c-0.1,1.3,0.5,1.8,1.7,1.6c1.1,0.2,1.9-0.3,2.3-1.4c0.3-0.7,0.6-2,1-3.9c0.2-0.8,0.3-1.2,0.6-1.2c0.3,0,0.4,0.3,0.4,1
			c0,1.4,0.1,2.7,0.3,3.8c0.1,0.7,0.6,1.2,1.5,1.4c0.7,0.2,0.9,0.6,0.8,1.3c-0.4,1.4-0.9,2.5-1.5,3.2c-0.7,0.6-1.5,0.9-2.4,1H118
			c-1-0.1-1.8-0.6-2.3-1.7c-0.2-0.4-0.3-0.9-0.4-1.3L115.3,393.9L115.3,393.9z"/>
		<path class="st4" d="M114.2,437c0.1-0.6,0.4-0.9,1-0.7c1.6,0.4,3.2,0.8,4.8,1.3c0.8,0.4,0.7,0.8-0.3,1.2c-0.2,0.1-0.4,0.3-0.6,0.8
			c-0.2,0.5-0.1,0.8,0.4,0.8h1.9c0.5,0,1.1-0.3,1.6-0.9s1.2-0.6,1.8-0.2c0.8,0.5,1.5,1,2.3,1.5c0.7,0.4,1.1,0.7,1.3,1.1
			c-0.1,0.3-0.3,0.6-0.6,0.7c-0.3,0.1-0.5,0.4-0.7,0.8c-0.9,1.7-1.9,3.1-2.8,4.4c-0.4,0.5-0.3,0.9,0.3,1c1.1,0.3,2.3,0.5,3.5,0.6
			c0.7,0.1,1.1,0.3,1.1,0.5c0,0.2-0.3,0.7-0.9,1.3c-0.4,0.7-0.8,1.7-1,2.9c-0.1,0.8-0.5,1-1.2,0.7c-1.5-0.5-3.2-1.3-4.9-2.4
			c-0.6-0.5-1.3-0.5-1.9-0.1c-1.3,0.7-2.7,1.3-4.5,1.9c-0.6,0.2-0.6,0.4-0.1,0.5l1.7,0.6c0.6,0.2,1.1,0.3,1.5,0.3h3.1
			c0.5,0,1.1-0.3,1.7-0.9c0.6-0.6,1.2-0.6,1.9-0.2c0.8,0.5,1.6,1,2.3,1.5c1.1,0.5,1.2,1,0.4,1.6c-0.2,0.1-0.3,0.4-0.3,0.9v6.6
			c0,0.6-0.3,1-1,1.1l-3.3,0.5c-0.7,0.1-1-0.2-1-0.8v-0.7c0-0.5-0.3-0.8-0.8-0.8h-2.9c-0.5,0-0.8,0.3-0.8,0.9s-0.3,1-1,1.1l-2.9,0.5
			c-0.8,0.1-1.2-0.2-1.2-0.8v-5.8c0-0.5-0.3-0.6-1-0.3l-10.1,5.3c-0.3,0.6-0.6,1-0.9,1.2c-0.3,0.1-0.6-0.2-0.8-0.8l-1-4.5
			c-0.2-0.6-0.1-1,0.3-1c0.4,0,0.6-0.3,0.6-0.7v-7.5c0-0.6,0.3-1,1-0.9l2.3,0.1c0.8,0.1,1.3,0.2,1.3,0.3c0,0.1-0.1,0.3-0.3,0.5
			c-0.2,0.1-0.3,0.5-0.3,1v6.2c0,0.5,0.2,0.8,0.5,0.8c0.3-0.1,0.5-0.4,0.5-0.9v-9.2c0-0.5-0.3-0.7-1-0.7c-0.9,0.1-1.8,0.2-2.6,0.4
			c-0.7,0.1-1-0.1-1-0.8v-10.6c0-0.6,0.3-0.9,1-0.7c0.8,0.2,1.5,0.5,2.3,0.8c0.8,0.5,1.9,0.6,3.3,0.5c0.5,0,1.1-0.3,1.7-0.9
			c0.6-0.5,1.2-0.5,1.9-0.1l1.7,1.1c1.2,0.5,1.5,1.1,0.7,1.6c-0.3,0.1-0.4,0.5-0.4,1v5.1c0,0.7,0.2,0.7,0.4,0
			C113.2,443.9,113.8,440.8,114.2,437z M107,440.3c0-0.6-0.2-0.9-0.7-0.9h-1.2c-0.5,0-0.8,0.3-0.8,0.8v5.7c0,0.5,0.3,0.8,0.8,0.8
			h1.2c0.5,0,0.8-0.3,0.8-0.8V440.3z M116.3,446.5c-0.2-0.6-0.6-0.6-1.1,0c-1,1.1-2,2-3.1,2.7c-0.6,0.4-1,0.5-1.1,0.4
			c-0.1-0.1,0-0.3,0.1-0.5c0.1-0.3-0.2-0.3-0.8-0.2l-0.8,0.1c-0.6,0.1-0.8,0.3-0.8,0.8v2.3c0,0.5,0.1,0.8,0.2,0.8
			c0.1,0,0.4-0.3,0.8-0.9l0.4-0.6c0.4-0.6,0.9-0.7,1.5-0.1l0.6,0.7c0.7,0.7,1.2,1,1.6,0.8c1.4-1.1,2.5-2,3.3-2.8
			c0.4-0.5,0.4-1.1,0.1-1.7C116.8,447.6,116.6,447,116.3,446.5z M110.7,454.5c1.3-0.5,1.3-0.7,0.2-0.7h-1.3c-0.5,0-0.8,0.3-0.8,0.8
			v3.8c0,0.5,0.3,0.7,1,0.7l1.9-0.2c0.5-0.1,0.8-0.4,0.8-0.9v-2c0-0.5-0.3-0.7-1-0.6c-0.1,0-0.2,0-0.3,0c-0.8,0.1-1.2,0.1-1.2-0.1
			C109.8,455.1,110.1,454.8,110.7,454.5z M121.7,442.1c0.3-0.6,0.1-0.8-0.3-0.8h-2.1c-0.5,0-0.9,0.3-1.3,1l-0.7,1.4
			c-0.3,0.5-0.2,1,0.2,1.5c0.3,0.3,0.6,0.6,0.9,1c0.6,0.4,1,0.3,1.4-0.3C120.5,444.7,121.1,443.4,121.7,442.1z M121.8,457.6
			c0-0.6-0.3-0.8-0.7-0.8h-3c-0.5,0-0.8,0.3-0.8,0.8v5.3c0,0.5,0.3,0.8,0.8,0.8h2.9c0.5,0,0.8-0.3,0.8-0.8V457.6z"/>
	</g>
	<g>
		<g>
			<path class="st4" d="M849.8,309.8c0.6-0.8,1.2-0.9,1.8-0.4l1.6,1.3c0.8,0.7,1.1,1.1,0.9,1.5c-0.2,0.3-0.6,0.5-1.2,0.5h-9.1
				c-0.5,0-0.8,0.3-0.8,1c0,2.2-0.2,4.6-0.3,7.1c0,0.6,0.2,0.9,0.6,0.9h5.9c0.5,0,1-0.3,1.6-1l1.1-1.3c0.5-0.6,1.1-0.7,1.8-0.1
				l1.6,1.4c0.8,0.7,1,1.1,0.8,1.5c-0.2,0.3-0.7,0.5-1.3,0.5h-11.5c-0.5,0-0.7,0.3-0.3,1c1.6,2.8,3.8,4.9,6.7,6.2
				c1.9,0.9,4,1.6,6.2,2.2c0.7,0.2,1,0.4,1,0.6c0,0.3-0.3,0.7-1,1.2c-1,1.1-1.7,2.5-1.9,4.2c-0.1,0.7-0.5,0.9-1.2,0.5
				c-3.4-1.8-5.8-3.7-7.4-5.8c-1.2-1.7-2.2-4-3-6.8c-0.2-0.6-0.4-0.4-0.5,0.4c-0.3,1.8-1,3.4-1.9,5c-1.3,2-3,3.5-4.8,4.6
				c-2.4,1.4-5.1,2.5-8.1,3.3c-0.7,0.2-1,0.2-1.1-0.1s0.3-0.6,1.1-1c4.4-2.5,7.3-5.7,8.6-9.5c0.5-1.8,0.8-3.4,1-5
				c0.1-0.5-0.2-0.8-0.7-0.8h-8.6c-0.6,0-1-0.1-1.2-0.5c-0.1-0.3,0.1-0.5,0.8-0.5h9c0.5,0,0.8-0.3,0.9-1c0.2-2.4,0.3-4.8,0.3-7.2
				c0-0.5-0.3-0.8-0.8-0.8h-7.5c-0.6,0-1-0.1-1.2-0.5c-0.1-0.3,0.1-0.5,0.8-0.5h19.1c0.5,0,1-0.3,1.5-1L849.8,309.8z"/>
			<path class="st4" d="M841,375.1c0-0.6,0.3-1,1-0.9c1.6,0.1,3.2,0.2,4.8,0.4c0.4,0.1,0.6,0.3,0.6,0.5c-0.1,0.4-0.4,0.6-0.8,0.8
				c-0.3,0.2-0.5,0.5-0.5,1v0.9c0,0.5,0.3,0.8,1,0.8s1.3-0.3,1.8-0.8l0.7-0.7c0.6-0.6,1.3-0.8,1.9-0.4l2.9,1.9
				c0.7,0.5,0.6,0.9-0.1,1.3c-0.6,0.2-0.9,1-0.6,2.2c0,1.1,0.3,1.1,0.9-0.2c0.5-0.6,0.9-0.6,1.4,0c0.1,0.1,0.2,0.2,0.2,0.3
				c0.7,0.6,0.8,1.2,0.5,1.5c-0.1,0.2-0.5,0.3-1.1,0.3h-1c-0.5,0-0.8,0.3-0.8,0.8v3.3c0,0.6-0.2,1-0.6,1.1c-0.4,0-0.3,0.3,0.3,0.9
				l1.7,1.4c0.6,0.5,0.8,0.9,0.6,1.2c-0.2,0.3-0.7,0.5-1.3,0.5h-7.4c-0.5,0-0.8,0.3-0.8,0.8v2.3c0,0.5,0.3,0.8,0.8,0.8h3
				c0.6,0.3,1.4-0.4,2.3-1.9c0.6-0.8,1.3-0.9,1.9-0.3l1.7,1.4c0.6,0.5,0.8,1,0.7,1.2c-0.3,0.3-0.7,0.5-1.3,0.5h-8.3
				c-0.5,0-0.8,0.3-0.8,0.8v4.5c0,0.6-0.3,1-1,1.1c-1,0.1-2.1,0.3-3.2,0.5c-0.6,0.1-1-0.2-1-0.9v-5.2c0-0.5-0.3-0.8-0.8-0.8h-6.2
				c-0.6,0-1-0.1-1.2-0.4c-0.2-0.3,0.1-0.5,0.6-0.5h6.7c0.5,0,0.8-0.3,0.8-0.8v-2.3c0-0.5-0.3-0.8-0.8-0.8h-5.1
				c-0.6,0-1-0.1-1.2-0.5c-0.1-0.3,0.2-0.5,0.8-0.5h5.4c0.5,0,0.8-0.3,0.8-0.8v-1.8c0-0.5-0.3-0.8-0.8-0.8h-3.3
				c-0.6,0-1-0.1-1.2-0.5c-0.1-0.3,0.1-0.5,0.8-0.5h3.6c0.5,0,0.8-0.3,0.8-0.8v-2.3c0-0.5-0.3-0.8-0.8-0.8h-3.6
				c-0.6,0-1-0.1-1.2-0.3c-0.1-0.1-0.2,0.1-0.4,0.9c-0.9,3.7-1.8,7.5-2.7,11.2c0,0.7,0,1.2,0.3,1.5c1.2,1.9,1.5,3.6,1,5.2
				c-0.6,1.3-1.8,1.9-3.4,1.7c-0.5-0.1-0.9-0.3-1.3-0.5c-0.9-0.8-1.2-1.9-0.9-3.3c0.2-0.9,0.4-1.7,0.7-2.6c0.3-1.1-0.2-1.9-1.6-2.3
				c-0.6-0.1-1-0.3-1-0.5c0-0.2,0.3-0.4,1-0.4c0.7,0,1.2-0.3,1.5-0.8l2-3.8c0.3-0.6,0.2-0.8-0.5-0.6c-1.2,0.2-2-0.6-2.5-2.4
				c-0.1-1-0.4-1.9-1-2.6c-0.6-0.6-0.9-1-0.8-1.1c0.1-0.2,0.5-0.3,1.3-0.3c1,0.1,1.9,0.2,2.6,0.4c1.1,0.3,1.9,1,2.5,2.4
				c0.1,0.6,0.3,0.6,0.7-0.1c0.8-1.6,1.6-3.1,2.4-4.7c0.4-0.7,0.6-1,0.7-1c0.1,0.2,0.1,0.6-0.1,1.2c-0.1,0.4-0.2,0.8-0.3,1.2
				c-0.1,0.5,0.1,0.8,0.6,0.8h4c0.5,0,0.8-0.3,0.8-0.8v-2.3c0-0.5-0.3-0.8-0.8-0.8h-2.6c-0.6,0-1-0.1-1.2-0.4
				c-0.2-0.3,0.1-0.4,0.7-0.4h3c0.5,0,0.8-0.3,0.8-0.8L841,375.1L841,375.1z M827.3,375.1c0.1-0.1,0.4-0.2,1.1-0.2
				c2.2,0,3.8,0.4,4.9,1.3c0.8,0.7,1.3,1.6,1.3,2.5c0,1.1-0.5,1.9-1.3,2.5c-1.2,0.7-2.3,0.5-3.4-0.8c-0.2-0.3-0.3-0.7-0.4-1.1
				c0-1.2-0.5-2.2-1.5-3.2C827.5,375.7,827.2,375.3,827.3,375.1z M848.4,380.2c0-0.6-0.2-0.9-0.7-0.9h-0.8c-0.5,0-0.8,0.3-0.8,0.8
				v2.3c0,0.5,0.3,0.8,0.8,0.8h0.8c0.5,0,0.8-0.3,0.8-0.8L848.4,380.2L848.4,380.2z M848.4,384.9c0-0.6-0.3-0.8-0.7-0.8h-0.8
				c-0.5,0-0.8,0.3-0.8,0.8v2.3c0,0.5,0.3,0.8,0.8,0.8h0.8c0.5,0,0.8-0.3,0.8-0.8L848.4,384.9L848.4,384.9z M848.4,389.3
				c0-0.3-0.3-0.5-0.7-0.5h-0.8c-0.5,0-0.8,0.3-0.8,0.8v1.8c0,0.5,0.3,0.8,0.8,0.8h2.2c0.5,0,1-0.3,1.6-1l0.8-1
				c0.6-0.7,0.5-1-0.1-0.9l-1.9,0.3C848.8,389.7,848.4,389.6,848.4,389.3z"/>
			<path class="st4" d="M829.9,440.2c0.2-0.7,0.6-1,1.2-0.8c1.7,0.4,3.3,0.8,5,1.2c0.5,0.4,0.3,0.7-0.3,1c-0.4,0.2-0.8,0.5-1.1,1
				c-0.7,1-1.8,2-3.1,3.3c-0.5,0.4-0.4,0.7,0.3,0.8l4.3,1c0.3,0,0.5,0.2,0.6,0.5c-0.1,0.4-0.3,0.6-0.6,0.6c-0.3,0.1-0.6,0.4-0.9,0.7
				c-0.4,0.5-0.3,0.8,0.2,0.8h1.7c0.5,0,0.8-0.3,0.8-0.8v-2.9c0-0.5-0.3-0.8-0.8-0.8h-1.3c-0.6,0-1-0.1-1.2-0.4
				c-0.1-0.3,0.1-0.4,0.7-0.4h1.7c0.5,0,0.8-0.3,0.8-0.8v-3.8c0-0.6,0.3-1,1-0.9l2.3,0.2c1.3,0,2.2,0.1,2.7,0.4
				c0.4,0.4,0.2,0.8-0.6,1c-0.3,0.1-0.5,0.5-0.5,1v2c0,0.5,0.2,0.5,0.7-0.1l0.3-0.4c0.5-0.6,1.1-0.6,1.8,0l0.6,0.5
				c0.6,0.6,0.9,1,0.7,1.3c-0.2,0.3-0.6,0.4-1.3,0.4h-2.1c-0.5,0-0.8,0.3-0.8,0.8v2.9c0,0.5,0.3,0.5,0.9-0.1
				c0.1-0.1,0.2-0.2,0.3-0.3c0.5-0.6,1.1-0.6,1.8,0c1.1,1,2,1.5,2.5,1.4h1.5c0.5,0,1-0.3,1.5-1l0.8-1c0.6-0.8,1.2-0.9,1.8-0.4
				c0.6,0.5,1.3,1,1.9,1.6c0.6,0.5,0.8,0.9,0.6,1.2c-0.2,0.3-0.6,0.5-1.3,0.5h-0.8c-0.5,0-0.8,0.3-0.8,0.8v14.5
				c0.2,1.6-0.5,2.5-2,2.9c-0.9,0.2-1.8,0.3-2.7,0.3c-0.6,0-1-0.3-1.2-1c-0.1-1.1-0.8-2-2-2.8c-0.5-0.3-0.8-0.5-0.8-0.6
				c0-0.1,0.3-0.2,1-0.2h1.6c0.5,0,0.8-0.3,0.8-0.8V452c0-0.5-0.3-0.8-0.8-0.8h-12.3c-0.6,0-1,0-1-0.1c0-0.1-0.3,0.2-0.9,0.9
				c-0.6,0.6-0.7,1-0.5,1.1c0.4,0.1,0.6,0.2,0.6,0.3c0,0.1-0.1,0.3-0.3,0.5c-0.2,0.1-0.3,0.5-0.3,1v13.6c0,0.6-0.3,1-1,1.1l-2.6,0.2
				c-0.7,0.1-1-0.2-1-0.8v-11.5c0.3-1-0.2-1-1.3,0.1c-0.8,0.5-1.3,0.8-1.4,0.6c-0.1-0.1,0.1-0.5,0.6-1.2c2-2.9,3.3-6.1,4.1-9.6
				c0.1-0.6-0.1-0.6-0.8-0.1c-0.7,0.5-1.5,1-2.2,1.5c-0.8,0.5-1.3,0.7-1.4,0.6c-0.1-0.1,0.1-0.5,0.5-1.2
				C828.1,445.9,829.2,443.2,829.9,440.2z M837.8,453c0-0.7,0.3-1,0.9-1c1.4,0.1,2.8,0.2,4.1,0.3c0.5,0,0.7,0.2,0.8,0.6
				c-0.1,0.1-0.3,0.3-0.6,0.5c-0.3,0.2-0.5,0.5-0.5,1v0.9c0,0.5,0,0.8,0.1,0.8c0.1,0,0.4-0.3,1-1l0.3-0.4c0.6-0.7,1.2-0.8,1.8-0.3
				l0.9,0.7c0.8,0.6,1.1,1.1,0.9,1.4c-0.2,0.3-0.5,0.5-1.2,0.5h-3.2c-0.5,0-0.8,0.3-0.8,0.8v2.8c0,0.5,0.3,0.8,1,0.7l3.3-0.3
				c0.7-0.1,1.1,0,1.1,0.2c0,0.2-0.3,0.5-0.9,0.8c-3.5,1.6-7.1,3.2-10.6,4.9c-0.3,0.1-0.6,0.4-0.9,0.8c-0.3,0.5-0.6,0.6-0.9,0.5
				c-0.3-0.3-0.5-0.7-0.5-1.2c-0.3-1.3-0.6-2.6-0.9-3.9c-0.2-0.6,0.1-1,0.8-1c0.9-0.1,1.8-0.1,2.8-0.2c0.5-0.1,0.8-0.4,0.8-0.9V458
				c0-0.5-0.3-0.8-0.8-0.8h-1.8c-0.6,0-1-0.1-1.2-0.5c-0.1-0.3,0.2-0.5,0.8-0.5h2.2c0.5,0,0.8-0.3,0.8-0.8L837.8,453L837.8,453z
				 M851.7,441.6c0.6-0.7,1.2-0.8,1.8-0.3l1.6,1.4c0.6,0.5,0.9,1,0.7,1.3c-0.2,0.3-0.7,0.5-1.3,0.5h-7c-0.6,0-1-0.1-1.2-0.5
				c-0.1-0.3,0.1-0.5,0.8-0.5h2.2c0.5,0,1-0.3,1.6-1L851.7,441.6z"/>
		</g>
	</g>
	<g>
		<g>
			<path class="st4" d="M395.8,127c0-0.6,0.3-0.9,1-0.9c1.6,0.1,3.2,0.2,4.8,0.3c0.4,0.1,0.6,0.3,0.6,0.5c0,0.3-0.3,0.5-0.8,0.8
				c-0.3,0.2-0.5,0.5-0.5,1v25.9c0,0.6-0.3,1-1,1.1c-1.1,0.1-2.1,0.3-3.2,0.5c-0.7,0.1-1-0.2-1-0.8v-6.8c0-0.5-0.3-0.5-0.8,0.1
				l-3.6,4.5c-0.2,0.7-0.5,1.1-1.1,1.2c-0.2-0.1-0.4-0.5-0.7-1.3l-1.4-4.3c-0.2-0.7,0-1.2,0.7-1.5l6-2.3c0.5-0.2,0.8-0.6,0.8-1.1
				v-6.4c0-0.5-0.3-0.8-0.8-0.8h-5.6c-0.6,0-1-0.1-1.2-0.4c-0.1-0.3,0.2-0.4,0.8-0.4h5.9c0.5,0,0.8-0.3,0.8-0.8V127z M404.6,127
				c0-0.6,0.3-0.9,0.9-0.9c1.6,0.1,3.2,0.2,4.8,0.3c0.9,0.3,0.9,0.7,0,1.4c-0.4,0.2-0.5,0.5-0.5,1v5.3c0,0.7,0.2,0.8,0.6,0.3
				c0.6-0.9,1.1-1.9,1.6-2.8c0.4-0.7,1-0.8,1.7-0.2c1.3,1,2.6,2,3.9,3.1c0.5,0.4,0.7,0.7,0.5,1.1c-0.1,0.1-0.3,0.1-0.8,0.1
				c-0.4-0.1-1.1,0.1-2,0.6c-1.5,0.7-3,1.4-4.5,2c-0.7,0.3-1,0.7-1,1.3v9.5c-0.1,1.3,0.5,1.8,1.7,1.6c1.1,0.2,1.9-0.3,2.3-1.4
				c0.3-0.7,0.6-2,1-3.9c0.1-0.8,0.4-1.2,0.6-1.2c0.3,0,0.5,0.3,0.5,1c0,1.4,0.1,2.7,0.3,3.8c0.1,0.7,0.6,1.2,1.5,1.4
				c0.7,0.2,1,0.6,0.8,1.3c-0.4,1.4-0.9,2.5-1.5,3.2c-0.7,0.6-1.5,0.9-2.4,1h-7.2c-1-0.1-1.8-0.6-2.4-1.7c-0.2-0.4-0.3-0.9-0.4-1.3
				L404.6,127L404.6,127z"/>
			<path class="st4" d="M460.6,126.7c0.6-0.7,1.1-0.8,1.7-0.3l2,1.7c0.7,0.6,1,1,0.7,1.3c-0.3,0.3-0.7,0.5-1.4,0.5h-10
				c-0.5,0-0.8,0.3-0.8,0.8V142c0,0.5,0.3,0.8,0.8,0.8h5c0.5,0,1-0.3,1.6-1l1.3-1.6c0.5-0.6,1.1-0.7,1.7-0.2
				c0.8,0.6,1.5,1.2,2.3,1.9c0.6,0.6,0.9,1,0.6,1.3c-0.3,0.3-0.8,0.4-1.4,0.4h-11c-0.5,0-0.8,0.3-0.8,0.8v10.9c0,0.6-0.3,1-1,1.1
				l-3.4,0.4c-0.7,0.1-1.1-0.2-1.1-0.7v-11.6c0-0.5-0.3-0.8-0.8-0.8h-10.1c-0.6,0-1-0.1-1.2-0.4c-0.1-0.3,0.2-0.4,0.8-0.4h10.4
				c0.5,0,0.8-0.3,0.8-0.8v-11.3c0-0.5-0.3-0.8-0.8-0.8h-9.5c-0.6,0-1-0.1-1.1-0.4c-0.1-0.3,0.1-0.5,0.6-0.5h21.3c0.5,0,1-0.3,1.6-1
				L460.6,126.7z M437.8,131.7c0.1-0.2,0.5-0.2,1.1,0c1.9,0.6,3.5,1.3,4.8,2.3c1.8,1.8,2.2,3.6,1.3,5.3c-1.2,1.9-2.4,2.3-3.6,1.3
				c-0.5-0.7-0.8-1.6-1-2.6c-0.3-1.7-1-3.4-2.1-5.2C437.9,132.3,437.7,131.9,437.8,131.7z M458.2,131.9c0.3-0.7,0.7-1,1.2-0.7
				l4.9,2.2c0.6,0.5,0.9,0.8,0.9,0.9c-0.1,0.2-0.3,0.4-0.7,0.5c-0.6,0.1-1,0.3-1.3,0.5c-2.6,2.4-5.2,4.4-7.7,5.8
				c-0.6,0.3-1,0.4-1.1,0.2c-0.1-0.2,0-0.7,0.4-1.3C456.2,137.2,457.4,134.4,458.2,131.9z"/>
			<path class="st4" d="M495.7,127c0-0.6,0.3-0.9,1-0.9l3.5,0.3c0.5,0,0.9,0.1,1.5,0.2c0.5,0.4,0.4,0.7-0.3,1.1
				c-0.6,0.1-0.8,0.8-0.6,2.1c0,0.5,0.3,0.8,0.8,0.8h5.1c0.5,0,1-0.3,1.6-1l1.1-1.4c0.6-0.7,1.1-0.8,1.8-0.2l2.2,1.8
				c0.6,0.5,0.7,0.8,0.5,1.1c-0.3,0.3-0.7,0.5-1.4,0.5h-10.8c-0.5,0-0.8,0.3-0.8,0.8v1.3c0,0.5,0.3,0.8,0.8,0.8h2.8
				c0.5,0.2,1.2-0.2,2.1-1.1c0.6-0.5,1.3-0.6,1.9-0.2l2.6,1.7c0.6,0.5,0.8,0.8,0.8,1c-0.1,0.1-0.3,0.3-0.6,0.5
				c-0.3,0.2-0.5,0.5-0.5,1v7.1c0,0.6-0.3,1-1,1.1c-1.1,0.1-2.2,0.3-3.4,0.5c-0.7,0.1-1.1-0.1-1.1-0.5c0-0.5-0.3-0.8-0.8-0.8h-2.5
				c-0.5,0-0.5,0.2,0.1,0.7c2.6,1.9,6.3,3.1,11.1,3.7c0.7,0.1,1.1,0.3,1.1,0.4c0,0.3-0.3,0.7-0.9,1.2c-0.9,1-1.5,2.3-1.8,3.9
				c-0.1,0.7-0.6,0.9-1.4,0.6c-1.9-0.8-3.6-1.8-5.2-3c-1.7-1.6-2.9-3.1-3.6-4.4c-0.4-0.9-0.6-1-0.6-0.3v7.7c0,0.6-0.3,1-1,1.1
				c-1,0.1-1.9,0.2-2.9,0.4c-0.8,0.1-1.2-0.2-1.2-0.8v-4.8c0-0.5-0.3-0.6-1-0.1c-2.9,1.9-6.2,3.4-10,4.4c-0.8,0.2-1.2,0.2-1.4-0.1
				c-0.1-0.2,0.1-0.5,0.8-0.9c4.1-2,7.3-4.9,9.6-8.9c0.3-0.5,0.2-0.8-0.3-0.8h-1.5c-0.5,0-0.8,0.2-0.8,0.6c0,0.4-0.3,0.7-1,0.8
				l-3.2,0.5c-0.6,0.1-1-0.2-1-0.8v-12c0-0.6,0.3-0.9,1-0.7l3.5,1.2c0.4,0.1,0.8,0.2,1.3,0.2h3c0.5,0,0.8-0.3,0.8-0.8v-1.3
				c0-0.5-0.3-0.8-0.8-0.8h-10.1c-0.6,0-1-0.1-1.1-0.4c-0.2-0.3,0-0.5,0.6-0.5h10.6c0.5,0,0.8-0.3,0.8-0.8L495.7,127L495.7,127z
				 M495.7,136c0-0.5-0.3-0.8-0.8-0.8H492c-0.5,0-0.8,0.3-0.8,0.8v2.2c0,0.5,0.3,0.8,0.8,0.8h2.9c0.5,0,0.8-0.3,0.8-0.8V136z
				 M495.7,140.6c0-0.6-0.3-0.8-0.7-0.8h-3c-0.5,0-0.8,0.3-0.8,0.8v2.3c0,0.5,0.3,0.8,0.8,0.8h2.9c0.5,0,0.8-0.3,0.8-0.8V140.6z
				 M505.1,136c0-0.5-0.3-0.8-0.8-0.8h-2.8c-0.5,0-0.8,0.3-0.8,0.8v2.2c0,0.5,0.3,0.8,0.8,0.8h2.8c0.5,0,0.8-0.3,0.8-0.8V136z
				 M505.1,140.6c0-0.6-0.3-0.8-0.7-0.8h-2.8c-0.5,0-0.8,0.3-0.8,0.8v2.3c0,0.5,0.3,0.8,0.8,0.8h2.8c0.5,0,0.8-0.3,0.8-0.8
				L505.1,140.6L505.1,140.6z"/>
			<path class="st4" d="M547,126.7c0.1-0.6,0.4-0.9,1-0.7c1.6,0.4,3.2,0.8,4.8,1.3c0.8,0.4,0.7,0.8-0.3,1.2
				c-0.2,0.1-0.4,0.3-0.6,0.8c-0.2,0.5-0.1,0.8,0.4,0.8h1.9c0.5,0,1.1-0.3,1.6-0.9s1.2-0.6,1.8-0.2c0.8,0.5,1.5,1,2.3,1.5
				c0.7,0.4,1.1,0.7,1.3,1.1c-0.1,0.3-0.3,0.6-0.6,0.7c-0.3,0.1-0.5,0.4-0.7,0.8c-1,1.7-1.9,3.1-2.8,4.4c-0.5,0.5-0.3,0.9,0.3,1
				c1.1,0.3,2.3,0.5,3.5,0.6c0.7,0.1,1.1,0.3,1.1,0.5c0,0.2-0.3,0.7-0.9,1.3c-0.4,0.7-0.8,1.7-1,2.9c-0.1,0.8-0.5,1-1.2,0.7
				c-1.5-0.5-3.2-1.3-4.9-2.4c-0.6-0.4-1.3-0.5-1.9-0.1c-1.3,0.7-2.7,1.3-4.5,1.9c-0.6,0.2-0.6,0.4-0.1,0.6l1.7,0.6
				c0.6,0.2,1.1,0.3,1.5,0.3h3.1c0.5,0,1.1-0.3,1.7-0.9c0.6-0.6,1.2-0.6,1.9-0.2c0.8,0.5,1.5,1,2.3,1.5c1.1,0.5,1.3,1,0.5,1.6
				c-0.2,0.1-0.3,0.4-0.3,0.9v6.6c0,0.6-0.3,1-1,1.1l-3.3,0.4c-0.7,0.1-1-0.2-1-0.8v-0.7c0-0.5-0.3-0.8-0.8-0.8H551
				c-0.5,0-0.8,0.3-0.8,0.9c0,0.6-0.3,1-1,1.1l-2.9,0.4c-0.8,0.1-1.2-0.2-1.2-0.8v-5.8c0-0.5-0.3-0.6-1-0.3l-10,5.3
				c-0.3,0.6-0.6,1-0.9,1.2c-0.3,0.1-0.6-0.2-0.8-0.8l-1-4.5c-0.2-0.6,0-1,0.3-1c0.4,0,0.6-0.3,0.6-0.7v-7.5c0-0.6,0.3-1,1-0.9
				l2.3,0.1c0.8,0.1,1.3,0.2,1.3,0.3c0,0.1-0.1,0.3-0.3,0.5c-0.2,0.1-0.3,0.4-0.3,1v6.2c0,0.5,0.2,0.8,0.5,0.8
				c0.3-0.1,0.5-0.4,0.5-0.9v-9.2c0-0.5-0.3-0.7-1-0.7c-0.9,0.1-1.8,0.2-2.6,0.4c-0.7,0.1-1-0.1-1-0.8v-10.6c0-0.6,0.3-0.9,1-0.7
				c0.8,0.2,1.5,0.5,2.3,0.8c0.8,0.5,1.9,0.6,3.3,0.5c0.5,0,1.1-0.3,1.7-0.9c0.6-0.5,1.2-0.5,1.9-0.1l1.7,1.1
				c1.2,0.5,1.5,1.1,0.7,1.6c-0.3,0.1-0.5,0.5-0.5,1v5.1c0,0.7,0.2,0.7,0.5,0C546,133.6,546.7,130.4,547,126.7z M539.9,130
				c0-0.6-0.2-0.9-0.7-0.9H538c-0.5,0-0.8,0.3-0.8,0.8v5.7c0,0.5,0.3,0.8,0.8,0.8h1.2c0.5,0,0.8-0.3,0.8-0.8V130z M549.2,136.1
				c-0.2-0.6-0.6-0.6-1.1,0c-1,1.1-2,2-3.1,2.7c-0.6,0.4-1,0.5-1.1,0.4c-0.1-0.1,0-0.3,0.1-0.6c0.1-0.3-0.2-0.3-0.8-0.2l-0.8,0.1
				c-0.6,0.1-0.8,0.3-0.8,0.8v2.3c0,0.5,0,0.8,0.2,0.8c0.1,0,0.4-0.3,0.8-0.9l0.4-0.6c0.4-0.6,0.9-0.7,1.5-0.1l0.6,0.7
				c0.7,0.7,1.2,0.9,1.6,0.8c1.4-1.1,2.5-2,3.3-2.8c0.4-0.5,0.4-1.1,0.1-1.7C549.7,137.2,549.4,136.7,549.2,136.1z M543.6,144.1
				c1.3-0.5,1.3-0.7,0.2-0.7h-1.3c-0.5,0-0.8,0.3-0.8,0.8v3.8c0,0.5,0.3,0.7,1,0.7l1.9-0.2c0.5-0.1,0.8-0.4,0.8-0.9v-2
				c0-0.5-0.3-0.7-1-0.6c-0.1,0-0.2,0.1-0.3,0c-0.8,0.1-1.2,0.1-1.2-0.1C542.6,144.7,542.9,144.5,543.6,144.1z M554.5,131.8
				c0.3-0.6,0.1-0.8-0.3-0.8h-2.1c-0.5,0-1,0.3-1.3,1l-0.7,1.4c-0.3,0.5-0.2,1,0.2,1.6c0.3,0.3,0.6,0.6,0.9,1c0.6,0.4,1,0.3,1.4-0.3
				C553.3,134.3,554,133.1,554.5,131.8z M554.7,147.2c0-0.6-0.3-0.8-0.7-0.8h-3c-0.5,0-0.8,0.3-0.8,0.8v5.3c0,0.5,0.3,0.8,0.8,0.8
				h2.9c0.5,0,0.8-0.3,0.8-0.8V147.2z"/>
		</g>
	</g>
	<g>
		<g>
			<path class="st4" d="M397.1,658.4c0.1-0.7,0.3-1.1,0.5-1.1c0.2,0.1,0.3,0.4,0.5,1.1c0.4,2,0.5,4,0.4,5.9
				c-0.1,0.8-0.5,1.3-1.3,1.8c-0.9,0.5-1.8,0.6-2.9,0.3c-0.6-0.1-1-0.6-1.4-1.3c-0.4-1.1,0.2-2.3,1.6-3.4
				C395.8,660.9,396.7,659.8,397.1,658.4z M405,639c0-0.7,0.3-1,0.9-1c1.6,0.1,3.2,0.2,4.8,0.3c0.6,0,1,0.1,1.4,0.5
				c0.1,0.3-0.2,0.6-0.8,1c-0.6,0.1-0.9,0.7-0.6,1.8c0,0.5,0.3,0.8,0.8,0.8h2.3c0.6,0.3,1.3-0.3,2.3-1.7c0.6-0.6,1.2-0.7,1.8-0.3
				l2.9,1.8c1.1,0.4,1.3,1,0.4,1.7c-0.5,0.4-0.8,0.9-0.8,1.3v6.8c0,0.6-0.3,1-1,1.1c-1.2,0.1-2.4,0.3-3.6,0.4c-0.6,0-1-0.3-1-0.9
				v-0.8c0-0.5-0.3-0.8-0.8-0.8h-2.5c-0.5,0-0.8,0.3-0.8,0.8v1.7c0,0.6-0.3,1-1,1.1l-3.5,0.5c-0.8,0.1-1.1-0.2-1.1-0.8v-2.5
				c0-0.5-0.3-0.8-0.8-0.8h-2.5c-0.5,0-0.8,0.3-0.8,1c0,0.7-0.3,1.1-1,1.2c-1.1,0.1-2.2,0.3-3.3,0.4c-0.7,0.1-1-0.2-1-0.8V641
				c0-0.6,0.3-0.8,1-0.6l3.5,1.5c0.7,0.5,2,0.7,4,0.5c0.5,0,0.8-0.3,0.8-0.8V639z M399.9,656.7c0-0.7,0.3-1,0.9-0.9
				c1.1,0.1,2.3,0.2,3.5,0.3c0.6,0,1,0.1,1.4,0.3c0.3,0.2,0.2,0.6-0.2,1c-0.3,0.3-0.5,0.7-0.5,1.2c0,1.1,0,2.2,0.1,3.4
				c0.3,0.5,0.7,0.7,1.2,0.5h6.6c0.8-0.2,1.4-0.6,1.6-1.3l0.5-1.3c0.2-0.7,0.5-1,0.7-1c0.3,0,0.4,0.3,0.4,1c-0.1,1.3,0.3,2.3,1,2.9
				c0.2,0.1,0.3,0.5,0.2,1.1c-0.2,1-0.5,1.9-0.9,2.5c-1,1-1.9,1.5-2.9,1.3h-11.7c-1.1-0.4-1.8-1.3-2-2.6L399.9,656.7L399.9,656.7z
				 M405,644.1c0-0.5-0.3-0.8-0.8-0.8h-2.5c-0.5,0-0.8,0.3-0.8,0.8v5.3c0,0.5,0.3,0.8,0.8,0.8h2.5c0.5,0,0.8-0.3,0.8-0.8V644.1z
				 M406.2,655.5c0.1-0.2,0.5-0.3,1-0.3c1.4,0,2.7,0.3,3.7,0.7c1,0.7,1.7,1.5,1.9,2.4c0.3,1.2,0,2.2-0.7,2.9
				c-0.7,0.6-1.4,0.7-2.3,0.4c-1.2-0.5-1.8-1.5-1.7-2.9c-0.1-0.6-0.4-1.3-0.9-1.9C406.4,656.1,406.1,655.6,406.2,655.5z
				 M414.6,644.1c0-0.5-0.3-0.8-0.8-0.8h-2.5c-0.5,0-0.8,0.3-0.8,0.8v5.3c0,0.5,0.3,0.8,0.8,0.8h2.5c0.5,0,0.8-0.3,0.8-0.8V644.1z
				 M416.1,657.2c0.1-0.1,0.5,0,1.1,0.2c1.9,0.6,3.4,1.3,4.8,2.3c1.7,1.8,2.1,3.5,1.2,5.2c-0.4,0.7-0.9,1.2-1.5,1.4
				c-1.1,0.5-1.9,0-2.4-1.3l-0.7-2.6c-0.3-1.3-0.9-2.5-1.9-3.9C416.3,657.8,416,657.3,416.1,657.2z"/>
			<path class="st4" d="M449.8,638.7c0-0.6,0.3-0.9,0.9-0.9c1.6,0,3.2,0.1,4.8,0.3c0.9,0.2,0.9,0.6,0,1.2c-0.3,0.1-0.4,0.4-0.4,0.9
				v0.8c0,0.5,0.2,0.8,0.6,0.8c0.5,0.2,1.2-0.3,2-1.6c0.6-0.6,1.2-0.7,1.8-0.2l1,0.7c0.6,0.5,1.1,0.5,1.5-0.1l0.5-0.7
				c0.5-0.7,1.1-0.8,1.7-0.4l3.5,2.3c0.6,0.6,0.9,0.9,0.9,1c0,0.3-0.3,0.4-0.6,0.5c-0.6,0.1-1,0.2-1.3,0.5l-3.2,2.8
				c-0.6,0.5-0.6,0.7-0.1,0.7h0.9c0.6,0.3,1.4-0.4,2.4-1.9c0.6-0.7,1.2-0.8,1.7-0.3l1.7,1.4c0.7,0.6,0.9,1,0.7,1.3
				c-0.2,0.3-0.7,0.5-1.3,0.5h-7.3c-0.5,0-1,0.2-1.4,0.5l-1.8,1.4c-0.5,0.4-0.5,0.6,0,0.6h1.5c0.5,0,1.1-0.3,1.6-0.9
				c0.6-0.6,1.2-0.7,1.9-0.3l2.9,2c0.7,0.3,1,0.8,0.7,1.3c-0.1,0.1-0.4,0.1-0.9,0.1c-0.5-0.1-1.1,0.1-2,0.6
				c-1.6,0.7-3.3,1.5-4.9,2.3c-0.2,0.1-0.3,0.3-0.5,0.5c-0.5,0.3-0.8,0.7-0.8,1.2c0,0.5,0.3,0.8,0.8,0.8h3.5c0.5,0,1-0.3,1.6-1
				l1-1.3c0.5-0.6,1.1-0.7,1.8-0.2l1.6,1.4c0.7,0.7,1,1.2,0.8,1.5c-0.2,0.3-0.6,0.4-1.3,0.4h-8.9c-0.5,0-0.8,0.3-0.8,0.8v6.6
				c-0.4,1.3-1.3,2-2.6,2.1c-0.8,0.1-1.6,0.2-2.4,0.2c-0.6,0-1-0.3-1.2-1c-0.4-1.4-1.3-2.4-2.6-3.1c-0.7-0.3-1-0.5-1-0.6
				c0-0.1,0.4-0.2,1-0.2h2.8c0.5,0,0.8-0.3,0.8-0.8v-3.3c0-0.5-0.3-0.8-0.8-0.8H443c-0.6,0-1-0.1-1.2-0.3c-0.1-0.3,0.1-0.5,0.6-0.5
				h10.2c0.5,0,0.8-0.3,0.8-0.8v-1.6c0-0.6,0.3-1,1-0.9c0.9,0,1.8,0.1,2.7,0.2c0.5,0,1-0.3,1.7-0.9l1.8-2c0.5-0.5,0.4-0.8-0.1-0.8
				h-2.7c-0.5,0-1,0.1-1.4,0.4c-3.9,2.3-8.9,4-14.9,5.4c-0.6,0.2-1,0.2-1,0.1c-0.1-0.2,0.3-0.4,1-0.8c2.4-1,5-2.3,7.7-3.9
				c0.8-0.5,1.3-0.8,1.5-1.1c-0.1-0.1-0.4-0.1-0.9-0.1h-5c-0.6,0-1-0.2-1.2-0.5c-0.1-0.3,0.2-0.5,0.8-0.5h7.1c0.5,0,1-0.2,1.4-0.5
				l1.6-1.3c0.5-0.5,0.5-0.7-0.1-0.7h-12.7c-0.6,0-1-0.1-1.2-0.3c-0.1-0.3,0.1-0.5,0.7-0.5h7.6c0.5,0,0.8-0.3,0.8-0.8v-3
				c0-0.5-0.3-0.8-0.8-0.8h-4.2c-0.6,0-1-0.1-1.2-0.3c-0.1-0.3,0.1-0.5,0.7-0.5h4.6c0.5,0,0.8-0.3,0.8-0.8L449.8,638.7L449.8,638.7z
				 M459.9,643.3c0.5-0.5,0.4-0.8-0.1-0.8H456c-0.5,0-0.8,0.3-0.8,0.8v3c0,0.5,0.2,0.8,0.6,0.8s0.9-0.3,1.4-0.8
				C458.2,645.4,459,644.4,459.9,643.3z"/>
			<path class="st4" d="M514.9,639c0.6-0.7,1.2-0.8,1.8-0.3l1.5,1.3c0.7,0.6,1,1.1,0.8,1.4c-0.2,0.3-0.6,0.5-1.2,0.5h-7.6
				c-0.5,0-0.8,0.3-0.8,0.8v4.5c0,0.5,0.2,0.8,0.6,0.8c0.5,0.2,1.2-0.3,2-1.6c0.6-0.6,1.2-0.7,1.8-0.3l2.8,1.7
				c1,0.4,1.2,0.9,0.6,1.5c-0.5,0.5-0.8,1-0.8,1.5v16.4c0,0.6-0.3,1-1,1.1l-3.6,0.4c-0.6,0.1-1-0.2-1-0.9v-1c0-0.5-0.3-0.8-0.8-0.8
				h-13.8c-0.5,0-0.8,0.3-0.8,0.8v0.7c0,0.6-0.3,1-1,1.1l-3.3,0.4c-0.7,0.1-1-0.2-1-0.8v-21.6c0-0.6,0.3-0.8,1-0.6l3.5,1.5
				c0.7,0.4,1.2,0.6,1.5,0.5c0.3,0,0.5-0.3,0.5-0.8v-4.5c0-0.5-0.3-0.8-0.8-0.8h-6.4c-0.6,0-1-0.2-1.2-0.5c-0.1-0.3,0.2-0.5,0.8-0.5
				h23.2c0.5,0,1-0.3,1.6-1L514.9,639z M504.1,649.6c0-0.6-0.3-0.8-1-0.8c-0.7,0-1.1,0.3-1.1,1c0,3-0.5,5.7-1.3,8
				c-0.8,1.9-2.3,3.4-4.3,4.7c-0.5,0.3-0.8,0.8-0.8,1.5c0,0.7,0.3,1.1,0.8,1.1h13.8c0.5,0,0.8-0.3,0.8-0.8v-1.7
				c0-0.5-0.3-0.8-0.8-0.8h-2.8c-1.8,0.2-2.9-0.8-3.3-2.8V649.6z M497.4,649.6c0-0.6-0.3-0.8-0.9-0.8c-0.6,0-0.9,0.3-0.9,0.8v10.6
				c0,0.7,0.2,0.7,0.5,0C497.1,657.5,497.5,654,497.4,649.6z M504,642.7c0-0.6-0.3-0.8-0.9-0.8c-0.6,0-0.9,0.3-0.9,0.8v4.5
				c0,0.5,0.3,0.8,0.9,0.8c0.6,0,0.9-0.3,0.9-0.8V642.7z M511,649.6c0-0.6-0.3-0.8-1-0.8c-0.7,0-1.1,0.3-1.1,0.8v6.6
				c0.1,0.7,0.6,1,1.3,0.9c0.5,0,0.8-0.3,0.8-0.8L511,649.6L511,649.6z"/>
			<path class="st4" d="M552.2,638.7c0.1-0.6,0.4-0.9,1-0.7c1.6,0.4,3.2,0.8,4.8,1.3c0.8,0.4,0.7,0.8-0.3,1.2
				c-0.2,0.1-0.4,0.3-0.6,0.8c-0.2,0.5-0.1,0.8,0.4,0.8h1.9c0.5,0,1.1-0.3,1.6-0.9s1.2-0.6,1.8-0.2c0.8,0.5,1.5,1,2.3,1.5
				c0.7,0.4,1.1,0.7,1.3,1.1c-0.1,0.3-0.3,0.6-0.6,0.7c-0.3,0.1-0.5,0.4-0.7,0.8c-1,1.7-1.9,3.2-2.8,4.4c-0.5,0.5-0.3,0.9,0.3,1
				c1.1,0.3,2.3,0.5,3.5,0.6c0.7,0.1,1.1,0.3,1.1,0.5c0,0.2-0.3,0.7-0.9,1.3c-0.4,0.7-0.8,1.7-1,2.9c-0.1,0.8-0.5,1-1.2,0.7
				c-1.5-0.5-3.2-1.3-4.9-2.4c-0.6-0.5-1.3-0.5-1.9-0.1c-1.3,0.7-2.7,1.3-4.5,1.9c-0.6,0.2-0.6,0.3-0.1,0.5l1.7,0.6
				c0.6,0.2,1.1,0.3,1.5,0.3h3.1c0.5,0,1.1-0.3,1.7-0.9c0.6-0.6,1.2-0.6,1.9-0.2c0.8,0.5,1.5,1,2.3,1.5c1.1,0.5,1.3,1,0.5,1.6
				c-0.2,0.1-0.3,0.4-0.3,0.9v6.6c0,0.6-0.3,1-1,1.1l-3.3,0.5c-0.7,0.1-1-0.2-1-0.8V667c0-0.5-0.3-0.8-0.8-0.8h-2.9
				c-0.5,0-0.8,0.3-0.8,0.9c0,0.6-0.3,1-1,1.1l-2.9,0.5c-0.8,0.1-1.2-0.2-1.2-0.8V662c0-0.5-0.3-0.6-1-0.3l-10,5.3
				c-0.3,0.6-0.6,1-0.9,1.2c-0.3,0.1-0.6-0.2-0.8-0.8l-1-4.5c-0.2-0.6,0-1,0.3-1c0.4,0,0.6-0.3,0.6-0.7v-7.5c0-0.6,0.3-1,1-0.9
				l2.3,0.1c0.8,0.1,1.3,0.2,1.3,0.3c0,0.1-0.1,0.3-0.3,0.5c-0.2,0.1-0.3,0.5-0.3,1v6.2c0,0.5,0.2,0.8,0.5,0.8
				c0.3-0.1,0.5-0.3,0.5-0.9v-9.2c0-0.5-0.3-0.7-1-0.7c-0.9,0.1-1.8,0.2-2.6,0.3c-0.7,0.1-1-0.2-1-0.8v-10.6c0-0.6,0.3-0.9,1-0.7
				c0.8,0.2,1.5,0.5,2.3,0.8c0.8,0.5,1.9,0.6,3.3,0.5c0.5,0,1.1-0.3,1.7-0.9c0.6-0.5,1.2-0.5,1.9-0.1l1.7,1.1
				c1.2,0.5,1.5,1.1,0.7,1.6c-0.3,0.2-0.5,0.5-0.5,1v5.1c0,0.7,0.2,0.7,0.5,0C551.2,645.6,551.8,642.5,552.2,638.7z M545,642
				c0-0.6-0.2-0.9-0.7-0.9h-1.2c-0.5,0-0.8,0.3-0.8,0.8v5.7c0,0.5,0.3,0.8,0.8,0.8h1.2c0.5,0,0.8-0.3,0.8-0.8V642z M554.3,648.1
				c-0.2-0.6-0.6-0.6-1.1,0c-1,1.1-2,2-3.1,2.7c-0.6,0.4-1,0.5-1.1,0.4c-0.1-0.1,0-0.3,0.1-0.5c0.1-0.3-0.2-0.3-0.8-0.2l-0.8,0.1
				c-0.6,0.1-0.8,0.3-0.8,0.8v2.3c0,0.5,0,0.8,0.2,0.8c0.1,0,0.4-0.3,0.8-0.9l0.4-0.6c0.4-0.6,0.9-0.7,1.5-0.1l0.6,0.7
				c0.7,0.7,1.2,1,1.6,0.8c1.4-1.1,2.5-2,3.3-2.8c0.4-0.5,0.4-1.1,0.1-1.7C554.8,649.2,554.6,648.7,554.3,648.1z M548.7,656.2
				c1.3-0.5,1.3-0.7,0.2-0.7h-1.3c-0.5,0-0.8,0.3-0.8,0.8v3.8c0,0.5,0.3,0.7,1,0.7l1.9-0.2c0.5-0.1,0.8-0.4,0.8-0.9v-2
				c0-0.5-0.3-0.7-1-0.6c-0.1,0-0.2,0-0.3,0c-0.8,0.2-1.2,0.1-1.2-0.1C547.8,656.8,548.1,656.5,548.7,656.2z M559.7,643.8
				c0.3-0.6,0.1-0.8-0.3-0.8h-2.1c-0.5,0-1,0.3-1.3,1l-0.7,1.4c-0.3,0.5-0.2,1,0.2,1.5c0.3,0.3,0.6,0.6,0.9,1c0.6,0.4,1,0.3,1.4-0.3
				C558.5,646.3,559.1,645.1,559.7,643.8z M559.9,659.2c0-0.6-0.3-0.8-0.7-0.8h-3c-0.5,0-0.8,0.3-0.8,0.8v5.3c0,0.5,0.3,0.8,0.8,0.8
				h2.9c0.5,0,0.8-0.3,0.8-0.8V659.2z"/>
		</g>
	</g>
</g>
<g id="D05">
	<g>
		<path class="st13" d="M380.1,453.1c-7.9-7.9-18.1-11.8-28.4-11.8c-10.3,0-20.5,3.9-28.4,11.8c-15.7,15.7-15.7,40.1,0.6,58.8
			c15,17.3,27.8,26.4,27.8,26.4l0,0c0,0,12.7-9.1,27.8-26.4C395.8,493.2,395.8,468.7,380.1,453.1z"/>
		<path class="st4" d="M351.7,514.2c-18.2,0-33-14.8-33-33c0-18.2,14.8-33,33-33c18.2,0,33,14.8,33,33
			C384.7,499.4,369.9,514.2,351.7,514.2z"/>
	</g>
	<g>
		<path class="st14" d="M336.9,460.4c-0.7,0.5-0.8,1.4-0.4,2.1l18.4,25.9l-5.2,3.7l1.4,1.9l5.2-3.7l8.8,12.4
			c0.5,0.7,1.4,0.8,2.1,0.3c0.7-0.5,0.8-1.4,0.4-2.1l-8.8-12.4l-1.4-1.9l-18.4-25.9C338.5,460.1,337.5,460,336.9,460.4z"/>
		<path class="st13" d="M349,491.1c-1.1,0.8-1.4,2.3-0.6,3.4s2.3,1.4,3.4,0.6L349,491.1z"/>
		<path class="st13" d="M363.4,493.4c-0.2-0.3-0.7-0.4-1-0.2c0.3-0.2,0.4-0.7,0.2-1c-0.2-0.3-0.7-0.4-1-0.2l-3,2.1
			c-0.3,0.2-0.4,0.7-0.2,1c0.2,0.3,0.7,0.4,1,0.2c-0.3,0.2-0.4,0.7-0.2,1s0.7,0.4,1,0.2c-0.3,0.2-0.4,0.7-0.2,1
			c0.2,0.3,0.7,0.4,1,0.2c-0.3,0.2-0.4,0.7-0.2,1c0.2,0.3,0.7,0.4,1,0.2c-0.3,0.2-0.4,0.7-0.2,1c0.2,0.3,0.7,0.4,1,0.2
			c-0.3,0.2-0.4,0.7-0.2,1c0.2,0.3,0.7,0.4,1,0.2c-0.3,0.2-0.4,0.7-0.2,1c0.2,0.3,0.7,0.4,1,0.2l3-2.1c0.3-0.2,0.4-0.7,0.2-1
			c-0.2-0.3-0.7-0.4-1-0.2c0.3-0.2,0.4-0.7,0.2-1c-0.2-0.3-0.7-0.4-1-0.2c0.3-0.2,0.4-0.7,0.2-1c-0.2-0.3-0.7-0.4-1-0.2
			c0.3-0.2,0.4-0.7,0.2-1c-0.2-0.3-0.7-0.4-1-0.2c0.3-0.2,0.4-0.7,0.2-1c-0.2-0.3-0.7-0.4-1-0.2
			C363.6,494.2,363.6,493.7,363.4,493.4z"/>
		<path class="st14" d="M367.5,501l-8.8-12.4l-1.4-1.9l-18.4-25.9c-0.5-0.7-1.4-0.8-2.1-0.4l30.3,42.6
			C367.8,502.6,368,501.7,367.5,501z"/>
		<path class="st13" d="M362.6,492.3c-0.2-0.3-0.7-0.4-1.1-0.1l-1.8,1.3l5.7,8l1.8-1.3c0.4-0.3,0.5-0.7,0.3-1s-0.7-0.3-1.1-0.1
			c0.4-0.3,0.5-0.7,0.3-1s-0.7-0.4-1.1-0.1c0.4-0.3,0.5-0.7,0.3-1s-0.7-0.4-1.1-0.1c0.4-0.3,0.5-0.7,0.3-1s-0.7-0.4-1.1-0.1
			c0.4-0.3,0.5-0.7,0.3-1s-0.7-0.4-1.1-0.1c0.4-0.3,0.5-0.7,0.3-1s-0.7-0.4-1.1-0.1C362.7,493.1,362.8,492.6,362.6,492.3z"/>
	</g>
</g>
<g id="D04">
	<g>
		<g>
			<path class="st13" d="M326.8,523.9c-7.9-7.8-18.1-11.8-28.4-11.8c-10.3,0-20.5,3.9-28.4,11.8c-15.7,15.7-15.7,40.1,0.6,58.8
				c15,17.3,27.8,26.4,27.8,26.4l0,0c0,0,12.7-9.1,27.8-26.4C342.5,564,342.5,539.6,326.8,523.9z"/>
			<path class="st4" d="M298.4,585c-18.2,0-33-14.8-33-33c0-18.2,14.8-33,33-33c18.2,0,33,14.8,33,33
				C331.4,570.3,316.6,585,298.4,585z"/>
		</g>
	</g>
	<g>
		<rect x="289" y="557.2" class="st14" width="35.9" height="3.8"/>
		<polygon class="st14" points="289,557.2 289,540.5 279.1,540.5 273.7,550.8 273.7,561 284.5,561 289,561 300.6,561 300.6,557.2 		
			"/>
		<polygon class="st13" points="286.2,551.8 277.3,551.8 277.3,549.2 280.6,542.6 286.2,542.6 		"/>
		<rect x="296" y="556.4" class="st14" width="9.1" height="5.2"/>
		<g>
			<circle class="st13" cx="280.7" cy="561" r="4.2"/>
			<circle class="st14" cx="280.7" cy="561" r="1.9"/>
		</g>
		<g>
			<circle class="st13" cx="317" cy="561" r="4.2"/>
			<circle class="st14" cx="317" cy="561" r="1.9"/>
		</g>
		<polygon class="st13" points="319.6,536.7 292.5,536.7 292.5,533 292.5,533 292.5,530.4 284.9,530.4 284.9,533.9 289,533.9 
			289,536.7 289,543.8 289,557.2 318.8,557.2 323.2,550.8 		"/>
		<rect x="292.3" y="539.1" class="st14" width="2.2" height="16.1"/>
		<rect x="296.9" y="539.1" class="st14" width="2.2" height="16.1"/>
		<rect x="301.6" y="539.1" class="st14" width="2.2" height="16.1"/>
		<rect x="306.3" y="539.1" class="st14" width="2.2" height="16.1"/>
		<rect x="311" y="539.1" class="st14" width="2.2" height="16.1"/>
		<rect x="315.6" y="539.1" class="st14" width="2.2" height="16.1"/>
	</g>
</g>
<g id="D01-3">
	<g>
		<path class="st13" d="M443.6,520.4c-7.9-7.8-18.1-11.8-28.4-11.8c-10.3,0-20.5,3.9-28.4,11.8c-15.7,15.7-15.7,40.1,0.6,58.8
			c15,17.3,27.8,26.4,27.8,26.4l0,0c0,0,12.7-9.1,27.8-26.4C459.3,560.5,459.3,536,443.6,520.4z"/>
		<path class="st4" d="M415.2,581.5c-18.2,0-33-14.8-33-33s14.8-33,33-33c18.2,0,33,14.8,33,33S433.4,581.5,415.2,581.5z"/>
	</g>
	<g>
		<path class="st14" d="M400.4,527.7c-0.7,0.5-0.8,1.4-0.4,2.1l18.4,25.9l-5.2,3.7l1.4,1.9l5.2-3.7l8.8,12.4
			c0.5,0.7,1.4,0.8,2.1,0.3c0.7-0.5,0.8-1.4,0.4-2.1l-8.8-12.4l-1.4-1.9l-18.4-25.9C402,527.4,401,527.3,400.4,527.7z"/>
		<path class="st13" d="M412.5,558.4c-1.1,0.8-1.4,2.3-0.6,3.4s2.3,1.4,3.4,0.6L412.5,558.4z"/>
		<path class="st13" d="M426.9,560.7c-0.2-0.3-0.7-0.4-1-0.2c0.3-0.2,0.4-0.7,0.2-1c-0.2-0.3-0.7-0.4-1-0.2l-3,2.1
			c-0.3,0.2-0.4,0.7-0.2,1c0.2,0.3,0.7,0.4,1,0.2c-0.3,0.2-0.4,0.7-0.2,1c0.2,0.3,0.7,0.4,1,0.2c-0.3,0.2-0.4,0.7-0.2,1
			c0.2,0.3,0.7,0.4,1,0.2c-0.3,0.2-0.4,0.7-0.2,1c0.2,0.3,0.7,0.4,1,0.2c-0.3,0.2-0.4,0.7-0.2,1c0.2,0.3,0.7,0.4,1,0.2
			c-0.3,0.2-0.4,0.7-0.2,1c0.2,0.3,0.7,0.4,1,0.2c-0.3,0.2-0.4,0.7-0.2,1c0.2,0.3,0.7,0.4,1,0.2l3-2.1c0.3-0.2,0.4-0.7,0.2-1
			c-0.2-0.3-0.7-0.4-1-0.2c0.3-0.2,0.4-0.7,0.2-1c-0.2-0.3-0.7-0.4-1-0.2c0.3-0.2,0.4-0.7,0.2-1c-0.2-0.3-0.7-0.4-1-0.2
			c0.3-0.2,0.4-0.7,0.2-1c-0.2-0.3-0.7-0.4-1-0.2c0.3-0.2,0.4-0.7,0.2-1c-0.2-0.3-0.7-0.4-1-0.2C427.1,561.5,427.1,561,426.9,560.7z
			"/>
		<path class="st14" d="M431,568.3l-8.8-12.4l-1.4-1.9l-18.4-25.9c-0.5-0.7-1.4-0.8-2.1-0.3l30.3,42.7
			C431.3,569.9,431.5,569,431,568.3z"/>
		<path class="st13" d="M426.1,559.6c-0.2-0.3-0.7-0.3-1.1-0.1l-1.8,1.3l5.7,8l1.8-1.3c0.4-0.3,0.5-0.7,0.3-1s-0.7-0.3-1.1-0.1
			c0.4-0.3,0.5-0.7,0.3-1s-0.7-0.3-1.1-0.1c0.4-0.3,0.5-0.7,0.3-1s-0.7-0.3-1.1-0.1c0.4-0.3,0.5-0.7,0.3-1s-0.7-0.3-1.1-0.1
			c0.4-0.3,0.5-0.7,0.3-1s-0.7-0.3-1.1-0.1c0.4-0.3,0.5-0.7,0.3-1s-0.7-0.3-1.1-0.1C426.2,560.4,426.3,559.9,426.1,559.6z"/>
	</g>
</g>
<g id="C01">
	<g>
		<path class="st13" d="M509.6,425.6c-7.8-7.9-18.1-11.8-28.4-11.8c-10.3,0-20.5,3.9-28.4,11.8c-15.7,15.7-15.7,40.1,0.6,58.8
			c15,17.3,27.8,26.4,27.8,26.4l0,0c0,0,12.7-9.1,27.8-26.4C525.2,465.7,525.3,441.3,509.6,425.6z"/>
		<path class="st4" d="M481.2,486.7c-18.2,0-33-14.8-33-33c0-18.2,14.8-33,33-33c18.2,0,33,14.8,33,33
			C514.2,471.9,499.4,486.7,481.2,486.7z"/>
	</g>
	<g>
		<path class="st14" d="M466.3,432.9c-0.7,0.5-0.8,1.4-0.4,2.1l18.4,25.9l-5.2,3.7l1.4,1.9l5.2-3.7l8.8,12.4
			c0.5,0.7,1.4,0.8,2.1,0.4s0.8-1.4,0.3-2.1l-8.8-12.4l-1.4-1.9l-18.4-25.9C467.9,432.6,467,432.5,466.3,432.9z"/>
		<path class="st13" d="M478.4,463.6c-1.1,0.8-1.4,2.3-0.6,3.4c0.8,1.1,2.3,1.4,3.4,0.6L478.4,463.6z"/>
		<path class="st13" d="M492.9,465.9c-0.2-0.3-0.7-0.4-1-0.2c0.3-0.2,0.4-0.7,0.2-1c-0.2-0.3-0.7-0.4-1-0.2l-3,2.1
			c-0.3,0.2-0.4,0.7-0.2,1c0.2,0.3,0.7,0.4,1,0.2c-0.3,0.2-0.4,0.7-0.2,1c0.2,0.3,0.7,0.4,1,0.2c-0.3,0.2-0.4,0.7-0.2,1
			c0.2,0.3,0.7,0.4,1,0.2c-0.3,0.2-0.4,0.7-0.2,1c0.2,0.3,0.7,0.4,1,0.2c-0.3,0.2-0.4,0.7-0.2,1c0.2,0.3,0.7,0.4,1,0.2
			c-0.3,0.2-0.4,0.7-0.2,1c0.2,0.3,0.7,0.4,1,0.2c-0.3,0.2-0.4,0.7-0.2,1c0.2,0.3,0.7,0.4,1,0.2l3-2.1c0.3-0.2,0.4-0.7,0.2-1
			c-0.2-0.3-0.7-0.4-1-0.2c0.3-0.2,0.4-0.7,0.2-1c-0.2-0.3-0.7-0.4-1-0.2c0.3-0.2,0.4-0.7,0.2-1c-0.2-0.3-0.7-0.4-1-0.2
			c0.3-0.2,0.4-0.7,0.2-1c-0.2-0.3-0.7-0.4-1-0.2c0.3-0.2,0.4-0.7,0.2-1c-0.2-0.3-0.7-0.4-1-0.2C493,466.7,493.1,466.2,492.9,465.9z
			"/>
		<path class="st14" d="M497,473.5l-8.8-12.4l-1.4-1.9l-18.4-25.9c-0.5-0.7-1.4-0.8-2.1-0.4l30.3,42.6
			C497.3,475.1,497.5,474.2,497,473.5z"/>
		<path class="st13" d="M492.1,464.8c-0.2-0.3-0.7-0.4-1.1-0.1l-1.8,1.3l5.7,8l1.8-1.3c0.4-0.3,0.5-0.7,0.3-1s-0.7-0.4-1.1-0.1
			c0.4-0.3,0.5-0.7,0.3-1.1s-0.7-0.4-1.1-0.1c0.4-0.3,0.5-0.7,0.3-1s-0.7-0.4-1.1-0.1c0.4-0.3,0.5-0.7,0.3-1.1s-0.7-0.4-1.1-0.1
			c0.4-0.3,0.5-0.7,0.3-1s-0.7-0.4-1.1-0.1c0.4-0.3,0.5-0.7,0.3-1.1s-0.7-0.4-1.1-0.1C492.2,465.6,492.3,465.1,492.1,464.8z"/>
	</g>
</g>
<g id="B06">
	<g>
		<path class="st13" d="M483.3,257.4c-7.9-7.9-18.1-11.8-28.4-11.8c-10.3,0-20.5,3.9-28.4,11.8c-15.7,15.7-15.7,40.1,0.6,58.8
			c15,17.3,27.8,26.4,27.8,26.4l0,0c0,0,12.7-9.1,27.8-26.4C498.9,297.5,498.9,273.1,483.3,257.4z"/>
		<path class="st4" d="M454.9,318.5c-18.2,0-33-14.8-33-33c0-18.2,14.8-33,33-33c18.2,0,33,14.8,33,33
			C487.8,303.8,473.1,318.5,454.9,318.5z"/>
	</g>
	<g>
		<path class="st14" d="M440,264.7c-0.7,0.5-0.8,1.4-0.4,2.1l18.4,25.9l-5.2,3.7l1.4,1.9l5.2-3.7l8.8,12.4c0.5,0.7,1.4,0.8,2.1,0.4
			s0.8-1.4,0.4-2.1l-8.8-12.4l-1.4-1.9l-18.4-25.9C441.6,264.4,440.7,264.3,440,264.7z"/>
		<path class="st13" d="M452.1,295.4c-1.1,0.8-1.4,2.3-0.6,3.4c0.8,1.1,2.3,1.4,3.4,0.6L452.1,295.4z"/>
		<path class="st13" d="M466.6,297.7c-0.2-0.3-0.7-0.4-1-0.2c0.3-0.2,0.4-0.7,0.2-1c-0.2-0.3-0.7-0.4-1-0.2l-3,2.1
			c-0.3,0.2-0.4,0.7-0.2,1c0.2,0.3,0.7,0.4,1,0.2c-0.3,0.2-0.4,0.7-0.2,1c0.2,0.3,0.7,0.4,1,0.2c-0.3,0.2-0.4,0.7-0.2,1
			c0.2,0.3,0.7,0.4,1,0.2c-0.3,0.2-0.4,0.7-0.2,1c0.2,0.3,0.7,0.4,1,0.2c-0.3,0.2-0.4,0.7-0.2,1s0.7,0.4,1,0.2
			c-0.3,0.2-0.4,0.7-0.2,1c0.2,0.3,0.7,0.4,1,0.2c-0.3,0.2-0.4,0.7-0.2,1c0.2,0.3,0.7,0.4,1,0.2l3-2.1c0.3-0.2,0.4-0.7,0.2-1
			c-0.2-0.3-0.7-0.4-1-0.2c0.3-0.2,0.4-0.7,0.2-1c-0.2-0.3-0.7-0.4-1-0.2c0.3-0.2,0.4-0.7,0.2-1c-0.2-0.3-0.7-0.4-1-0.2
			c0.3-0.2,0.4-0.7,0.2-1c-0.2-0.3-0.7-0.4-1-0.2c0.3-0.2,0.4-0.7,0.2-1c-0.2-0.3-0.7-0.4-1-0.2
			C466.7,298.5,466.8,298.1,466.6,297.7z"/>
		<path class="st14" d="M470.7,305.3l-8.8-12.4l-1.4-1.9l-18.4-25.9c-0.5-0.7-1.4-0.8-2.1-0.4l30.3,42.6
			C471,306.9,471.1,306,470.7,305.3z"/>
		<path class="st13" d="M465.8,296.6c-0.2-0.3-0.7-0.4-1.1-0.1l-1.8,1.3l5.7,8l1.8-1.3c0.4-0.3,0.5-0.7,0.3-1s-0.7-0.4-1.1-0.1
			c0.4-0.3,0.5-0.7,0.3-1s-0.7-0.4-1.1-0.1c0.4-0.3,0.5-0.7,0.3-1.1s-0.7-0.4-1.1-0.1c0.4-0.3,0.5-0.7,0.3-1s-0.7-0.4-1.1-0.1
			c0.4-0.3,0.5-0.7,0.3-1.1s-0.7-0.4-1.1-0.1c0.4-0.3,0.5-0.7,0.3-1s-0.7-0.4-1.1-0.1C465.9,297.4,466,296.9,465.8,296.6z"/>
	</g>
</g>
<g id="B05">
	<g>
		<g>
			<path class="st13" d="M703.7,198.3c-7.8-7.9-18.1-11.8-28.4-11.8c-10.3,0-20.5,3.9-28.4,11.8c-15.7,15.7-15.7,40.1,0.6,58.8
				c15,17.3,27.8,26.4,27.8,26.4l0,0c0,0,12.7-9.1,27.8-26.4C719.4,238.3,719.4,213.9,703.7,198.3z"/>
			<path class="st4" d="M675.3,259.4c-18.2,0-33-14.8-33-33c0-18.2,14.8-33,33-33c18.2,0,33,14.8,33,33
				C708.3,244.6,693.5,259.4,675.3,259.4z"/>
		</g>
	</g>
	<g>
		<g>
			<path class="st15" d="M688.4,208.6c0-1-0.8-1.8-1.8-1.8h-23c-1,0-1.8,0.8-1.8,1.8v12.6h26.6L688.4,208.6L688.4,208.6z"/>
			<path class="st13" d="M688.4,221.2h-26.6v20.5c0,1.1-0.1,1.5,0.4,1.8l12,6.7c0.6,0.3,1.2,0.3,1.7,0l12-6.7
				c0.5-0.3,0.4-1.2,0.4-1.8L688.4,221.2L688.4,221.2z"/>
		</g>
		<rect x="661.8" y="223.6" class="st14" width="26.6" height="6.7"/>
		<g>
			<path class="st13" d="M667.9,225.9c-0.1,0.1-0.3,0.1-0.4,0.2l-0.1,0c0.3-0.2,0.5-0.6,0.6-0.9l0,0V225h-0.6l0-0.1h0.6v-0.4l0.8,0
				c0,0.1-0.1,0.1-0.2,0.1v0.2h0.5v-0.4l0.8,0c0,0.1-0.1,0.1-0.2,0.1v0.2h0.2l0.3-0.3c0,0,0.3,0.2,0.5,0.4c0,0.1-0.1,0.1-0.2,0.1
				h-0.8v0.1c0,0-0.1,0.1-0.4,0.1h-0.2V225h-0.5v0.1c0,0,0,0-0.1,0l0.3,0c0,0.1-0.1,0.1-0.2,0.1c0,0-0.1,0.1-0.1,0.1h1.1l0.3-0.2
				l0.6,0.4c0,0-0.1,0.1-0.2,0.1c0,0.5-0.1,0.8-0.3,0.9c-0.1,0.1-0.3,0.1-0.5,0.1c0-0.1,0-0.2-0.1-0.3c0,0-0.1-0.1-0.2-0.1v0.2
				c0,0-0.3,0.1-0.4,0.1h-0.1v-0.2h-0.4v0.1c0,0-0.2,0.1-0.4,0.1h-0.1L667.9,225.9L667.9,225.9z M672.6,226.7c0,0,0.4,0.3,0.7,0.5
				c0,0.1-0.1,0.1-0.2,0.1h-1.4c0.1,0.1,0.4,0.2,0.6,0.3c0,0.1-0.1,0.1-0.2,0.1h-0.4c0.1,0.1,0.4,0.2,0.6,0.3c0,0.1-0.1,0.1-0.2,0.1
				h-3.5l0-0.1h2.8l0.3-0.3h-3l0-0.1h2.7l0.3-0.3h-4l-0.1-0.1h4.6L672.6,226.7z M668.4,225.6c-0.1,0-0.1,0.1-0.2,0.1l0.2,0.1h0.4
				l0.2-0.2l0.5,0.3c0,0-0.1,0-0.1,0.1v0.2c0.1,0,0.2,0,0.3,0c0,0,0,0,0.1,0c0-0.1,0.1-0.2,0.1-0.6L668.4,225.6L668.4,225.6z
				 M668.8,226.2v-0.3h-0.4v0.3H668.8z M671.4,228.4l0.3-0.3l0.7,0.4c0,0-0.1,0.1-0.2,0.1v0.6c0,0-0.4,0.1-0.6,0.1h-0.1v-0.2h-2.3
				v0.1c0,0-0.3,0.2-0.6,0.2h-0.1v-1.2l0.8,0.2L671.4,228.4L671.4,228.4z M668.6,226.7h2.6l0.3-0.3c0,0,0.4,0.2,0.7,0.4
				c0,0.1-0.1,0.1-0.2,0.1h-3.4L668.6,226.7z M671.5,229v-0.5h-2.3v0.5H671.5z M672.8,225.3c-0.1,0.3-0.3,0.5-0.6,0.7
				c0.3,0.1,0.7,0.2,1.1,0.2l0,0.1c-0.3,0.1-0.4,0.3-0.4,0.5c-0.5-0.1-0.9-0.3-1.2-0.6c-0.4,0.2-0.9,0.3-1.5,0.4l0-0.1
				c0.5-0.1,0.9-0.3,1.2-0.6c-0.1-0.1-0.2-0.3-0.3-0.5c-0.2,0.2-0.4,0.3-0.7,0.4l-0.1,0c0.3-0.3,0.5-0.8,0.7-1.4l0.9,0.2
				c0,0.1-0.1,0.1-0.2,0.1c-0.1,0.1-0.1,0.2-0.2,0.3h0.7l0.3-0.4c0,0,0.4,0.3,0.6,0.5c0,0.1-0.1,0.1-0.2,0.1L672.8,225.3
				L672.8,225.3z M671.4,225.3c0,0-0.1,0.1-0.1,0.1c0.1,0.1,0.3,0.2,0.5,0.3c0.1-0.1,0.2-0.3,0.3-0.5L671.4,225.3L671.4,225.3z"/>
			<path class="st13" d="M679.6,225.9c0,0-0.1,0.1-0.3,0.1c-0.5,0.8-1.5,1.5-2.9,1.8l0-0.1c0.7-0.3,1.3-0.7,1.8-1.1
				c-0.1,0-0.2,0-0.2,0c0-0.1-0.1-0.3-0.2-0.4c-0.1,0.1-0.3,0.2-0.4,0.3c1,0.1,0.5,0.7,0.1,0.5c0-0.1-0.1-0.3-0.2-0.4
				c-0.2,0.1-0.4,0.2-0.5,0.2l-0.1-0.1c0.6-0.3,1.1-0.9,1.3-1.4l0.8,0.2c0,0-0.1,0.1-0.2,0.1c-0.1,0.1-0.1,0.2-0.2,0.3h0.4l0.4-0.3
				L679.6,225.9z M681.6,225.9c0,0-0.1,0-0.2,0.1c-0.2,0.2-0.5,0.4-0.7,0.5c0.5,0.3,1,0.4,1.6,0.5l0,0.1c-0.3,0-0.5,0.2-0.6,0.5
				c-1.1-0.4-1.9-1-2.2-2.1l0.1,0c0.2,0.4,0.5,0.7,0.9,1c0.1-0.2,0.2-0.3,0.2-0.5H680l-0.1-0.1h0.7l0.3-0.3l0.2,0.1
				c0-0.1,0-0.2,0.1-0.4h-3.9c0,0.3-0.1,0.5-0.3,0.6c-0.2,0.1-0.5,0.1-0.5-0.1c-0.1-0.2,0.1-0.3,0.2-0.4c0.2-0.1,0.4-0.4,0.4-0.6
				h0.1c0.1,0.1,0.1,0.2,0.1,0.3h1.6v-0.6l1,0.1c0,0.1-0.1,0.1-0.2,0.1v0.4h1.5l0.3-0.3l0.6,0.5c0,0-0.1,0.1-0.2,0.1
				c-0.2,0.1-0.4,0.3-0.6,0.4L681.6,225.9z M678.6,228.3c0,0-0.1,0.1-0.2,0.1c-0.4,0.3-1.1,0.7-1.8,0.9l-0.1-0.1
				c0.5-0.3,1.1-0.8,1.3-1.2L678.6,228.3z M679.7,227.8v0.9c0,0.4-0.1,0.6-0.9,0.7c0-0.2,0-0.3-0.1-0.4c-0.1-0.1-0.2-0.1-0.5-0.2
				v-0.1c0,0,0.5,0,0.6,0c0.1,0,0.1,0,0.1-0.1v-0.8h-1.7l0-0.1h3.3l0.4-0.4c0,0,0.4,0.2,0.7,0.4c0,0.1-0.1,0.1-0.2,0.1L679.7,227.8
				L679.7,227.8z M678.1,225.9c-0.1,0.1-0.1,0.1-0.2,0.2c0.4,0,0.5,0.1,0.6,0.2c0.1-0.1,0.2-0.3,0.3-0.4L678.1,225.9L678.1,225.9z
				 M678.3,227h1.3l0.3-0.3c0,0,0.4,0.2,0.6,0.4c0,0.1-0.1,0.1-0.2,0.1h-2L678.3,227z M680.1,228.1c2.2,0.1,1.9,1.4,1.1,1.1
				C680.9,228.8,680.4,228.4,680.1,228.1L680.1,228.1z"/>
		</g>
	</g>
</g>
<g id="B03-4">
	<g>
		<g>
			<path class="st13" d="M730.3,287.5c-7.8-7.9-18.1-11.8-28.4-11.8c-10.3,0-20.5,3.9-28.4,11.8c-15.7,15.7-15.7,40.1,0.6,58.8
				c15,17.3,27.8,26.4,27.8,26.4l0,0c0,0,12.7-9.1,27.8-26.4C745.9,327.6,746,303.1,730.3,287.5z"/>
			<path class="st4" d="M701.9,348.6c-18.2,0-33-14.8-33-33c0-18.2,14.8-33,33-33c18.2,0,33,14.8,33,33
				C734.9,333.8,720.1,348.6,701.9,348.6z"/>
		</g>
	</g>
	<path class="st13" d="M720.4,324l-0.5-0.7c-0.2-0.3-0.6-0.5-1-0.4c0,0,0-2.6-2.4-2.6s-7.2,0.7-9.8-1.1s-5.8-6.5-5.8-9.8
		c0-3.2,0-5.8,0-5.8s-0.9-1.8-4.2-1.8h-10.9c-0.8,0-1.5,0.7-1.5,1.5c0,0.4,0,0.7,0,1.1l-0.3,0c-0.6,0-1,0.5-1,1.1l0.1,1.5
		c0,0.6,0.5,1,1.1,1l0.2,0c0,0.3,0,0.7,0,1c-0.5,0-0.9,0.4-1,1l-0.1,1.5c0,0.6,0.4,1,1,1.1l0.4,0c0,0.3,0,0.5,0,0.9l-0.3,0
		c-0.6,0-1,0.4-1.1,1l-0.1,1.5c0,0.6,0.4,1,1,1.1l0.3,0c0,0.1,0,0.3,0,0.5l-0.4,0c-0.6,0-1,0.4-1.1,0.9l-0.1,1.5
		c0,0.6,0.4,1,0.9,1.1l0.3,0c0,0.3,0,0.5-0.1,0.8l-0.1,0c-0.6,0-1,0.4-1.1,0.9l-0.1,1.5c0,0.5,0.3,0.9,0.8,1
		c-0.2,0.1-0.6,0.6-0.7,1.6v0c0,0,0,0-0.1,0.1c-0.2,0.1-0.3,0.3-0.3,0.5v1.5c0,0-0.1,1.5,1.6,1.5c0,0,0,0,0,0c0,0,0,0,0.1,0
		c1.1,0,10.6,0,10.6,0s-0.1-2,1.5-2s2.4,2,3.7,2s8.8,1.3,14.7-1.3C721,326.2,720.4,324,720.4,324z"/>
</g>
<g id="B02">
	<g>
		<g>
			<path class="st13" d="M637.5,246.7c-7.8-7.9-18.1-11.8-28.4-11.8c-10.3,0-20.5,3.9-28.4,11.8c-15.7,15.7-15.7,40.1,0.6,58.8
				c15,17.3,27.8,26.4,27.8,26.4l0,0c0,0,12.7-9.1,27.8-26.4C653.2,286.8,653.2,262.4,637.5,246.7z"/>
			<path class="st4" d="M609.1,307.9c-18.2,0-33-14.8-33-33c0-18.2,14.8-33,33-33c18.2,0,33,14.8,33,33
				C642.1,293.1,627.3,307.9,609.1,307.9z"/>
		</g>
	</g>
	<g>
		<g>
			<path class="st15" d="M622.2,257.1c0-1-0.8-1.8-1.8-1.8h-23c-1,0-1.8,0.8-1.8,1.8v12.6h26.6L622.2,257.1L622.2,257.1z"/>
			<path class="st13" d="M622.2,269.7h-26.6v20.5c0,1.1-0.1,1.5,0.4,1.8l12,6.7c0.6,0.3,1.2,0.3,1.7,0l12-6.7
				c0.5-0.3,0.4-1.2,0.4-1.8L622.2,269.7L622.2,269.7z"/>
		</g>
		<rect x="595.6" y="272.1" class="st14" width="26.6" height="6.7"/>
		<g>
			<path class="st13" d="M601.7,274.4c-0.1,0.1-0.3,0.1-0.4,0.2l-0.1,0c0.3-0.2,0.5-0.6,0.6-0.9l0,0v-0.1h-0.6l0-0.1h0.6V273l0.8,0
				c0,0.1-0.1,0.1-0.2,0.1v0.2h0.5V273l0.8,0c0,0.1-0.1,0.1-0.2,0.1v0.2h0.2l0.3-0.3c0,0,0.3,0.2,0.5,0.4c0,0.1-0.1,0.1-0.2,0.1
				h-0.8v0.1c0,0-0.1,0.1-0.4,0.1H603v-0.2h-0.5v0.1c0,0,0,0-0.1,0l0.3,0c0,0.1-0.1,0.1-0.2,0.1c0,0-0.1,0.1-0.1,0.1h1.1l0.3-0.2
				l0.6,0.4c0,0-0.1,0.1-0.2,0.1c0,0.5-0.1,0.8-0.3,0.9c-0.1,0.1-0.3,0.1-0.5,0.1c0-0.1,0-0.2-0.1-0.3c0,0-0.1-0.1-0.2-0.1v0.2
				c0,0-0.3,0.1-0.4,0.1h-0.1v-0.2h-0.4v0.1c0,0-0.2,0.1-0.4,0.1h-0.1L601.7,274.4L601.7,274.4z M606.3,275.2c0,0,0.4,0.3,0.7,0.5
				c0,0.1-0.1,0.1-0.2,0.1h-1.4c0.1,0.1,0.4,0.2,0.6,0.3c0,0.1-0.1,0.1-0.2,0.1h-0.4c0.1,0.1,0.4,0.2,0.6,0.3c0,0.1-0.1,0.1-0.2,0.1
				h-3.5l0-0.1h2.8l0.3-0.3h-3l0-0.1h2.7l0.3-0.3h-4l-0.1-0.1h4.6L606.3,275.2z M602.2,274c-0.1,0-0.1,0.1-0.2,0.1l0.2,0.1h0.4
				l0.2-0.2l0.5,0.3c0,0-0.1,0-0.1,0.1v0.2c0.1,0,0.2,0,0.3,0c0,0,0,0,0.1,0c0-0.1,0.1-0.2,0.1-0.6L602.2,274L602.2,274z
				 M602.6,274.7v-0.3h-0.4v0.3H602.6z M605.2,276.9l0.3-0.3l0.7,0.4c0,0-0.1,0.1-0.2,0.1v0.6c0,0-0.4,0.1-0.6,0.1h-0.1v-0.2H603
				v0.1c0,0-0.3,0.2-0.6,0.2h-0.1v-1.2l0.8,0.2L605.2,276.9L605.2,276.9z M602.4,275.2h2.6l0.3-0.3c0,0,0.4,0.2,0.7,0.4
				c0,0.1-0.1,0.1-0.2,0.1h-3.4L602.4,275.2z M605.3,277.5V277H603v0.5H605.3z M606.6,273.7c-0.1,0.3-0.3,0.5-0.6,0.7
				c0.3,0.1,0.7,0.2,1.1,0.2l0,0.1c-0.3,0.1-0.4,0.3-0.4,0.5c-0.5-0.1-0.9-0.3-1.2-0.6c-0.4,0.2-0.9,0.3-1.5,0.4l0-0.1
				c0.5-0.1,0.9-0.3,1.2-0.6c-0.1-0.1-0.2-0.3-0.3-0.5c-0.2,0.2-0.4,0.3-0.7,0.4l-0.1,0c0.3-0.3,0.5-0.8,0.7-1.4l0.9,0.2
				c0,0.1-0.1,0.1-0.2,0.1c-0.1,0.1-0.1,0.2-0.2,0.3h0.7l0.3-0.4c0,0,0.4,0.3,0.6,0.5c0,0.1-0.1,0.1-0.2,0.1L606.6,273.7
				L606.6,273.7z M605.2,273.7c0,0-0.1,0.1-0.1,0.1c0.1,0.1,0.3,0.2,0.5,0.3c0.1-0.1,0.2-0.3,0.3-0.5L605.2,273.7L605.2,273.7z"/>
			<path class="st13" d="M613.4,274.4c0,0-0.1,0.1-0.3,0.1c-0.5,0.8-1.5,1.5-2.9,1.8l0-0.1c0.7-0.3,1.3-0.7,1.8-1.1
				c-0.1,0-0.2,0-0.2,0c0-0.1-0.1-0.3-0.2-0.4c-0.1,0.1-0.3,0.2-0.4,0.3c1,0.1,0.5,0.7,0.1,0.5c0-0.1-0.1-0.3-0.2-0.4
				c-0.2,0.1-0.4,0.2-0.5,0.2l-0.1-0.1c0.6-0.3,1.1-0.9,1.3-1.4l0.8,0.2c0,0-0.1,0.1-0.2,0.1c-0.1,0.1-0.1,0.2-0.2,0.3h0.4l0.4-0.3
				L613.4,274.4z M615.4,274.4c0,0-0.1,0-0.2,0.1c-0.2,0.2-0.5,0.4-0.7,0.5c0.5,0.3,1,0.4,1.6,0.5l0,0.1c-0.3,0-0.5,0.2-0.6,0.5
				c-1.1-0.4-1.9-1-2.2-2.1l0.1,0c0.2,0.4,0.5,0.7,0.9,1c0.1-0.2,0.2-0.3,0.2-0.5h-0.7l-0.1-0.1h0.7l0.3-0.3l0.2,0.1
				c0-0.1,0-0.2,0.1-0.4h-3.9c0,0.3-0.1,0.5-0.3,0.6c-0.2,0.1-0.5,0.1-0.5-0.1c-0.1-0.2,0.1-0.3,0.2-0.4c0.2-0.1,0.4-0.4,0.4-0.6
				h0.1c0.1,0.1,0.1,0.2,0.1,0.3h1.6V273l1,0.1c0,0.1-0.1,0.1-0.2,0.1v0.4h1.5l0.3-0.3l0.6,0.5c0,0-0.1,0.1-0.2,0.1
				c-0.2,0.1-0.4,0.3-0.6,0.4L615.4,274.4z M612.4,276.8c0,0-0.1,0.1-0.2,0.1c-0.4,0.3-1.1,0.7-1.8,0.9l-0.1-0.1
				c0.5-0.3,1.1-0.8,1.3-1.2L612.4,276.8z M613.5,276.3v0.9c0,0.4-0.1,0.6-0.9,0.7c0-0.2,0-0.3-0.1-0.4c-0.1-0.1-0.2-0.1-0.5-0.2
				v-0.1c0,0,0.5,0,0.6,0c0.1,0,0.1,0,0.1-0.1v-0.8H611l0-0.1h3.3l0.4-0.4c0,0,0.4,0.2,0.7,0.4c0,0.1-0.1,0.1-0.2,0.1L613.5,276.3
				L613.5,276.3z M611.8,274.4c-0.1,0.1-0.1,0.1-0.2,0.2c0.4,0,0.5,0.1,0.6,0.2c0.1-0.1,0.2-0.3,0.3-0.4L611.8,274.4L611.8,274.4z
				 M612.1,275.5h1.3l0.3-0.3c0,0,0.4,0.2,0.6,0.4c0,0.1-0.1,0.1-0.2,0.1h-2L612.1,275.5z M613.8,276.6c2.2,0.1,1.9,1.4,1.1,1.1
				C614.7,277.3,614.2,276.8,613.8,276.6L613.8,276.6z"/>
		</g>
	</g>
</g>
<g id="B01">
	<g>
		<path class="st13" d="M563.2,198.3c-7.8-7.9-18.1-11.8-28.4-11.8c-10.3,0-20.5,3.9-28.4,11.8c-15.7,15.7-15.7,40.1,0.6,58.8
			c15,17.3,27.8,26.4,27.8,26.4l0,0c0,0,12.7-9.1,27.8-26.4C578.9,238.4,578.9,213.9,563.2,198.3z"/>
		<path class="st4" d="M534.8,259.4c-18.2,0-33-14.8-33-33c0-18.2,14.8-33,33-33c18.2,0,33,14.8,33,33
			C567.8,244.6,553,259.4,534.8,259.4z"/>
	</g>
	<g>
		<path class="st14" d="M520,205.6c-0.7,0.5-0.8,1.4-0.4,2.1l18.4,25.9l-5.2,3.7l1.4,1.9l5.2-3.7l8.8,12.4c0.5,0.7,1.4,0.8,2.1,0.4
			s0.8-1.4,0.3-2.1l-8.8-12.4l-1.4-1.9L522,206C521.5,205.3,520.6,205.1,520,205.6z"/>
		<path class="st13" d="M532.1,236.3c-1.1,0.8-1.4,2.3-0.6,3.4s2.3,1.4,3.4,0.6L532.1,236.3z"/>
		<path class="st13" d="M546.5,238.6c-0.2-0.3-0.7-0.4-1-0.2c0.3-0.2,0.4-0.7,0.2-1c-0.2-0.3-0.7-0.4-1-0.2l-3,2.1
			c-0.3,0.2-0.4,0.7-0.2,1c0.2,0.3,0.7,0.4,1,0.2c-0.3,0.2-0.4,0.7-0.2,1c0.2,0.3,0.7,0.4,1,0.2c-0.3,0.2-0.4,0.7-0.2,1
			c0.2,0.3,0.7,0.4,1,0.2c-0.3,0.2-0.4,0.7-0.2,1s0.7,0.4,1,0.2c-0.3,0.2-0.4,0.7-0.2,1c0.2,0.3,0.7,0.4,1,0.2
			c-0.3,0.2-0.4,0.7-0.2,1c0.2,0.3,0.7,0.4,1,0.2c-0.3,0.2-0.4,0.7-0.2,1s0.7,0.4,1,0.2l3-2.1c0.3-0.2,0.4-0.7,0.2-1s-0.7-0.4-1-0.2
			c0.3-0.2,0.4-0.7,0.2-1s-0.7-0.4-1-0.2c0.3-0.2,0.4-0.7,0.2-1c-0.2-0.3-0.7-0.4-1-0.2c0.3-0.2,0.4-0.7,0.2-1
			c-0.2-0.3-0.7-0.4-1-0.2c0.3-0.2,0.4-0.7,0.2-1s-0.7-0.4-1-0.2C546.6,239.4,546.7,238.9,546.5,238.6z"/>
		<path class="st14" d="M550.6,246.2l-8.8-12.4l-1.4-1.9L522,206c-0.5-0.7-1.4-0.8-2.1-0.4l30.3,42.6
			C550.9,247.8,551.1,246.9,550.6,246.2z"/>
		<path class="st13" d="M545.7,237.5c-0.2-0.3-0.7-0.4-1.1-0.1l-1.8,1.3l5.7,8l1.8-1.3c0.4-0.3,0.5-0.7,0.3-1.1s-0.7-0.4-1.1-0.1
			c0.4-0.3,0.5-0.7,0.3-1.1s-0.7-0.4-1.1-0.1c0.4-0.3,0.5-0.7,0.3-1.1s-0.7-0.4-1.1-0.1c0.4-0.3,0.5-0.7,0.3-1.1s-0.7-0.4-1.1-0.1
			c0.4-0.3,0.5-0.7,0.3-1.1s-0.7-0.4-1.1-0.1c0.4-0.3,0.5-0.7,0.3-1.1s-0.7-0.4-1.1-0.1C545.8,238.3,545.9,237.8,545.7,237.5z"/>
	</g>
</g>
<g id="A02">
	<g>
		<path class="st13" d="M239.7,74.8C231.8,67,221.6,63,211.3,63c-10.3,0-20.6,3.9-28.4,11.8c-15.7,15.7-15.7,40.1,0.6,58.8
			c15.1,17.3,27.8,26.4,27.8,26.4l0,0c0,0,12.7-9.1,27.8-26.4C255.3,114.9,255.4,90.5,239.7,74.8z"/>
		<path class="st4" d="M211.3,135.9c-18.2,0-33-14.8-33-33c0-18.2,14.8-33,33-33c18.2,0,33,14.8,33,33S229.5,135.9,211.3,135.9z"/>
	</g>
	<g>
		<path class="st14" d="M196.4,82.2c-0.7,0.5-0.8,1.4-0.4,2.1l18.4,25.9l-5.2,3.7l1.4,1.9l5.2-3.7l8.8,12.4c0.5,0.7,1.4,0.8,2.1,0.3
			s0.8-1.4,0.4-2.1l-8.8-12.4l-1.4-1.9l-18.4-25.9C198,81.8,197.1,81.7,196.4,82.2z"/>
		<path class="st13" d="M208.5,112.8c-1.1,0.8-1.4,2.3-0.6,3.4s2.3,1.4,3.4,0.6L208.5,112.8z"/>
		<path class="st13" d="M223,115.2c-0.2-0.3-0.7-0.4-1-0.2c0.3-0.2,0.4-0.7,0.2-1c-0.2-0.3-0.7-0.4-1-0.2l-3,2.1
			c-0.3,0.2-0.4,0.7-0.2,1c0.2,0.3,0.7,0.4,1,0.2c-0.3,0.2-0.4,0.7-0.2,1s0.7,0.4,1,0.2c-0.3,0.2-0.4,0.7-0.2,1
			c0.2,0.3,0.7,0.4,1,0.2c-0.3,0.2-0.4,0.7-0.2,1c0.2,0.3,0.7,0.4,1,0.2c-0.3,0.2-0.4,0.7-0.2,1s0.7,0.4,1,0.2
			c-0.3,0.2-0.4,0.7-0.2,1c0.2,0.3,0.7,0.4,1,0.2c-0.3,0.2-0.4,0.7-0.2,1c0.2,0.3,0.7,0.4,1,0.2l3-2.1c0.3-0.2,0.4-0.7,0.2-1
			s-0.7-0.4-1-0.2c0.3-0.2,0.4-0.7,0.2-1c-0.2-0.3-0.7-0.4-1-0.2c0.3-0.2,0.4-0.7,0.2-1s-0.7-0.4-1-0.2c0.3-0.2,0.4-0.7,0.2-1
			c-0.2-0.3-0.7-0.4-1-0.2c0.3-0.2,0.4-0.7,0.2-1c-0.2-0.3-0.7-0.4-1-0.2C223.1,115.9,223.2,115.5,223,115.2z"/>
		<path class="st14" d="M227.1,122.8l-8.8-12.4l-1.4-1.9l-18.4-25.9c-0.5-0.7-1.4-0.8-2.1-0.3l30.3,42.7
			C227.4,124.3,227.5,123.4,227.1,122.8z"/>
		<path class="st13" d="M222.2,114c-0.2-0.3-0.7-0.3-1.1-0.1l-1.8,1.3l5.7,8l1.8-1.3c0.4-0.3,0.5-0.7,0.3-1.1s-0.7-0.3-1.1-0.1
			c0.4-0.3,0.5-0.7,0.3-1.1c-0.2-0.3-0.7-0.3-1.1-0.1c0.4-0.3,0.5-0.7,0.3-1.1s-0.7-0.3-1.1-0.1c0.4-0.3,0.5-0.7,0.3-1.1
			c-0.2-0.3-0.7-0.3-1.1-0.1c0.4-0.3,0.5-0.7,0.3-1.1c-0.2-0.3-0.7-0.3-1.1-0.1c0.4-0.3,0.5-0.7,0.3-1.1c-0.2-0.3-0.7-0.3-1.1-0.1
			C222.3,114.8,222.4,114.3,222.2,114z"/>
	</g>
</g>
<g id="A01">
	<g>
		<path class="st13" d="M778.6,66.6c-7.8-7.8-18.1-11.8-28.4-11.8c-10.3,0-20.5,3.9-28.4,11.8c-15.7,15.7-15.7,40.1,0.6,58.8
			c15,17.3,27.8,26.4,27.8,26.4l0,0c0,0,12.7-9.1,27.8-26.4C794.2,106.7,794.3,82.3,778.6,66.6z"/>
		<path class="st4" d="M750.2,127.8c-18.2,0-33-14.8-33-33c0-18.2,14.8-33,33-33c18.2,0,33,14.8,33,33
			C783.2,113,768.4,127.8,750.2,127.8z"/>
	</g>
	<g>
		<path class="st14" d="M735.3,74c-0.7,0.5-0.8,1.4-0.3,2.1l18.4,25.9l-5.2,3.7l1.4,1.9l5.2-3.7l8.8,12.4c0.5,0.7,1.4,0.8,2.1,0.3
			s0.8-1.4,0.3-2.1l-8.8-12.4l-1.4-1.9l-18.4-25.9C736.9,73.7,736,73.5,735.3,74z"/>
		<path class="st13" d="M747.4,104.6c-1.1,0.8-1.4,2.3-0.6,3.4c0.8,1.1,2.3,1.4,3.4,0.6L747.4,104.6z"/>
		<path class="st13" d="M761.9,107c-0.2-0.3-0.7-0.4-1-0.2c0.3-0.2,0.4-0.7,0.2-1c-0.2-0.3-0.7-0.4-1-0.2l-3,2.1
			c-0.3,0.2-0.4,0.7-0.2,1c0.2,0.3,0.7,0.4,1,0.2c-0.3,0.2-0.4,0.7-0.2,1c0.2,0.3,0.7,0.4,1,0.2c-0.3,0.2-0.4,0.7-0.2,1
			c0.2,0.3,0.7,0.4,1,0.2c-0.3,0.2-0.4,0.7-0.2,1c0.2,0.3,0.7,0.4,1,0.2c-0.3,0.2-0.4,0.7-0.2,1c0.2,0.3,0.7,0.4,1,0.2
			c-0.3,0.2-0.4,0.7-0.2,1c0.2,0.3,0.7,0.4,1,0.2c-0.3,0.2-0.4,0.7-0.2,1s0.7,0.4,1,0.2l3-2.1c0.3-0.2,0.4-0.7,0.2-1s-0.7-0.4-1-0.2
			c0.3-0.2,0.4-0.7,0.2-1s-0.7-0.4-1-0.2c0.3-0.2,0.4-0.7,0.2-1c-0.2-0.3-0.7-0.4-1-0.2c0.3-0.2,0.4-0.7,0.2-1
			c-0.2-0.3-0.7-0.4-1-0.2c0.3-0.2,0.4-0.7,0.2-1c-0.2-0.3-0.7-0.4-1-0.2C762,107.7,762.1,107.3,761.9,107z"/>
		<path class="st14" d="M766,114.6l-8.8-12.4l-1.4-1.9l-18.4-25.9c-0.5-0.7-1.4-0.8-2.1-0.3l30.3,42.7
			C766.3,116.2,766.5,115.2,766,114.6z"/>
		<path class="st13" d="M761.1,105.9c-0.2-0.3-0.7-0.3-1.1-0.1l-1.8,1.3l5.7,8l1.8-1.3c0.4-0.3,0.5-0.7,0.3-1.1s-0.7-0.3-1.1-0.1
			c0.4-0.3,0.5-0.7,0.3-1.1s-0.7-0.3-1.1-0.1c0.4-0.3,0.5-0.7,0.3-1.1c-0.2-0.3-0.7-0.3-1.1-0.1c0.4-0.3,0.5-0.7,0.3-1.1
			c-0.2-0.3-0.7-0.3-1.1-0.1c0.4-0.3,0.5-0.7,0.3-1.1c-0.2-0.3-0.7-0.3-1.1-0.1c0.4-0.3,0.5-0.7,0.3-1.1c-0.2-0.3-0.7-0.3-1.1-0.1
			C761.2,106.6,761.3,106.2,761.1,105.9z"/>
	</g>
</g>
</svg>
