<?xml version="1.0" encoding="utf-8"?>
<!-- Generator: Adobe Illustrator 23.1.0, SVG Export Plug-In . SVG Version: 6.00 Build 0)  -->
<svg version="1.1" id="圖層_1" xmlns="http://www.w3.org/2000/svg" xmlns:xlink="http://www.w3.org/1999/xlink" x="0px" y="0px"
	 viewBox="0 0 854.2 636.7" style="enable-background:new 0 0 854.2 636.7;" xml:space="preserve">
<style type="text/css">
	.st0{fill:#3F3F3F;}
	.st1{fill:#8E8E8E;}
	.st2{fill:#E80A0A;}
	.st3{fill:#0000FF;}
	.st4{fill:#FFFFFF;}
	.st5{fill:#A6A8AB;}
	.st6{fill:#B3B3B3;}
	.st7{fill:#D03F28;}
	.st8{fill:#F0553C;}
	.st9{fill:#C8BDA9;}
	.st10{fill:none;stroke:#FFFFFF;stroke-width:2;stroke-miterlimit:10;}
	.st11{fill:none;stroke:#FFFFFF;stroke-width:2;stroke-miterlimit:10;stroke-dasharray:7.823,7.823;}
	.st12{fill:none;stroke:#FFFFFF;stroke-width:2;stroke-miterlimit:10;stroke-dasharray:6.1574,6.1574;}
	.st13{fill:#29282A;}
	.st14{fill:#5060EF;}
	.st15{opacity:0.17;fill:#3942EA;enable-background:new    ;}
</style>
<g id="bg">
	<g>
		<g>
			<rect x="408.4" y="144.9" class="st0" width="42.1" height="303.7"/>
			<rect x="145.4" y="145" class="st0" width="574.1" height="45.7"/>
			<rect x="145.4" y="144.9" class="st0" width="55" height="315"/>
			<g>
				<g>
					<rect x="270.9" y="237.4" class="st0" width="317.8" height="39.8"/>
					<rect x="270.9" y="237.4" class="st0" width="31.9" height="216.4"/>
				</g>
				<rect x="560.2" y="237.4" class="st0" width="31.9" height="216.4"/>
			</g>
			<rect x="667.7" y="144.9" class="st0" width="54.2" height="315"/>
		</g>
		<rect x="270.9" y="422.4" class="st0" width="321.2" height="31.9"/>
	</g>
	<g>
		<rect y="20.9" class="st1" width="854.2" height="85.8"/>
		<rect y="544.9" class="st1" width="854.2" height="61.9"/>
		<rect x="23.4" y="0" class="st1" width="86.9" height="636.7"/>
		<rect x="762.8" y="0" class="st1" width="60" height="636.7"/>
	</g>
	<g>
		<g>
			<rect x="426.2" y="285.3" class="st2" width="23" height="15"/>
			<g>
				<rect x="426.3" y="285.3" class="st3" width="11.1" height="7.8"/>
				<g>
					<path class="st4" d="M430,289.3c0-1,0.8-1.8,1.8-1.8c1,0,1.8,0.8,1.8,1.8c0,1-0.8,1.8-1.8,1.8C430.8,291.1,430,290.3,430,289.3
						z"/>
					<path class="st4" d="M430.1,286.3c0.3,0.3,0.7,0.7,1.1,1c-0.1,0-0.2,0.1-0.3,0.1c-0.5,0.3-0.5,0.3-0.6-0.3
						C430.2,286.9,430.1,286.6,430.1,286.3C430.1,286.3,430.1,286.3,430.1,286.3z"/>
					<path class="st4" d="M430.3,287.9c-0.2,0.3-0.3,0.5-0.4,0.7c-0.3-0.4-0.7-0.7-1-1.1C429.3,287.6,429.8,287.7,430.3,287.9z"/>
					<path class="st4" d="M429.9,289.9c0.1,0.2,0.3,0.4,0.4,0.7c-0.5,0.1-1,0.3-1.5,0.4C429.2,290.7,429.5,290.3,429.9,289.9z"/>
					<path class="st4" d="M430.1,292.3c0.1-0.3,0.2-0.7,0.3-1c0.1-0.4,0.1-0.4,0.5-0.2c0.1,0,0.2,0.1,0.3,0.2
						C430.9,291.6,430.5,292,430.1,292.3C430.1,292.3,430.1,292.3,430.1,292.3z"/>
					<path class="st4" d="M431.8,292.7c-0.1-0.4-0.2-0.8-0.3-1.2c0-0.2,0-0.3,0.2-0.2c0.2,0,0.4,0,0.7,0c-0.1,0.5-0.3,1-0.4,1.5
						C431.8,292.7,431.8,292.7,431.8,292.7z"/>
					<path class="st4" d="M431.9,285.8c0.1,0.5,0.3,0.9,0.4,1.5c-0.3,0-0.5,0-0.8,0c0,0-0.1-0.1-0.1-0.2
						C431.5,286.7,431.7,286.2,431.9,285.8C431.8,285.8,431.8,285.8,431.9,285.8z"/>
					<path class="st4" d="M433.6,286.3c-0.1,0.5-0.3,0.9-0.4,1.4c-0.2-0.1-0.4-0.2-0.6-0.3c0,0-0.1-0.2,0-0.2
						c0.3-0.3,0.6-0.6,0.9-0.9C433.5,286.3,433.6,286.3,433.6,286.3z"/>
					<path class="st4" d="M433.5,292.3c-0.3-0.3-0.6-0.6-0.9-0.9c0,0,0-0.2,0.1-0.2c0.2-0.1,0.3-0.2,0.6-0.3c0.1,0.5,0.3,1,0.4,1.4
						C433.6,292.2,433.5,292.2,433.5,292.3z"/>
					<path class="st4" d="M428.4,289.2c0.4-0.1,0.9-0.2,1.3-0.4c0,0,0,0,0,0c0.3,0.1,0.1,0.4,0.1,0.6c0,0-0.1,0.2-0.2,0.1
						c-0.4-0.1-0.8-0.2-1.3-0.3C428.4,289.3,428.4,289.2,428.4,289.2z"/>
					<path class="st4" d="M433.4,287.9c0.5-0.1,1-0.3,1.5-0.4c0,0.1-0.1,0.2-0.1,0.2c-0.3,0.3-0.5,0.5-0.8,0.8
						c-0.1,0.1-0.2,0.1-0.3,0C433.6,288.3,433.5,288.1,433.4,287.9z"/>
					<path class="st4" d="M434.8,291c-0.5-0.1-0.9-0.3-1.4-0.4c0.1-0.2,0.2-0.4,0.3-0.6c0,0,0.2,0,0.2,0c0.3,0.3,0.6,0.6,0.9,0.9
						C434.8,291,434.8,291,434.8,291z"/>
					<path class="st4" d="M435.3,289.3c-0.4,0.1-0.8,0.2-1.2,0.3c0,0,0,0,0,0c-0.2,0-0.2-0.1-0.2-0.2c0.1-0.2-0.2-0.6,0.2-0.6
						c0.4,0,0.8,0.2,1.3,0.3C435.3,289.2,435.3,289.3,435.3,289.3z"/>
				</g>
			</g>
			<g>
				<path class="st5" d="M426.7,285.3c-0.6,0-1.1,0.2-1.1,0.4l0.1,37.7c0,0.2,0.5,0.4,1.1,0.4s1.1-0.2,1.1-0.4l-0.1-37.7
					C427.8,285.5,427.3,285.3,426.7,285.3z"/>
				<path class="st6" d="M427.8,285.7L427.8,285.7c0-0.2-0.5-0.4-1.1-0.4v0.7l0,0l0.1,36.9l0,0v0.7c0.6,0,1.1-0.2,1.1-0.4v0h0
					L427.8,285.7z"/>
			</g>
		</g>
		<g>
			<g>
				<rect x="391.2" y="309" class="st7" width="24.7" height="90.9"/>
			</g>
			<g>
				<rect x="443" y="309" class="st7" width="25.3" height="90.9"/>
			</g>
			<g>
				<rect x="391.2" y="318.4" class="st7" width="76.8" height="74.6"/>
			</g>
			<g>
				<g>
					<rect x="412.8" y="330.8" class="st8" width="8.3" height="22.1"/>
				</g>
				<g>
					<rect x="425.2" y="330.7" class="st8" width="8.3" height="22.1"/>
				</g>
				<g>
					<rect x="437" y="330.8" class="st8" width="8.3" height="22.1"/>
				</g>
				<g>
					<g>
						<path class="st8" d="M401.4,347.2L401.4,347.2c-3.2,0-5.7-2.3-5.7-5.2V336c0-2.9,2.5-5.2,5.7-5.2l0,0c3.2,0,5.7,2.3,5.7,5.2
							v5.9C407.1,344.9,404.5,347.2,401.4,347.2z"/>
					</g>
					<g>
						<rect x="395.7" y="334.7" class="st8" width="11.4" height="12.5"/>
					</g>
				</g>
				<g>
					<g>
						<path class="st8" d="M456.2,347.4L456.2,347.4c-3.1,0-5.7-2.3-5.7-5.2v-5.9c0-2.9,2.5-5.2,5.7-5.2l0,0c3.1,0,5.7,2.3,5.7,5.2
							v5.9C461.9,345,459.4,347.4,456.2,347.4z"/>
					</g>
					<g>
						<rect x="450.5" y="334.9" class="st8" width="11.4" height="12.5"/>
					</g>
				</g>
			</g>
			<g>
				<rect x="319.6" y="401.5" class="st7" width="220.3" height="60.5"/>
			</g>
			<g>
				<rect x="391.2" y="389.9" class="st7" width="77" height="73.9"/>
			</g>
			<g>
				<g>
					<g>
						<g>
							<rect x="328.8" y="410.2" class="st8" width="8.4" height="12.2"/>
						</g>
					</g>
					<g>
						<g>
							<rect x="328.8" y="425.7" class="st8" width="8.4" height="12.2"/>
						</g>
					</g>
					<g>
						<g>
							<rect x="328.8" y="441.2" class="st8" width="8.4" height="12.2"/>
						</g>
					</g>
				</g>
				<g>
					<g>
						<g>
							<rect x="342.9" y="410.2" class="st8" width="8.4" height="12.2"/>
						</g>
					</g>
					<g>
						<g>
							<rect x="342.9" y="425.7" class="st8" width="8.4" height="12.2"/>
						</g>
					</g>
					<g>
						<g>
							<rect x="342.9" y="441.2" class="st8" width="8.4" height="12.2"/>
						</g>
					</g>
				</g>
				<g>
					<g>
						<g>
							<rect x="357.9" y="410.2" class="st8" width="8.4" height="12.2"/>
						</g>
					</g>
					<g>
						<g>
							<rect x="357.9" y="425.7" class="st8" width="8.4" height="12.2"/>
						</g>
					</g>
					<g>
						<g>
							<rect x="357.9" y="441.2" class="st8" width="8.4" height="12.2"/>
						</g>
					</g>
				</g>
				<g>
					<g>
						<g>
							<rect x="372.3" y="410.2" class="st8" width="8.4" height="12.2"/>
						</g>
					</g>
					<g>
						<g>
							<rect x="372.3" y="425.7" class="st8" width="8.4" height="12.2"/>
						</g>
					</g>
					<g>
						<g>
							<rect x="372.3" y="441.2" class="st8" width="8.4" height="12.2"/>
						</g>
					</g>
				</g>
			</g>
			<g>
				<g>
					<g>
						<g>
							<rect x="477.5" y="410.2" class="st8" width="8.4" height="12.2"/>
						</g>
					</g>
					<g>
						<g>
							<rect x="477.5" y="425.7" class="st8" width="8.4" height="12.2"/>
						</g>
					</g>
					<g>
						<g>
							<rect x="477.5" y="441.2" class="st8" width="8.4" height="12.2"/>
						</g>
					</g>
				</g>
				<g>
					<g>
						<g>
							<rect x="491.6" y="410.2" class="st8" width="8.4" height="12.2"/>
						</g>
					</g>
					<g>
						<g>
							<rect x="491.6" y="425.7" class="st8" width="8.4" height="12.2"/>
						</g>
					</g>
					<g>
						<g>
							<rect x="491.6" y="441.2" class="st8" width="8.4" height="12.2"/>
						</g>
					</g>
				</g>
				<g>
					<g>
						<g>
							<rect x="506.6" y="410.2" class="st8" width="8.4" height="12.2"/>
						</g>
					</g>
					<g>
						<g>
							<rect x="506.6" y="425.7" class="st8" width="8.4" height="12.2"/>
						</g>
					</g>
					<g>
						<g>
							<rect x="506.6" y="441.2" class="st8" width="8.4" height="12.2"/>
						</g>
					</g>
				</g>
				<g>
					<g>
						<g>
							<rect x="521" y="410.2" class="st8" width="8.4" height="12.2"/>
						</g>
					</g>
					<g>
						<g>
							<rect x="521" y="425.7" class="st8" width="8.4" height="12.2"/>
						</g>
					</g>
					<g>
						<g>
							<rect x="521" y="441.2" class="st8" width="8.4" height="12.2"/>
						</g>
					</g>
				</g>
			</g>
			<g>
				<rect x="395.5" y="418" class="st8" width="11.4" height="43.2"/>
			</g>
			<g>
				<rect x="451.3" y="418" class="st8" width="11.4" height="43.2"/>
			</g>
			<g>
				<rect x="416" y="431.7" class="st8" width="27" height="29.5"/>
			</g>
			<g>
				<rect x="319.6" y="461" class="st9" width="220.3" height="5.5"/>
			</g>
			<g>
				<rect x="424" y="440.9" class="st8" width="1" height="11.1"/>
			</g>
			<g>
				<rect x="432.5" y="440.9" class="st8" width="1" height="11.1"/>
			</g>
			<rect x="328.8" y="393" class="st7" width="51.9" height="14.1"/>
			<rect x="477.5" y="389.9" class="st7" width="51.9" height="14.1"/>
		</g>
	</g>
	<g>
		<g>
			<line class="st10" x1="322.2" y1="63.8" x2="318.2" y2="63.8"/>
			<line class="st11" x1="310.4" y1="63.8" x2="95.3" y2="63.8"/>
			<line class="st10" x1="91.3" y1="63.8" x2="87.3" y2="63.8"/>
		</g>
	</g>
	<g>
		<g>
			<line class="st10" x1="763.5" y1="63.8" x2="759.5" y2="63.8"/>
			<line class="st11" x1="751.7" y1="63.8" x2="536.5" y2="63.8"/>
			<line class="st10" x1="532.6" y1="63.8" x2="528.6" y2="63.8"/>
		</g>
	</g>
	<g>
		<g>
			<line class="st10" x1="766.5" y1="575.8" x2="762.5" y2="575.8"/>
			<line class="st11" x1="754.7" y1="575.8" x2="539.5" y2="575.8"/>
			<line class="st10" x1="535.6" y1="575.8" x2="531.6" y2="575.8"/>
		</g>
	</g>
	<g>
		<g>
			<line class="st10" x1="328.7" y1="575.8" x2="324.7" y2="575.8"/>
			<line class="st11" x1="316.9" y1="575.8" x2="101.8" y2="575.8"/>
			<line class="st10" x1="97.9" y1="575.8" x2="93.9" y2="575.8"/>
		</g>
	</g>
	<g>
		<g>
			<line class="st10" x1="61" y1="24.3" x2="61" y2="27.3"/>
			<line class="st12" x1="61" y1="33.5" x2="61" y2="202.8"/>
			<line class="st10" x1="61" y1="205.9" x2="61" y2="208.9"/>
		</g>
	</g>
	<g>
		<g>
			<line class="st10" x1="792.8" y1="33.4" x2="792.8" y2="36.4"/>
			<line class="st12" x1="792.8" y1="42.6" x2="792.8" y2="211.9"/>
			<line class="st10" x1="792.8" y1="215" x2="792.8" y2="218"/>
		</g>
	</g>
	<g>
		<g>
			<line class="st10" x1="792.8" y1="401.5" x2="792.8" y2="404.5"/>
			<line class="st12" x1="792.8" y1="410.7" x2="792.8" y2="580"/>
			<line class="st10" x1="792.8" y1="583.1" x2="792.8" y2="586.1"/>
		</g>
	</g>
	<g>
		<g>
			<line class="st10" x1="66.9" y1="407.7" x2="66.9" y2="410.6"/>
			<line class="st12" x1="66.9" y1="416.8" x2="66.9" y2="586.1"/>
			<line class="st10" x1="66.9" y1="589.2" x2="66.9" y2="592.2"/>
		</g>
	</g>
	<g>
		<path class="st4" d="M61.3,228.7c0-0.7,0.3-1,0.9-1l4.8,0.4c0.6,0,1.1,0.1,1.4,0.5c0,0.1-0.2,0.4-0.6,0.8
			c-0.5,0.3-0.7,0.6-0.7,1.2v4c0,0.5,0.3,0.8,0.8,0.8h4c0.6,0.3,1.3-0.3,2.2-1.6c0.6-0.6,1.2-0.7,1.8-0.3l2.9,1.8
			c1.1,0.4,1.2,1,0.4,1.7c-0.4,0.3-0.6,0.8-0.6,1.3v9.7c0,0.6-0.3,1-1,1.1c-1.2,0.1-2.4,0.3-3.5,0.4c-0.8,0.1-1.2-0.2-1.2-0.9v-0.8
			c0-0.5-0.3-0.8-0.8-0.8h-4.2c-0.5,0-0.8,0.3-0.8,0.8v9c0,0.6-0.3,1-1,1.1l-3.5,0.5c-0.8,0.1-1.2-0.2-1.2-0.8v-9.7
			c0-0.5-0.3-0.8-0.8-0.8h-3.7c-0.5,0-0.8,0.3-0.8,0.9c0,0.6-0.3,1-1,1.1l-3.3,0.4c-0.7,0.1-1.1-0.2-1.1-0.7v-14.8
			c0-0.6,0.3-0.8,1-0.6c1.4,0.6,2.8,1.2,4.2,1.8c0.5,0.2,1,0.3,1.4,0.3h3.3c0.5,0,0.8-0.3,0.8-0.8L61.3,228.7L61.3,228.7z
			 M61.3,237.1c0-0.5-0.3-0.8-0.8-0.8h-3.7c-0.5,0-0.8,0.3-0.8,0.8v8.3c0,0.5,0.3,0.8,0.8,0.8h3.7c0.5,0,0.8-0.3,0.8-0.8V237.1z
			 M72.8,237.1c0-0.5-0.3-0.8-0.8-0.8h-4.2c-0.5,0-0.8,0.3-0.8,0.8v8.3c0,0.5,0.3,0.8,0.8,0.8H72c0.5,0,0.8-0.3,0.8-0.8V237.1z"/>
		<path class="st4" d="M61.2,272.3c0-0.6,0.3-1,0.9-0.9l4.8,0.4c0.5,0,1,0.1,1.3,0.5c0.1,0.3-0.2,0.6-0.8,0.9
			c-0.4,0.2-0.6,0.6-0.6,1.1v21.9c0,0.5,0.3,0.8,0.8,0.8h3.6c0.5,0,0.8-0.3,0.8-0.8v-19.3c0-0.6,0.3-1,1-0.9l4.8,0.3
			c0.4,0,0.8,0.1,1.2,0.3c0.4,0.4,0.3,0.8-0.5,1.1c-0.4,0.2-0.5,0.5-0.5,1v20.9c0,0.6-0.3,1-1,1.1c-1.3,0.1-2.6,0.3-3.9,0.5
			c-0.7,0.1-1-0.2-1-0.8v-1.7c0-0.5-0.3-0.8-0.8-0.8H57c-0.5,0-0.8,0.3-0.8,0.8v1.1c0,0.6-0.3,1-1,1.1c-1.1,0.1-2.2,0.3-3.3,0.4
			c-0.7,0.1-1.1-0.2-1.1-0.7v-23.8c0-0.6,0.3-1,1-1l4.8,0.3c0.3,0,0.6,0.2,0.7,0.5c0,0.1-0.2,0.3-0.5,0.6c-0.4,0.2-0.6,0.5-0.6,0.9
			v18.2c0,0.5,0.3,0.8,0.8,0.8h3.5c0.5,0,0.8-0.3,0.8-0.8L61.2,272.3L61.2,272.3z"/>
		<path class="st4" d="M57.6,315.8c0-0.6,0.3-1,1-0.9c1.6,0.1,3.2,0.2,4.8,0.4c0.4,0.1,0.6,0.3,0.6,0.5c0,0.3-0.3,0.5-0.8,0.8
			c-0.3,0.1-0.5,0.5-0.5,1v25.9c0,0.6-0.3,1-1,1.1c-1.1,0.1-2.2,0.3-3.2,0.5c-0.7,0.1-1-0.2-1-0.8v-6.8c0-0.5-0.3-0.5-0.8,0.1
			l-3.6,4.5c-0.2,0.7-0.5,1.1-1.1,1.2c-0.2-0.1-0.4-0.5-0.7-1.3l-1.3-4.3c-0.2-0.7,0-1.2,0.7-1.5l6-2.3c0.5-0.2,0.8-0.6,0.8-1.1
			v-6.5c0-0.5-0.3-0.8-0.8-0.8h-5.6c-0.6,0-1-0.1-1.2-0.5c-0.1-0.3,0.2-0.5,0.8-0.5h5.9c0.5,0,0.8-0.3,0.8-0.8L57.6,315.8
			L57.6,315.8z M66.4,315.8c0-0.6,0.3-1,0.9-0.9c1.6,0.1,3.2,0.2,4.8,0.4c0.9,0.3,0.9,0.7,0,1.4c-0.4,0.2-0.5,0.5-0.5,1v5.3
			c0,0.7,0.2,0.8,0.6,0.3c0.6-0.9,1.2-1.9,1.6-2.8c0.4-0.7,1-0.8,1.7-0.2c1.3,1,2.6,2,3.9,3.1c0.5,0.4,0.7,0.7,0.5,1.1
			c-0.1,0.1-0.3,0.1-0.8,0.1c-0.4-0.1-1.1,0.1-2,0.6c-1.5,0.7-3,1.4-4.5,2c-0.7,0.3-1,0.7-1,1.3v9.5c-0.1,1.3,0.5,1.8,1.7,1.6
			c1.1,0.2,1.9-0.3,2.3-1.4c0.3-0.7,0.6-2,1-3.9c0.2-0.8,0.3-1.2,0.6-1.2c0.3,0,0.5,0.3,0.5,1c0,1.4,0.1,2.7,0.3,3.8
			c0.1,0.7,0.6,1.2,1.5,1.4c0.7,0.2,1,0.6,0.8,1.3c-0.4,1.4-0.9,2.5-1.5,3.2c-0.7,0.6-1.5,0.9-2.4,1h-7.2c-1-0.1-1.8-0.6-2.3-1.7
			c-0.2-0.4-0.3-0.9-0.4-1.3L66.4,315.8L66.4,315.8z"/>
		<path class="st4" d="M65.3,359c0.1-0.6,0.4-0.9,1-0.7c1.6,0.4,3.2,0.8,4.8,1.3c0.8,0.4,0.7,0.8-0.3,1.2c-0.2,0.1-0.4,0.3-0.6,0.8
			c-0.2,0.5-0.1,0.8,0.4,0.8h1.9c0.5,0,1.1-0.3,1.6-0.9s1.2-0.6,1.8-0.2c0.8,0.5,1.5,1,2.3,1.5c0.7,0.4,1.1,0.7,1.3,1.1
			c-0.1,0.3-0.3,0.6-0.6,0.7c-0.3,0.1-0.5,0.4-0.7,0.8c-1,1.7-1.9,3.1-2.8,4.4c-0.5,0.5-0.3,0.9,0.3,1c1.1,0.3,2.3,0.5,3.5,0.6
			c0.7,0.1,1.1,0.3,1.1,0.5c0,0.2-0.3,0.7-0.9,1.3c-0.4,0.7-0.8,1.7-1,2.9c-0.1,0.8-0.5,1-1.2,0.7c-1.5-0.5-3.2-1.3-4.9-2.4
			c-0.6-0.5-1.3-0.5-1.9-0.1c-1.3,0.7-2.7,1.3-4.5,1.9c-0.6,0.2-0.6,0.4-0.1,0.5l1.7,0.6c0.6,0.2,1.1,0.3,1.5,0.3h3.1
			c0.5,0,1.1-0.3,1.7-0.9c0.6-0.6,1.2-0.6,1.9-0.2c0.8,0.5,1.5,1,2.3,1.5c1.1,0.5,1.3,1,0.5,1.6c-0.2,0.1-0.3,0.4-0.3,0.9v6.6
			c0,0.6-0.3,1-1,1.1l-3.3,0.5c-0.7,0.1-1-0.2-1-0.8v-0.7c0-0.5-0.3-0.8-0.8-0.8h-2.9c-0.5,0-0.8,0.3-0.8,0.9s-0.3,1-1,1.1l-2.9,0.5
			c-0.8,0.1-1.2-0.2-1.2-0.8v-5.8c0-0.5-0.3-0.6-1-0.3l-10,5.3c-0.3,0.6-0.6,1-0.9,1.2c-0.3,0.1-0.6-0.2-0.8-0.8l-1-4.5
			c-0.2-0.6,0-1,0.3-1c0.4,0,0.6-0.3,0.6-0.7v-7.5c0-0.6,0.3-1,1-0.9l2.3,0.1c0.8,0.1,1.3,0.2,1.3,0.3c0,0.1-0.1,0.3-0.3,0.5
			c-0.2,0.1-0.3,0.5-0.3,1v6.2c0,0.5,0.2,0.8,0.5,0.8c0.3-0.1,0.5-0.4,0.5-0.9v-9.2c0-0.5-0.3-0.7-1-0.7c-0.9,0.1-1.8,0.2-2.6,0.4
			c-0.7,0.1-1-0.1-1-0.8V360c0-0.6,0.3-0.9,1-0.7c0.8,0.2,1.5,0.5,2.3,0.8c0.8,0.5,1.9,0.6,3.3,0.5c0.5,0,1.1-0.3,1.7-0.9
			c0.6-0.5,1.2-0.5,1.9-0.1l1.7,1.1c1.2,0.5,1.5,1.1,0.7,1.6c-0.3,0.1-0.5,0.5-0.5,1v5.1c0,0.7,0.2,0.7,0.5,0
			C64.3,365.8,64.9,362.7,65.3,359z M58.1,362.2c0-0.6-0.2-0.9-0.7-0.9h-1.2c-0.5,0-0.8,0.3-0.8,0.8v5.7c0,0.5,0.3,0.8,0.8,0.8h1.2
			c0.5,0,0.8-0.3,0.8-0.8V362.2z M67.4,368.4c-0.2-0.6-0.6-0.6-1.1,0c-1,1.1-2,2-3.1,2.7c-0.6,0.4-1,0.5-1.1,0.4
			c-0.1-0.1,0-0.3,0.1-0.5c0.1-0.3-0.2-0.3-0.8-0.2l-0.8,0.1c-0.6,0.1-0.8,0.3-0.8,0.8v2.3c0,0.5,0,0.8,0.2,0.8
			c0.1,0,0.4-0.3,0.8-0.9l0.4-0.6c0.4-0.6,0.9-0.7,1.5-0.1l0.6,0.7c0.7,0.7,1.2,1,1.6,0.8c1.4-1.1,2.5-2,3.3-2.8
			c0.4-0.5,0.4-1.1,0.1-1.7C67.9,369.5,67.6,368.9,67.4,368.4z M61.8,376.4c1.3-0.5,1.3-0.7,0.2-0.7h-1.3c-0.5,0-0.8,0.3-0.8,0.8
			v3.8c0,0.5,0.3,0.7,1,0.7l1.9-0.2c0.5-0.1,0.8-0.4,0.8-0.9v-2c0-0.5-0.3-0.7-1-0.6c-0.1,0-0.2,0-0.3,0c-0.8,0.1-1.2,0.1-1.2-0.1
			C60.8,377,61.1,376.7,61.8,376.4z M72.8,364.1c0.3-0.6,0.1-0.8-0.3-0.8h-2.1c-0.5,0-1,0.3-1.3,1l-0.7,1.4c-0.3,0.5-0.2,1,0.2,1.5
			c0.3,0.3,0.6,0.6,0.9,1c0.6,0.4,1,0.3,1.4-0.3C71.6,366.6,72.2,365.3,72.8,364.1z M73,379.5c0-0.6-0.3-0.8-0.7-0.8h-3
			c-0.5,0-0.8,0.3-0.8,0.8v5.3c0,0.5,0.3,0.8,0.8,0.8h2.9c0.5,0,0.8-0.3,0.8-0.8V379.5z"/>
	</g>
	<g>
		<g>
			<path class="st4" d="M800.9,231.7c0.6-0.8,1.2-0.9,1.8-0.4l1.6,1.3c0.8,0.7,1.1,1.1,0.9,1.5c-0.2,0.3-0.6,0.5-1.2,0.5h-9.1
				c-0.5,0-0.8,0.3-0.8,1c0,2.2-0.2,4.6-0.4,7.1c0,0.6,0.2,0.9,0.6,0.9h5.9c0.5,0,1.1-0.3,1.6-1l1.1-1.3c0.5-0.6,1.1-0.7,1.8-0.1
				l1.6,1.4c0.8,0.7,1,1.1,0.8,1.5c-0.2,0.3-0.7,0.5-1.3,0.5h-11.5c-0.5,0-0.7,0.3-0.4,1c1.6,2.8,3.8,4.9,6.7,6.2
				c1.9,0.9,4,1.6,6.2,2.2c0.7,0.2,1,0.4,1,0.6c0,0.3-0.3,0.7-1,1.2c-1,1.1-1.7,2.5-1.9,4.2c-0.1,0.7-0.4,0.9-1.2,0.5
				c-3.4-1.8-5.8-3.7-7.4-5.8c-1.2-1.7-2.2-4-3-6.8c-0.2-0.6-0.4-0.4-0.6,0.4c-0.3,1.8-1,3.4-1.9,5c-1.4,2-3,3.5-4.8,4.6
				c-2.4,1.4-5.1,2.5-8.1,3.3c-0.7,0.2-1,0.2-1.1-0.1c-0.1-0.3,0.3-0.6,1.1-1c4.4-2.5,7.3-5.7,8.6-9.5c0.5-1.8,0.8-3.4,1-5
				c0.1-0.5-0.2-0.8-0.7-0.8h-8.6c-0.6,0-1-0.1-1.2-0.5c-0.1-0.3,0.1-0.5,0.8-0.5h9c0.5,0,0.8-0.3,0.9-1c0.1-2.4,0.3-4.8,0.3-7.2
				c0-0.5-0.3-0.8-0.8-0.8h-7.5c-0.6,0-1-0.1-1.2-0.5c-0.1-0.3,0.1-0.5,0.8-0.5h19.1c0.5,0,1-0.3,1.5-1L800.9,231.7z"/>
			<path class="st4" d="M792.1,297c0-0.6,0.3-1,1-0.9c1.6,0.1,3.2,0.2,4.8,0.4c0.4,0.1,0.6,0.3,0.6,0.5c-0.1,0.4-0.4,0.6-0.8,0.8
				c-0.3,0.2-0.5,0.5-0.5,1v0.9c0,0.5,0.3,0.8,1,0.8s1.3-0.3,1.8-0.8l0.7-0.7c0.6-0.6,1.3-0.8,1.9-0.4l2.9,1.9
				c0.7,0.5,0.6,0.9-0.1,1.3c-0.6,0.2-0.9,1-0.6,2.2c0,1.1,0.3,1.1,0.9-0.2c0.5-0.6,0.9-0.6,1.4,0c0.1,0.1,0.2,0.2,0.2,0.3
				c0.7,0.6,0.8,1.2,0.5,1.5c-0.1,0.2-0.5,0.3-1.1,0.3h-1c-0.5,0-0.8,0.3-0.8,0.8v3.3c0,0.6-0.2,1-0.6,1.1c-0.4,0-0.3,0.3,0.3,0.9
				l1.7,1.4c0.6,0.5,0.8,0.9,0.6,1.2c-0.2,0.3-0.7,0.5-1.3,0.5H798c-0.5,0-0.8,0.3-0.8,0.8v2.3c0,0.5,0.3,0.8,0.8,0.8h3
				c0.6,0.3,1.4-0.4,2.3-1.9c0.6-0.8,1.3-0.9,1.9-0.3l1.7,1.4c0.6,0.5,0.9,1,0.7,1.2c-0.3,0.3-0.7,0.5-1.3,0.5H798
				c-0.5,0-0.8,0.3-0.8,0.8v4.5c0,0.6-0.3,1-1,1.1c-1,0.1-2.1,0.3-3.2,0.5c-0.6,0.1-1-0.2-1-0.9v-5.2c0-0.5-0.3-0.8-0.8-0.8H785
				c-0.6,0-1-0.1-1.2-0.4c-0.2-0.3,0.1-0.5,0.6-0.5h6.7c0.5,0,0.8-0.3,0.8-0.8v-2.3c0-0.5-0.3-0.8-0.8-0.8h-5.1
				c-0.6,0-1-0.1-1.2-0.5c-0.1-0.3,0.2-0.5,0.8-0.5h5.4c0.5,0,0.8-0.3,0.8-0.8v-1.8c0-0.5-0.3-0.8-0.8-0.8H788c-0.6,0-1-0.1-1.2-0.5
				c-0.1-0.3,0.1-0.5,0.8-0.5h3.6c0.5,0,0.8-0.3,0.8-0.8v-2.3c0-0.5-0.3-0.8-0.8-0.8h-3.6c-0.6,0-1-0.1-1.2-0.3
				c-0.1-0.1-0.2,0.1-0.4,0.9c-0.9,3.7-1.8,7.5-2.7,11.2c0,0.7,0,1.2,0.3,1.5c1.2,1.9,1.5,3.6,1,5.2c-0.6,1.3-1.8,1.9-3.4,1.7
				c-0.5-0.1-0.9-0.3-1.3-0.5c-0.9-0.8-1.2-1.9-0.9-3.3c0.2-0.9,0.4-1.7,0.7-2.6c0.3-1.1-0.2-1.9-1.6-2.3c-0.6-0.1-1-0.3-1-0.5
				c0-0.2,0.3-0.4,1-0.4c0.7,0,1.2-0.3,1.5-0.8l2-3.8c0.3-0.6,0.2-0.8-0.5-0.6c-1.2,0.2-2-0.6-2.5-2.4c-0.1-1-0.4-1.9-1-2.6
				c-0.6-0.6-0.9-1-0.8-1.1c0.1-0.2,0.5-0.3,1.3-0.3c1,0.1,1.9,0.2,2.6,0.4c1.1,0.3,1.9,1,2.5,2.4c0.1,0.6,0.3,0.6,0.7-0.1
				c0.8-1.6,1.6-3.1,2.4-4.7c0.4-0.7,0.6-1,0.7-1c0.1,0.2,0.1,0.6-0.1,1.2c-0.1,0.4-0.2,0.8-0.3,1.2c-0.1,0.5,0.1,0.8,0.6,0.8h4
				c0.5,0,0.8-0.3,0.8-0.8V302c0-0.5-0.3-0.8-0.8-0.8h-2.6c-0.6,0-1-0.1-1.2-0.4c-0.2-0.3,0.1-0.4,0.7-0.4h3c0.5,0,0.8-0.3,0.8-0.8
				L792.1,297L792.1,297z M778.4,297.1c0.1-0.1,0.4-0.2,1.1-0.2c2.2,0,3.8,0.4,4.9,1.3c0.8,0.7,1.3,1.6,1.3,2.5
				c0,1.1-0.5,1.9-1.3,2.5c-1.2,0.7-2.3,0.5-3.4-0.8c-0.2-0.3-0.3-0.7-0.4-1.1c0-1.2-0.5-2.2-1.5-3.2
				C778.6,297.6,778.3,297.2,778.4,297.1z M799.5,302.1c0-0.6-0.2-0.9-0.7-0.9H798c-0.5,0-0.8,0.3-0.8,0.8v2.3
				c0,0.5,0.3,0.8,0.8,0.8h0.8c0.5,0,0.8-0.3,0.8-0.8L799.5,302.1L799.5,302.1z M799.5,306.8c0-0.6-0.3-0.8-0.7-0.8H798
				c-0.5,0-0.8,0.3-0.8,0.8v2.3c0,0.5,0.3,0.8,0.8,0.8h0.8c0.5,0,0.8-0.3,0.8-0.8L799.5,306.8L799.5,306.8z M799.5,311.2
				c0-0.3-0.3-0.5-0.7-0.5H798c-0.5,0-0.8,0.3-0.8,0.8v1.8c0,0.5,0.3,0.8,0.8,0.8h2.2c0.5,0,1-0.3,1.6-1l0.8-1
				c0.6-0.7,0.5-1-0.1-0.9l-1.9,0.3C799.9,311.6,799.5,311.5,799.5,311.2z"/>
			<path class="st4" d="M781,362.1c0.2-0.7,0.6-1,1.2-0.8c1.6,0.4,3.3,0.8,5,1.2c0.4,0.4,0.3,0.7-0.3,1c-0.4,0.2-0.8,0.5-1.1,1
				c-0.7,1-1.8,2-3.1,3.3c-0.5,0.4-0.4,0.7,0.3,0.8l4.3,1c0.3,0,0.5,0.2,0.6,0.5c-0.1,0.4-0.3,0.6-0.6,0.6c-0.3,0.1-0.6,0.4-0.9,0.7
				c-0.4,0.5-0.3,0.8,0.2,0.8h1.7c0.5,0,0.8-0.3,0.8-0.8v-2.9c0-0.5-0.3-0.8-0.8-0.8h-1.3c-0.6,0-1-0.1-1.2-0.4
				c-0.1-0.3,0.1-0.4,0.7-0.4h1.7c0.5,0,0.8-0.3,0.8-0.8v-3.8c0-0.6,0.3-1,1-0.9l2.3,0.2c1.3,0,2.2,0.1,2.7,0.4
				c0.4,0.4,0.2,0.8-0.6,1c-0.3,0.1-0.5,0.5-0.5,1v2c0,0.5,0.2,0.5,0.7-0.1l0.3-0.4c0.5-0.6,1.1-0.6,1.8,0l0.6,0.5
				c0.6,0.6,0.9,1,0.7,1.3c-0.2,0.3-0.6,0.4-1.3,0.4h-2.1c-0.5,0-0.8,0.3-0.8,0.8v2.9c0,0.5,0.3,0.5,0.9-0.1
				c0.1-0.1,0.2-0.2,0.3-0.3c0.5-0.6,1.1-0.6,1.8,0c1.1,1,2,1.5,2.5,1.4h1.5c0.5,0,1-0.3,1.5-1l0.8-1c0.6-0.8,1.2-0.9,1.8-0.4
				c0.6,0.5,1.3,1,1.9,1.6c0.6,0.5,0.8,0.9,0.6,1.2c-0.2,0.3-0.6,0.5-1.3,0.5h-0.8c-0.5,0-0.8,0.3-0.8,0.8v14.5
				c0.1,1.6-0.5,2.5-2,2.9c-0.9,0.2-1.8,0.3-2.7,0.3c-0.6,0-1-0.3-1.2-1c-0.1-1.1-0.8-2-2-2.8c-0.5-0.3-0.8-0.5-0.8-0.6
				c0-0.1,0.3-0.2,1-0.2h1.6c0.5,0,0.8-0.3,0.8-0.8V374c0-0.5-0.3-0.8-0.8-0.8h-12.3c-0.6,0-1,0-1-0.1c0-0.1-0.3,0.2-0.9,0.9
				c-0.6,0.6-0.7,1-0.5,1.1c0.4,0.1,0.6,0.2,0.6,0.3c0,0.1-0.1,0.3-0.3,0.5c-0.2,0.1-0.3,0.5-0.3,1v13.6c0,0.6-0.3,1-1,1.1l-2.6,0.2
				c-0.7,0.1-1-0.2-1-0.8v-11.5c0.3-1-0.2-1-1.3,0.1c-0.8,0.5-1.3,0.8-1.4,0.6c-0.1-0.1,0.1-0.5,0.6-1.2c2-2.9,3.4-6.1,4.1-9.6
				c0.1-0.6-0.1-0.6-0.8-0.1c-0.7,0.5-1.5,1-2.2,1.5c-0.8,0.5-1.3,0.7-1.4,0.6c-0.1-0.1,0.1-0.5,0.5-1.2
				C779.2,367.8,780.3,365.1,781,362.1z M788.9,375c0-0.7,0.3-1,0.9-1c1.4,0.1,2.8,0.2,4.1,0.3c0.5,0,0.7,0.2,0.8,0.6
				c-0.1,0.1-0.3,0.3-0.6,0.5c-0.3,0.2-0.5,0.5-0.5,1v0.9c0,0.5,0,0.8,0.1,0.8c0.1,0,0.4-0.3,1-1l0.3-0.4c0.6-0.7,1.2-0.8,1.8-0.3
				l0.9,0.7c0.8,0.6,1.1,1.1,0.9,1.4c-0.1,0.3-0.5,0.5-1.2,0.5h-3.2c-0.5,0-0.8,0.3-0.8,0.8v2.8c0,0.5,0.3,0.8,1,0.7l3.3-0.3
				c0.7-0.1,1.1,0,1.1,0.2c0,0.2-0.3,0.5-0.9,0.8c-3.5,1.6-7.1,3.2-10.6,4.9c-0.3,0.1-0.6,0.4-0.9,0.8c-0.3,0.5-0.6,0.6-0.9,0.5
				c-0.3-0.3-0.5-0.7-0.5-1.2c-0.3-1.3-0.6-2.6-0.9-3.9c-0.1-0.6,0.1-1,0.8-1c0.9-0.1,1.8-0.1,2.8-0.2c0.5-0.1,0.8-0.4,0.8-0.9v-3.2
				c0-0.5-0.3-0.8-0.8-0.8h-1.8c-0.6,0-1-0.1-1.2-0.5c-0.1-0.3,0.2-0.5,0.8-0.5h2.2c0.5,0,0.8-0.3,0.8-0.8L788.9,375L788.9,375z
				 M802.8,363.5c0.6-0.7,1.2-0.8,1.8-0.3l1.6,1.4c0.6,0.5,0.9,1,0.7,1.3c-0.2,0.3-0.7,0.5-1.3,0.5h-7c-0.6,0-1-0.1-1.2-0.5
				c-0.1-0.3,0.1-0.5,0.8-0.5h2.2c0.5,0,1-0.3,1.6-1L802.8,363.5z"/>
		</g>
	</g>
	<g>
		<g>
			<path class="st4" d="M346.9,48.9c0-0.6,0.3-0.9,1-0.9c1.6,0.1,3.2,0.2,4.8,0.4c0.4,0.1,0.6,0.3,0.6,0.5c0,0.3-0.3,0.5-0.8,0.8
				c-0.3,0.1-0.5,0.5-0.5,1v25.9c0,0.6-0.3,1-1,1.1c-1.1,0.1-2.2,0.3-3.2,0.5c-0.7,0.1-1-0.2-1-0.8v-6.8c0-0.5-0.3-0.5-0.8,0.1
				l-3.6,4.5c-0.2,0.7-0.5,1.1-1.1,1.2c-0.2-0.1-0.4-0.5-0.7-1.3l-1.3-4.3c-0.2-0.7,0-1.2,0.7-1.5l6-2.3c0.5-0.2,0.8-0.6,0.8-1.1
				v-6.4c0-0.5-0.3-0.8-0.8-0.8h-5.6c-0.6,0-1-0.1-1.2-0.4c-0.1-0.3,0.2-0.4,0.8-0.4h5.9c0.5,0,0.8-0.3,0.8-0.8L346.9,48.9
				L346.9,48.9z M355.7,48.9c0-0.6,0.3-0.9,0.9-0.9c1.6,0.1,3.2,0.2,4.8,0.4c0.9,0.3,0.9,0.7,0,1.4c-0.4,0.2-0.5,0.5-0.5,1v5.3
				c0,0.7,0.2,0.8,0.6,0.3c0.6-0.9,1.2-1.9,1.6-2.8c0.4-0.7,1-0.8,1.7-0.2c1.3,1,2.6,2,3.9,3.1c0.5,0.4,0.7,0.7,0.5,1.1
				c-0.1,0.1-0.3,0.1-0.8,0.1c-0.4-0.1-1.1,0.1-2,0.6c-1.5,0.7-3,1.4-4.5,2c-0.7,0.3-1,0.7-1,1.3V71c-0.1,1.3,0.5,1.8,1.7,1.6
				c1.1,0.2,1.9-0.3,2.3-1.4c0.3-0.7,0.6-2,1-3.9c0.2-0.8,0.3-1.2,0.6-1.2c0.3,0,0.5,0.3,0.5,1c0,1.4,0.1,2.7,0.3,3.8
				c0.1,0.7,0.6,1.2,1.5,1.4c0.7,0.2,1,0.6,0.8,1.3c-0.4,1.4-0.9,2.5-1.5,3.2c-0.7,0.6-1.5,0.9-2.4,1h-7.2c-1-0.1-1.8-0.6-2.3-1.7
				c-0.2-0.4-0.3-0.9-0.4-1.3L355.7,48.9L355.7,48.9z"/>
			<path class="st4" d="M411.7,48.6c0.6-0.7,1.1-0.8,1.7-0.3l2,1.7c0.7,0.6,1,1,0.7,1.3c-0.3,0.3-0.7,0.5-1.4,0.5h-10
				c-0.5,0-0.8,0.3-0.8,0.8v11.3c0,0.5,0.3,0.8,0.8,0.8h5c0.5,0,1-0.3,1.6-1l1.3-1.6c0.5-0.6,1.1-0.7,1.7-0.2
				c0.8,0.6,1.5,1.2,2.3,1.9c0.6,0.6,0.9,1,0.6,1.3c-0.3,0.3-0.8,0.4-1.4,0.4h-11c-0.5,0-0.8,0.3-0.8,0.8v10.9c0,0.6-0.3,1-1,1.1
				l-3.3,0.4c-0.7,0.1-1.1-0.2-1.1-0.7V66.4c0-0.5-0.3-0.8-0.8-0.8h-10.1c-0.6,0-1-0.1-1.2-0.4c-0.1-0.3,0.2-0.4,0.8-0.4h10.4
				c0.5,0,0.8-0.3,0.8-0.8V52.6c0-0.5-0.3-0.8-0.8-0.8h-9.5c-0.6,0-1-0.1-1.1-0.4c-0.2-0.3,0.1-0.5,0.6-0.5H409c0.5,0,1-0.3,1.6-1
				L411.7,48.6z M388.9,53.6c0.1-0.2,0.5-0.2,1.1,0c1.9,0.6,3.5,1.3,4.8,2.3c1.8,1.8,2.2,3.6,1.3,5.3c-1.2,1.9-2.4,2.3-3.6,1.3
				c-0.5-0.7-0.8-1.6-1-2.6c-0.3-1.7-1-3.4-2.1-5.2C389,54.2,388.8,53.8,388.9,53.6z M409.3,53.8c0.3-0.7,0.7-1,1.2-0.7l4.9,2.2
				c0.6,0.5,0.9,0.8,0.9,0.9c-0.1,0.2-0.3,0.4-0.7,0.5c-0.6,0.1-1,0.3-1.3,0.5c-2.6,2.4-5.2,4.4-7.7,5.8c-0.6,0.3-1,0.4-1.1,0.2
				c-0.1-0.2,0-0.7,0.4-1.3C407.3,59.1,408.5,56.4,409.3,53.8z"/>
			<path class="st4" d="M446.8,48.9c0-0.6,0.3-0.9,1-0.9l3.5,0.3c0.5,0,0.9,0.1,1.5,0.2c0.5,0.4,0.4,0.7-0.3,1.1
				c-0.6,0.1-0.8,0.8-0.6,2.1c0,0.5,0.3,0.8,0.8,0.8h5.1c0.5,0,1-0.3,1.6-1l1.1-1.4c0.6-0.7,1.1-0.8,1.8-0.2l2.2,1.8
				c0.6,0.5,0.7,0.8,0.5,1.1c-0.3,0.3-0.7,0.5-1.4,0.5h-10.8c-0.5,0-0.8,0.3-0.8,0.8v1.3c0,0.5,0.3,0.8,0.8,0.8h2.8
				c0.5,0.2,1.2-0.2,2.1-1.1c0.6-0.5,1.3-0.6,1.9-0.2l2.6,1.7c0.6,0.5,0.8,0.8,0.8,1c-0.1,0.1-0.3,0.3-0.6,0.5
				c-0.3,0.2-0.5,0.5-0.5,1v7.1c0,0.6-0.3,1-1,1.1c-1.1,0.1-2.2,0.3-3.4,0.5c-0.7,0.1-1.1-0.1-1.1-0.5c0-0.5-0.3-0.8-0.8-0.8h-2.5
				c-0.5,0-0.5,0.2,0.1,0.7c2.6,1.9,6.3,3.1,11.1,3.7c0.7,0.1,1.1,0.3,1.1,0.4c0,0.3-0.3,0.7-0.9,1.2c-0.9,1-1.5,2.3-1.8,3.9
				c-0.1,0.7-0.6,0.9-1.4,0.6c-1.9-0.8-3.6-1.8-5.2-3c-1.7-1.6-2.9-3.1-3.6-4.4c-0.4-0.9-0.6-1-0.6-0.3V77c0,0.6-0.3,1-1,1.1
				c-1,0.1-1.9,0.2-2.9,0.4c-0.8,0.1-1.2-0.2-1.2-0.8v-4.8c0-0.5-0.3-0.6-1-0.1c-2.9,1.9-6.2,3.4-10,4.4c-0.8,0.2-1.2,0.2-1.3-0.1
				c-0.2-0.2,0.1-0.5,0.8-0.9c4.1-2,7.3-4.9,9.6-8.9c0.3-0.5,0.2-0.8-0.3-0.8H443c-0.5,0-0.8,0.2-0.8,0.6c0,0.4-0.3,0.7-1,0.8
				l-3.2,0.5c-0.6,0.1-1-0.2-1-0.8v-12c0-0.6,0.3-0.9,1-0.7l3.5,1.2c0.4,0.1,0.8,0.2,1.3,0.2h3c0.5,0,0.8-0.3,0.8-0.8v-1.3
				c0-0.5-0.3-0.8-0.8-0.8h-10.1c-0.6,0-1-0.1-1.1-0.4c-0.2-0.3,0-0.5,0.6-0.5h10.6c0.5,0,0.8-0.3,0.8-0.8L446.8,48.9L446.8,48.9z
				 M446.8,57.9c0-0.5-0.3-0.8-0.8-0.8h-2.9c-0.5,0-0.8,0.3-0.8,0.8V60c0,0.5,0.3,0.8,0.8,0.8h2.9c0.5,0,0.8-0.3,0.8-0.8V57.9z
				 M446.8,62.6c0-0.6-0.3-0.8-0.7-0.8h-3c-0.5,0-0.8,0.3-0.8,0.8v2.3c0,0.5,0.3,0.8,0.8,0.8h2.9c0.5,0,0.8-0.3,0.8-0.8V62.6z
				 M456.2,57.9c0-0.5-0.3-0.8-0.8-0.8h-2.8c-0.5,0-0.8,0.3-0.8,0.8V60c0,0.5,0.3,0.8,0.8,0.8h2.8c0.5,0,0.8-0.3,0.8-0.8V57.9z
				 M456.2,62.6c0-0.6-0.3-0.8-0.7-0.8h-2.8c-0.5,0-0.8,0.3-0.8,0.8v2.3c0,0.5,0.3,0.8,0.8,0.8h2.8c0.5,0,0.8-0.3,0.8-0.8
				L456.2,62.6L456.2,62.6z"/>
			<path class="st4" d="M498.1,48.6c0.1-0.6,0.4-0.9,1-0.7c1.6,0.4,3.2,0.8,4.8,1.3c0.8,0.4,0.7,0.8-0.3,1.2
				c-0.2,0.1-0.4,0.3-0.6,0.8c-0.2,0.5-0.1,0.8,0.4,0.8h1.9c0.5,0,1.1-0.3,1.6-0.9s1.2-0.6,1.8-0.2c0.8,0.5,1.5,1,2.3,1.5
				c0.7,0.4,1.1,0.7,1.3,1.1c-0.1,0.3-0.3,0.6-0.6,0.7c-0.3,0.1-0.5,0.4-0.7,0.8c-1,1.7-1.9,3.1-2.8,4.4c-0.5,0.5-0.3,0.9,0.3,1
				c1.1,0.3,2.3,0.5,3.5,0.6c0.7,0.1,1.1,0.3,1.1,0.5c0,0.2-0.3,0.7-0.9,1.3c-0.4,0.7-0.8,1.7-1,2.9c-0.1,0.8-0.5,1-1.2,0.7
				c-1.5-0.5-3.2-1.3-4.9-2.4c-0.6-0.4-1.3-0.5-1.9-0.1c-1.3,0.7-2.7,1.3-4.5,1.9c-0.6,0.2-0.6,0.4-0.1,0.6l1.7,0.6
				c0.6,0.2,1.1,0.3,1.5,0.3h3.1c0.5,0,1.1-0.3,1.7-0.9c0.6-0.6,1.2-0.6,1.9-0.2c0.8,0.5,1.5,1,2.3,1.5c1.1,0.5,1.2,1,0.5,1.6
				c-0.2,0.1-0.3,0.4-0.3,0.9v6.6c0,0.6-0.3,1-1,1.1l-3.3,0.4c-0.7,0.1-1-0.2-1-0.8v-0.7c0-0.5-0.3-0.8-0.8-0.8h-2.9
				c-0.5,0-0.8,0.3-0.8,0.9c0,0.6-0.3,1-1,1.1l-2.9,0.4c-0.8,0.1-1.2-0.2-1.2-0.8v-5.8c0-0.5-0.3-0.6-1-0.3l-10,5.3
				c-0.3,0.6-0.6,1-0.9,1.2c-0.3,0.1-0.6-0.2-0.8-0.8l-1-4.5c-0.1-0.6,0-1,0.3-1c0.4,0,0.6-0.3,0.6-0.7v-7.5c0-0.6,0.3-1,1-0.9
				l2.3,0.1c0.8,0.1,1.3,0.2,1.4,0.3c0,0.1-0.1,0.3-0.3,0.5c-0.2,0.1-0.4,0.4-0.4,1v6.2c0,0.5,0.2,0.8,0.5,0.8
				c0.3-0.1,0.5-0.4,0.5-0.9v-9.2c0-0.5-0.3-0.7-1-0.7c-0.9,0.1-1.8,0.2-2.6,0.4c-0.7,0.1-1-0.1-1-0.8V49.6c0-0.6,0.3-0.9,1-0.7
				c0.8,0.2,1.5,0.5,2.3,0.8c0.8,0.4,1.9,0.6,3.3,0.4c0.5,0,1.1-0.3,1.7-0.9c0.6-0.5,1.2-0.5,1.9-0.1l1.7,1.1
				c1.2,0.5,1.5,1.1,0.7,1.6c-0.3,0.1-0.5,0.5-0.5,1v5.1c0,0.7,0.1,0.7,0.5,0C497.1,55.5,497.8,52.3,498.1,48.6z M491,51.9
				c0-0.6-0.2-0.9-0.7-0.9h-1.2c-0.5,0-0.8,0.3-0.8,0.8v5.7c0,0.5,0.3,0.8,0.8,0.8h1.2c0.5,0,0.8-0.3,0.8-0.8V51.9z M500.3,58
				c-0.2-0.6-0.6-0.6-1.1,0c-1,1.1-2,2-3.1,2.7c-0.6,0.4-1,0.5-1.1,0.4c-0.1-0.1,0-0.3,0.1-0.6c0.1-0.3-0.2-0.3-0.8-0.2l-0.8,0.1
				c-0.6,0.1-0.8,0.3-0.8,0.8v2.3c0,0.5,0,0.8,0.2,0.8c0.1,0,0.4-0.3,0.8-0.9l0.4-0.6c0.4-0.6,0.9-0.7,1.5-0.1l0.6,0.7
				c0.7,0.7,1.2,0.9,1.6,0.8c1.4-1.1,2.5-2,3.3-2.8c0.4-0.5,0.4-1.1,0.1-1.7C500.8,59.1,500.5,58.6,500.3,58z M494.7,66.1
				c1.3-0.5,1.3-0.7,0.2-0.7h-1.4c-0.5,0-0.8,0.3-0.8,0.8V70c0,0.5,0.3,0.7,1,0.7l1.9-0.2c0.5-0.1,0.8-0.4,0.8-0.9v-2
				c0-0.5-0.3-0.7-1-0.6c-0.1,0-0.2,0.1-0.3,0c-0.8,0.1-1.2,0.1-1.2-0.1C493.7,66.6,494,66.4,494.7,66.1z M505.6,53.7
				c0.3-0.6,0.1-0.8-0.4-0.8h-2.1c-0.5,0-1,0.3-1.3,1l-0.7,1.4c-0.3,0.5-0.2,1,0.2,1.6c0.3,0.3,0.6,0.6,0.9,1c0.6,0.4,1,0.3,1.4-0.3
				C504.4,56.2,505.1,55,505.6,53.7z M505.8,69.1c0-0.6-0.3-0.8-0.7-0.8h-3c-0.5,0-0.8,0.3-0.8,0.8v5.3c0,0.5,0.3,0.8,0.8,0.8h2.9
				c0.5,0,0.8-0.3,0.8-0.8V69.1z"/>
		</g>
	</g>
	<g>
		<g>
			<path class="st4" d="M348.2,580.3c0.2-0.7,0.3-1.1,0.5-1.1c0.2,0.1,0.3,0.4,0.5,1.1c0.4,2,0.5,4,0.3,5.9
				c-0.1,0.8-0.5,1.3-1.3,1.8c-0.9,0.5-1.8,0.6-2.9,0.3c-0.6-0.1-1-0.6-1.4-1.3c-0.4-1.1,0.2-2.3,1.6-3.4
				C346.9,582.8,347.8,581.7,348.2,580.3z M356.1,560.9c0-0.7,0.3-1,0.9-1c1.6,0.1,3.2,0.2,4.8,0.3c0.6,0,1,0.1,1.4,0.5
				c0.1,0.3-0.2,0.6-0.8,1c-0.6,0.1-0.9,0.7-0.6,1.8c0,0.5,0.3,0.8,0.8,0.8h2.3c0.6,0.3,1.3-0.3,2.3-1.7c0.6-0.6,1.2-0.7,1.8-0.3
				l2.9,1.8c1.1,0.4,1.3,1,0.4,1.7c-0.5,0.4-0.8,0.9-0.8,1.3v6.8c0,0.6-0.3,1-1,1.1c-1.2,0.1-2.4,0.3-3.6,0.4c-0.6,0-1-0.3-1-0.9
				v-0.8c0-0.5-0.3-0.8-0.8-0.8h-2.5c-0.5,0-0.8,0.3-0.8,0.8v1.7c0,0.6-0.3,1-1,1.1l-3.5,0.5c-0.8,0.1-1.1-0.2-1.1-0.8v-2.5
				c0-0.5-0.3-0.8-0.8-0.8h-2.5c-0.5,0-0.8,0.3-0.8,1c0,0.7-0.3,1.1-1,1.2c-1.1,0.1-2.2,0.3-3.3,0.4c-0.7,0.1-1-0.2-1-0.8v-11.8
				c0-0.6,0.3-0.8,1-0.6l3.5,1.5c0.7,0.5,2,0.7,4,0.5c0.5,0,0.8-0.3,0.8-0.8L356.1,560.9L356.1,560.9z M351,578.6
				c0-0.7,0.3-1,0.9-0.9c1.1,0.1,2.3,0.2,3.5,0.3c0.6,0,1,0.1,1.4,0.3c0.3,0.2,0.2,0.6-0.2,1c-0.3,0.3-0.5,0.7-0.5,1.2
				c0,1.1,0,2.2,0.1,3.4c0.3,0.5,0.7,0.7,1.2,0.5h6.6c0.8-0.2,1.4-0.6,1.6-1.3l0.5-1.3c0.2-0.7,0.5-1,0.7-1c0.3,0,0.4,0.3,0.4,1
				c-0.1,1.3,0.3,2.3,1,2.9c0.2,0.1,0.3,0.5,0.2,1.1c-0.2,1-0.5,1.9-0.9,2.5c-1,1-1.9,1.5-2.9,1.3H353c-1.1-0.4-1.8-1.3-2-2.6
				L351,578.6L351,578.6z M356.1,566c0-0.5-0.3-0.8-0.8-0.8h-2.5c-0.5,0-0.8,0.3-0.8,0.8v5.3c0,0.5,0.3,0.8,0.8,0.8h2.5
				c0.5,0,0.8-0.3,0.8-0.8V566z M357.3,577.4c0.1-0.2,0.5-0.3,1-0.3c1.4,0,2.7,0.3,3.7,0.7c1,0.7,1.7,1.5,1.9,2.4
				c0.3,1.2,0,2.2-0.7,2.9c-0.7,0.6-1.4,0.7-2.3,0.4c-1.2-0.5-1.8-1.5-1.7-2.9c-0.1-0.6-0.4-1.3-0.9-1.9
				C357.5,578,357.2,577.6,357.3,577.4z M365.7,566c0-0.5-0.3-0.8-0.8-0.8h-2.5c-0.5,0-0.8,0.3-0.8,0.8v5.3c0,0.5,0.3,0.8,0.8,0.8
				h2.5c0.5,0,0.8-0.3,0.8-0.8V566z M367.3,579.1c0.1-0.1,0.5,0,1.1,0.2c1.8,0.6,3.4,1.3,4.8,2.3c1.7,1.8,2.2,3.5,1.2,5.2
				c-0.4,0.7-0.9,1.2-1.5,1.4c-1.1,0.5-1.9,0-2.4-1.3l-0.7-2.6c-0.3-1.3-0.9-2.5-1.9-3.9C367.3,579.7,367.1,579.2,367.3,579.1z"/>
			<path class="st4" d="M400.9,560.6c0-0.6,0.3-0.9,0.9-0.9c1.6,0,3.2,0.1,4.8,0.3c0.9,0.2,0.9,0.6,0,1.2c-0.3,0.1-0.4,0.4-0.4,0.9
				v0.8c0,0.5,0.2,0.8,0.6,0.8c0.5,0.2,1.2-0.3,2-1.6c0.6-0.6,1.2-0.7,1.8-0.2l1,0.7c0.6,0.5,1.1,0.5,1.5-0.1l0.5-0.7
				c0.5-0.7,1.1-0.8,1.7-0.4l3.5,2.3c0.6,0.6,0.9,0.9,0.9,1c0,0.3-0.3,0.4-0.6,0.5c-0.6,0.1-1,0.2-1.3,0.5l-3.2,2.8
				c-0.6,0.5-0.6,0.7-0.1,0.7h0.9c0.6,0.3,1.4-0.4,2.4-1.9c0.6-0.7,1.2-0.8,1.7-0.3l1.7,1.4c0.7,0.6,0.9,1,0.7,1.3
				c-0.2,0.3-0.7,0.5-1.3,0.5h-7.3c-0.5,0-1,0.2-1.4,0.5l-1.8,1.4c-0.5,0.4-0.5,0.6,0,0.6h1.5c0.5,0,1.1-0.3,1.6-0.9
				c0.6-0.6,1.2-0.7,1.9-0.3l2.9,2c0.7,0.3,1,0.8,0.7,1.3c-0.1,0.1-0.4,0.1-0.9,0.1c-0.5-0.1-1.2,0.1-2,0.6
				c-1.6,0.7-3.3,1.5-4.9,2.3c-0.2,0.1-0.3,0.3-0.5,0.5c-0.5,0.3-0.8,0.7-0.8,1.2c0,0.5,0.3,0.8,0.8,0.8h3.5c0.5,0,1-0.3,1.6-1
				l1-1.3c0.5-0.6,1.1-0.7,1.8-0.2l1.6,1.4c0.7,0.7,1,1.2,0.8,1.5c-0.2,0.3-0.6,0.4-1.3,0.4h-8.9c-0.5,0-0.8,0.3-0.8,0.8v6.6
				c-0.4,1.3-1.3,2-2.6,2.1c-0.8,0.1-1.6,0.2-2.4,0.2c-0.6,0-1-0.3-1.2-1c-0.4-1.4-1.3-2.4-2.6-3.1c-0.7-0.3-1-0.5-1-0.6
				c0-0.1,0.3-0.2,1-0.2h2.8c0.5,0,0.8-0.3,0.8-0.8v-3.3c0-0.5-0.3-0.8-0.8-0.8h-9.7c-0.6,0-1-0.1-1.2-0.3c-0.2-0.3,0.1-0.5,0.6-0.5
				h10.2c0.5,0,0.8-0.3,0.8-0.8v-1.6c0-0.6,0.3-1,1-0.9c0.9,0,1.8,0.1,2.7,0.2c0.5,0,1-0.3,1.7-0.9l1.8-2c0.5-0.5,0.4-0.8-0.1-0.8
				H409c-0.5,0-1,0.1-1.4,0.4c-3.9,2.3-8.9,4-14.9,5.4c-0.6,0.2-1,0.2-1,0.1c-0.1-0.2,0.3-0.4,1-0.8c2.4-1,5-2.3,7.7-3.9
				c0.8-0.5,1.3-0.8,1.5-1.1c-0.1-0.1-0.4-0.1-0.9-0.1h-5c-0.6,0-1-0.2-1.2-0.5c-0.1-0.3,0.2-0.5,0.8-0.5h7.1c0.5,0,1-0.2,1.4-0.5
				l1.6-1.3c0.5-0.5,0.5-0.7-0.1-0.7H393c-0.6,0-1-0.1-1.2-0.3c-0.2-0.3,0.1-0.5,0.7-0.5h7.6c0.5,0,0.8-0.3,0.8-0.8v-3
				c0-0.5-0.3-0.8-0.8-0.8H396c-0.6,0-1-0.1-1.2-0.3c-0.2-0.3,0.1-0.5,0.7-0.5h4.6c0.5,0,0.8-0.3,0.8-0.8L400.9,560.6L400.9,560.6z
				 M411,565.3c0.5-0.5,0.4-0.8-0.1-0.8h-3.8c-0.5,0-0.8,0.3-0.8,0.8v3c0,0.5,0.2,0.8,0.6,0.8s0.9-0.3,1.4-0.8
				C409.3,567.3,410.1,566.3,411,565.3z"/>
			<path class="st4" d="M466,560.9c0.6-0.7,1.2-0.8,1.8-0.3l1.5,1.3c0.7,0.6,1,1.1,0.8,1.4c-0.2,0.3-0.6,0.5-1.2,0.5h-7.6
				c-0.5,0-0.8,0.3-0.8,0.8v4.5c0,0.5,0.2,0.8,0.6,0.8c0.5,0.2,1.2-0.3,2-1.6c0.6-0.6,1.2-0.7,1.8-0.3l2.8,1.7
				c1,0.4,1.2,0.9,0.6,1.5c-0.5,0.5-0.8,1-0.8,1.5V589c0,0.6-0.3,1-1,1.1l-3.6,0.4c-0.6,0.1-1-0.2-1-0.9v-1c0-0.5-0.3-0.8-0.8-0.8
				h-13.8c-0.5,0-0.8,0.3-0.8,0.8v0.7c0,0.6-0.3,1-1,1.1l-3.3,0.4c-0.7,0.1-1-0.2-1-0.8v-21.6c0-0.6,0.3-0.8,1-0.6l3.5,1.5
				c0.7,0.4,1.2,0.6,1.5,0.5c0.3,0,0.5-0.3,0.5-0.8v-4.5c0-0.5-0.3-0.8-0.8-0.8h-6.3c-0.6,0-1-0.2-1.2-0.5c-0.1-0.3,0.2-0.5,0.8-0.5
				h23.2c0.5,0,1-0.3,1.6-1L466,560.9z M455.2,571.5c0-0.6-0.3-0.8-1-0.8c-0.7,0-1.1,0.3-1.1,1c0,3-0.5,5.7-1.3,8
				c-0.8,1.9-2.3,3.4-4.3,4.7c-0.5,0.3-0.8,0.8-0.8,1.5c0,0.7,0.3,1.1,0.8,1.1h13.8c0.5,0,0.8-0.3,0.8-0.8v-1.7
				c0-0.5-0.3-0.8-0.8-0.8h-2.8c-1.8,0.2-2.9-0.8-3.3-2.8L455.2,571.5L455.2,571.5z M448.5,571.5c0-0.6-0.3-0.8-0.9-0.8
				c-0.6,0-0.9,0.3-0.9,0.8V582c0,0.7,0.2,0.7,0.5,0C448.2,579.4,448.6,575.9,448.5,571.5z M455.1,564.6c0-0.6-0.3-0.8-0.9-0.8
				c-0.6,0-0.9,0.3-0.9,0.8v4.5c0,0.5,0.3,0.8,0.9,0.8c0.6,0,0.9-0.3,0.9-0.8V564.6z M462.1,571.5c0-0.6-0.3-0.8-1-0.8
				c-0.7,0-1.1,0.3-1.1,0.8v6.6c0.1,0.7,0.6,1,1.3,0.9c0.5,0,0.8-0.3,0.8-0.8L462.1,571.5L462.1,571.5z"/>
			<path class="st4" d="M503.3,560.6c0.1-0.6,0.4-0.9,1-0.7c1.6,0.4,3.2,0.8,4.8,1.3c0.8,0.4,0.7,0.8-0.3,1.2
				c-0.2,0.1-0.4,0.3-0.6,0.8c-0.2,0.5-0.1,0.8,0.4,0.8h1.9c0.5,0,1.1-0.3,1.6-0.9c0.6-0.6,1.2-0.6,1.8-0.2c0.8,0.5,1.5,1,2.3,1.5
				c0.7,0.4,1.1,0.7,1.3,1.1c-0.1,0.3-0.3,0.6-0.6,0.7c-0.3,0.1-0.5,0.4-0.7,0.8c-1,1.7-1.9,3.2-2.8,4.4c-0.4,0.5-0.3,0.9,0.3,1
				c1.1,0.3,2.3,0.5,3.5,0.6c0.7,0.1,1.1,0.3,1.1,0.5c0,0.2-0.3,0.7-0.9,1.3c-0.4,0.7-0.8,1.7-1,2.9c-0.1,0.8-0.5,1-1.2,0.7
				c-1.5-0.5-3.2-1.3-4.9-2.4c-0.6-0.5-1.3-0.5-1.9-0.1c-1.3,0.7-2.7,1.3-4.5,1.9c-0.6,0.2-0.6,0.3-0.1,0.5l1.7,0.6
				c0.6,0.2,1.1,0.3,1.5,0.3h3.1c0.5,0,1.1-0.3,1.7-0.9c0.6-0.6,1.2-0.6,1.9-0.2c0.8,0.5,1.5,1,2.3,1.5c1.1,0.5,1.3,1,0.5,1.6
				c-0.2,0.1-0.3,0.4-0.3,0.9v6.6c0,0.6-0.3,1-1,1.1l-3.3,0.5c-0.7,0.1-1-0.2-1-0.8v-0.7c0-0.5-0.3-0.8-0.8-0.8h-2.9
				c-0.5,0-0.8,0.3-0.8,0.9c0,0.6-0.3,1-1,1.1l-2.9,0.5c-0.8,0.1-1.2-0.2-1.2-0.8v-5.8c0-0.5-0.3-0.6-1-0.3l-10,5.3
				c-0.3,0.6-0.6,1-0.9,1.2c-0.3,0.1-0.6-0.2-0.8-0.8l-1-4.5c-0.1-0.6,0-1,0.3-1c0.4,0,0.6-0.3,0.6-0.7v-7.5c0-0.6,0.3-1,1-0.9
				l2.3,0.1c0.8,0.1,1.3,0.2,1.4,0.3c0,0.1-0.1,0.3-0.3,0.5c-0.2,0.1-0.4,0.5-0.4,1v6.2c0,0.5,0.2,0.8,0.5,0.8
				c0.3-0.1,0.5-0.3,0.5-0.9v-9.2c0-0.5-0.3-0.7-1-0.7c-0.9,0.1-1.8,0.2-2.6,0.3c-0.7,0.1-1-0.2-1-0.8v-10.6c0-0.6,0.3-0.9,1-0.7
				c0.8,0.2,1.5,0.5,2.3,0.8c0.8,0.5,1.9,0.6,3.3,0.5c0.5,0,1.1-0.3,1.7-0.9c0.6-0.5,1.2-0.5,1.9-0.1l1.7,1.1
				c1.2,0.5,1.5,1.1,0.7,1.6c-0.3,0.2-0.5,0.5-0.5,1v5.1c0,0.7,0.1,0.7,0.5,0C502.3,567.5,502.9,564.4,503.3,560.6z M496.1,563.9
				c0-0.6-0.2-0.9-0.7-0.9h-1.2c-0.5,0-0.8,0.3-0.8,0.8v5.7c0,0.5,0.3,0.8,0.8,0.8h1.2c0.5,0,0.8-0.3,0.8-0.8V563.9z M505.4,570
				c-0.2-0.6-0.6-0.6-1.1,0c-1,1.1-2,2-3.1,2.7c-0.6,0.4-1,0.5-1.1,0.4c-0.1-0.1,0-0.3,0.1-0.5c0.1-0.3-0.2-0.3-0.8-0.2l-0.8,0.1
				c-0.6,0.1-0.8,0.3-0.8,0.8v2.3c0,0.5,0,0.8,0.2,0.8c0.1,0,0.4-0.3,0.8-0.9l0.4-0.6c0.4-0.6,0.9-0.7,1.5-0.1l0.6,0.7
				c0.7,0.7,1.2,1,1.6,0.8c1.4-1.1,2.5-2,3.3-2.8c0.4-0.5,0.4-1.1,0.1-1.7C505.9,571.2,505.7,570.6,505.4,570z M499.8,578.1
				c1.3-0.5,1.3-0.7,0.2-0.7h-1.4c-0.5,0-0.8,0.3-0.8,0.8v3.8c0,0.5,0.3,0.7,1,0.7l1.9-0.2c0.5-0.1,0.8-0.4,0.8-0.9v-2
				c0-0.5-0.3-0.7-1-0.6c-0.1,0-0.2,0-0.3,0c-0.8,0.2-1.2,0.1-1.2-0.1C498.9,578.7,499.2,578.4,499.8,578.1z M510.8,565.7
				c0.3-0.6,0.1-0.8-0.4-0.8h-2.1c-0.5,0-1,0.3-1.3,1l-0.7,1.4c-0.3,0.5-0.2,1,0.2,1.5c0.3,0.3,0.6,0.6,0.9,1c0.6,0.4,1,0.3,1.4-0.3
				C509.6,568.2,510.2,567,510.8,565.7z M511,581.2c0-0.6-0.3-0.8-0.7-0.8h-3c-0.5,0-0.8,0.3-0.8,0.8v5.3c0,0.5,0.3,0.8,0.8,0.8h2.9
				c0.5,0,0.8-0.3,0.8-0.8V581.2z"/>
		</g>
	</g>
</g>
<g id="D05">
	<g>
		<path class="st4" d="M317.5,432.3c-1.9,0-3.7-0.9-4.9-2.4c-0.2,0-0.5,0.1-0.7,0.1c-1.4,0-2.8-0.7-3.6-1.8c-0.3-0.5-0.6-1-0.7-1.5
			c-0.5-0.3-0.9-0.7-1.2-1.1c-0.3-0.5-0.6-1-0.7-1.5c-0.5-0.3-0.9-0.7-1.2-1.1c-0.3-0.5-0.6-1-0.7-1.5c-0.5-0.3-0.9-0.7-1.2-1.1
			c-0.3-0.5-0.6-1-0.7-1.5c-0.5-0.3-0.9-0.7-1.2-1.1c-0.3-0.5-0.6-1-0.7-1.5c-0.5-0.3-0.9-0.7-1.2-1.2c-0.3-0.5-0.6-1-0.7-1.5
			c-0.5-0.3-0.9-0.7-1.2-1.1c-1-1.4-1-3.2-0.3-4.7l-3.2-4.6l-7.8,5.5l1.7,2.4l-2.3,1.6c-1.5,1-3.2,1.6-4.9,1.6c-2.8,0-5.4-1.3-7-3.6
			c-1.3-1.9-1.8-4.1-1.5-6.4c0.4-2.2,1.6-4.2,3.5-5.5l2.3-1.6l1.7,2.4l7.8-5.5l-41.6-58.6c-2-2.8-1.3-6.7,1.5-8.7
			c1.1-0.8,2.3-1.1,3.6-1.1c2,0,3.9,1,5.1,2.6l51.3,72.2c0.2,0,0.5-0.1,0.7-0.1c1.4,0,2.8,0.7,3.6,1.9c0.3,0.5,0.6,1,0.7,1.5
			c0.5,0.3,0.9,0.7,1.2,1.1c0.3,0.5,0.6,1,0.7,1.5c0.5,0.3,0.9,0.7,1.2,1.1c0.3,0.5,0.6,1,0.7,1.5c0.5,0.3,0.9,0.7,1.2,1.1
			c0.3,0.5,0.6,1,0.7,1.5c0.5,0.3,0.9,0.7,1.2,1.2c0.3,0.5,0.6,1,0.7,1.5c0.5,0.3,0.9,0.7,1.2,1.1c0.3,0.5,0.6,1,0.7,1.5
			c0.5,0.3,0.9,0.7,1.2,1.1c1,1.4,1,3.2,0.3,4.7c1.8,2.8,1.1,6.5-1.6,8.4C320.1,431.9,318.8,432.3,317.5,432.3L317.5,432.3z"/>
	</g>
	<g>
		<path class="st13" d="M248.4,328.7c-1.6,1.1-1.9,3.3-0.8,4.8l43.2,60.9l-12.3,8.7l3.2,4.5L294,399l20.7,29.1
			c1.1,1.6,3.3,1.9,4.8,0.8s1.9-3.3,0.8-4.8l-20.7-29.1l-3.2-4.5l-43.2-60.9C252.1,328,250,327.6,248.4,328.7z"/>
		<path class="st14" d="M276.8,400.7c-2.6,1.8-3.2,5.4-1.4,8s5.4,3.2,8,1.4L276.8,400.7z"/>
		<path class="st14" d="M310.7,406.2c-0.5-0.7-1.6-0.9-2.3-0.4c0.7-0.5,0.9-1.6,0.4-2.3c-0.5-0.7-1.6-0.9-2.3-0.4l-7,5
			c-0.7,0.5-0.9,1.6-0.4,2.3c0.5,0.7,1.6,0.9,2.3,0.4c-0.7,0.5-0.9,1.6-0.4,2.3c0.5,0.7,1.6,0.9,2.3,0.4c-0.7,0.5-0.9,1.6-0.4,2.3
			c0.5,0.7,1.6,0.9,2.3,0.4c-0.7,0.5-0.9,1.6-0.4,2.3c0.5,0.7,1.6,0.9,2.3,0.4c-0.7,0.5-0.9,1.6-0.4,2.3c0.5,0.7,1.6,0.9,2.3,0.4
			c-0.7,0.5-0.9,1.6-0.4,2.3s1.6,0.9,2.3,0.4c-0.7,0.5-0.9,1.6-0.4,2.3c0.5,0.7,1.6,0.9,2.3,0.4l7-5c0.7-0.5,0.9-1.6,0.4-2.3
			s-1.6-0.9-2.3-0.4c0.7-0.5,0.9-1.6,0.4-2.3c-0.5-0.7-1.6-0.9-2.3-0.4c0.7-0.5,0.9-1.6,0.4-2.3c-0.5-0.7-1.6-0.9-2.3-0.4
			c0.7-0.5,0.9-1.6,0.4-2.3c-0.5-0.7-1.6-0.9-2.3-0.4c0.7-0.5,0.9-1.6,0.4-2.3c-0.5-0.7-1.6-0.9-2.3-0.4
			C311.1,408,311.3,407,310.7,406.2z"/>
		<path class="st13" d="M320.4,424.1L299.7,395l-3.2-4.5l-43.2-60.9c-1.1-1.6-3.3-1.9-4.8-0.8l71.2,100.2
			C321.1,427.8,321.5,425.6,320.4,424.1z"/>
		<path class="st14" d="M308.8,403.6c-0.5-0.7-1.7-0.8-2.5-0.2l-4.2,3l13.3,18.8l4.2-3c0.9-0.6,1.2-1.7,0.7-2.5s-1.7-0.8-2.5-0.2
			c0.9-0.6,1.2-1.7,0.7-2.5c-0.5-0.7-1.7-0.8-2.5-0.2c0.9-0.6,1.2-1.7,0.7-2.5c-0.5-0.7-1.7-0.8-2.5-0.2c0.9-0.6,1.2-1.7,0.7-2.5
			c-0.5-0.7-1.7-0.8-2.5-0.2c0.9-0.6,1.2-1.7,0.7-2.5c-0.5-0.7-1.7-0.8-2.5-0.2c0.9-0.6,1.2-1.7,0.7-2.5c-0.5-0.7-1.7-0.8-2.5-0.2
			C309.1,405.4,309.4,404.3,308.8,403.6z"/>
	</g>
</g>
<g id="D04">
	<g>
		<path class="st4" d="M357.1,527.4c-7.2,0-13.3-5-15-11.6h-14.9c-0.7,0.9-1.8,1.5-3,1.5H299c-1.2,0-2.3-0.6-3-1.5h-24.5
			c-1.7,6.7-7.8,11.6-15,11.6s-13.3-5-15-11.6h-4.4c-2.1,0-3.8-1.7-3.8-3.8v-28.4c0-0.6,0.2-1.2,0.4-1.8l15-28.4c0.7-1.2,2-2,3.3-2
			h23.5v-10.7h-7.4c-2.1,0-3.8-1.7-3.8-3.8v-9.8c0-2.1,1.7-3.8,3.8-3.8h21c2.1,0,3.8,1.7,3.8,3.8v13.8h71.2c1.7,0,3.3,1.2,3.7,2.8
			l10,38.9c0.3,1,0.1,2.2-0.5,3l-8,11.9h9.4c2.1,0,3.8,1.7,3.8,3.8V512c0,2.1-1.7,3.8-3.8,3.8H372
			C370.3,522.5,364.3,527.4,357.1,527.4z"/>
	</g>
	<g>
		<rect x="279.5" y="501.5" class="st13" width="99.3" height="10.5"/>
		<polygon class="st13" points="279.5,501.5 279.5,455.3 252.1,455.3 237.1,483.6 237.1,512 267.2,512 279.5,512 311.6,512 
			311.6,501.5 		"/>
		<polygon class="st14" points="271.8,486.5 247.1,486.5 247.1,479.2 256.3,460.9 271.8,460.9 		"/>
		<rect x="299" y="499.2" class="st13" width="25.3" height="14.3"/>
		<g>
			<circle class="st14" cx="256.5" cy="512" r="11.6"/>
			<circle class="st13" cx="256.5" cy="512" r="5.2"/>
		</g>
		<g>
			<circle class="st14" cx="357.1" cy="512" r="11.6"/>
			<circle class="st13" cx="357.1" cy="512" r="5.2"/>
		</g>
		<polygon class="st14" points="364.3,444.7 289.3,444.7 289.3,434.3 289.3,434.3 289.3,427.1 268.3,427.1 268.3,436.9 279.5,436.9 
			279.5,444.7 279.5,464.2 279.5,501.5 362.3,501.5 374.3,483.6 		"/>
		<rect x="288.7" y="451.4" class="st13" width="6" height="44.7"/>
		<rect x="301.6" y="451.4" class="st13" width="6" height="44.7"/>
		<rect x="314.5" y="451.4" class="st13" width="6" height="44.7"/>
		<rect x="327.5" y="451.4" class="st13" width="6" height="44.7"/>
		<rect x="340.4" y="451.4" class="st13" width="6" height="44.7"/>
		<rect x="353.3" y="451.4" class="st13" width="6" height="44.7"/>
	</g>
</g>
<g id="D01-3">
	<g>
		<path class="st4" d="M443.3,528.9c-1.9,0-3.7-0.9-4.9-2.4c-0.2,0-0.5,0.1-0.7,0.1c-1.4,0-2.8-0.7-3.6-1.8c-0.3-0.5-0.6-1-0.7-1.5
			c-0.5-0.3-0.9-0.7-1.2-1.2c-0.3-0.5-0.6-1-0.7-1.5c-0.5-0.3-0.9-0.7-1.2-1.2c-0.3-0.5-0.6-1-0.7-1.5c-0.5-0.3-0.9-0.7-1.2-1.2
			c-0.3-0.5-0.6-1-0.7-1.5c-0.5-0.3-0.9-0.7-1.2-1.2c-0.3-0.5-0.6-1-0.7-1.5c-0.5-0.3-0.9-0.7-1.2-1.2c-0.3-0.5-0.6-1-0.7-1.5
			c-0.5-0.3-0.9-0.7-1.2-1.2c-1-1.4-1-3.2-0.3-4.7l-3.2-4.6l-7.8,5.5l1.7,2.4l-2.3,1.6c-1.5,1-3.2,1.6-4.9,1.6c-2.8,0-5.4-1.3-7-3.6
			c-1.3-1.9-1.8-4.1-1.5-6.4c0.4-2.2,1.6-4.2,3.5-5.5l2.3-1.6l1.7,2.4l7.8-5.5l-41.6-58.6c-2-2.8-1.3-6.7,1.5-8.7
			c1.1-0.8,2.3-1.1,3.6-1.1c2,0,3.9,1,5.1,2.6l51.3,72.2c0.2,0,0.5-0.1,0.7-0.1c1.4,0,2.8,0.7,3.6,1.8c0.3,0.5,0.6,1,0.7,1.5
			c0.5,0.3,0.9,0.7,1.2,1.2c0.3,0.5,0.6,1,0.7,1.5c0.5,0.3,0.9,0.7,1.2,1.2c0.3,0.5,0.6,1,0.7,1.5c0.5,0.3,0.9,0.7,1.2,1.2
			c0.3,0.5,0.6,1,0.7,1.5c0.5,0.3,0.9,0.7,1.2,1.2c0.3,0.5,0.6,1,0.7,1.5c0.5,0.3,0.9,0.7,1.2,1.2c0.3,0.5,0.6,1,0.7,1.5
			c0.5,0.3,0.9,0.7,1.2,1.2c1,1.4,1,3.2,0.3,4.7c1.8,2.8,1.1,6.5-1.6,8.4C445.8,528.5,444.6,528.9,443.3,528.9L443.3,528.9z"/>
	</g>
	<g>
		<path class="st13" d="M374.1,425.3c-1.6,1.1-1.9,3.3-0.8,4.8l43.2,60.9l-12.3,8.7l3.2,4.5l12.3-8.7l20.7,29.1
			c1.1,1.6,3.3,1.9,4.8,0.8c1.6-1.1,1.9-3.3,0.8-4.8l-20.7-29.1l-3.2-4.5L379,426.1C377.9,424.5,375.7,424.2,374.1,425.3z"/>
		<path class="st14" d="M402.5,497.3c-2.6,1.8-3.2,5.4-1.4,8s5.4,3.2,8,1.4L402.5,497.3z"/>
		<path class="st14" d="M436.5,502.8c-0.5-0.7-1.6-0.9-2.3-0.4c0.7-0.5,0.9-1.6,0.4-2.3c-0.5-0.7-1.6-0.9-2.3-0.4l-7,5
			c-0.7,0.5-0.9,1.6-0.4,2.3c0.5,0.7,1.6,0.9,2.3,0.4c-0.7,0.5-0.9,1.6-0.4,2.3c0.5,0.7,1.6,0.9,2.3,0.4c-0.7,0.5-0.9,1.6-0.4,2.3
			c0.5,0.7,1.6,0.9,2.3,0.4c-0.7,0.5-0.9,1.6-0.4,2.3c0.5,0.7,1.6,0.9,2.3,0.4c-0.7,0.5-0.9,1.6-0.4,2.3c0.5,0.7,1.6,0.9,2.3,0.4
			c-0.7,0.5-0.9,1.6-0.4,2.3s1.6,0.9,2.3,0.4c-0.7,0.5-0.9,1.6-0.4,2.3s1.6,0.9,2.3,0.4l7-5c0.7-0.5,0.9-1.6,0.4-2.3
			c-0.5-0.7-1.6-0.9-2.3-0.4c0.7-0.5,0.9-1.6,0.4-2.3c-0.5-0.7-1.6-0.9-2.3-0.4c0.7-0.5,0.9-1.6,0.4-2.3c-0.5-0.7-1.6-0.9-2.3-0.4
			c0.7-0.5,0.9-1.6,0.4-2.3c-0.5-0.7-1.6-0.9-2.3-0.4c0.7-0.5,0.9-1.6,0.4-2.3c-0.5-0.7-1.6-0.9-2.3-0.4
			C436.8,504.6,437,503.5,436.5,502.8z"/>
		<path class="st13" d="M446.1,520.6l-20.7-29.1l-3.2-4.5L379,426.1c-1.1-1.6-3.3-1.9-4.8-0.8l71.2,100.2
			C446.9,524.4,447.2,522.2,446.1,520.6z"/>
		<path class="st14" d="M434.6,500.1c-0.5-0.7-1.7-0.8-2.5-0.2l-4.2,3l13.3,18.8l4.2-3c0.9-0.6,1.2-1.7,0.7-2.5
			c-0.5-0.7-1.7-0.8-2.5-0.2c0.9-0.6,1.2-1.7,0.7-2.5c-0.5-0.7-1.7-0.8-2.5-0.2c0.9-0.6,1.2-1.7,0.7-2.5c-0.5-0.7-1.7-0.8-2.5-0.2
			c0.9-0.6,1.2-1.7,0.7-2.5c-0.5-0.7-1.7-0.8-2.5-0.2c0.9-0.6,1.2-1.7,0.7-2.5c-0.5-0.7-1.7-0.8-2.5-0.2c0.9-0.6,1.2-1.7,0.7-2.5
			c-0.5-0.7-1.7-0.8-2.5-0.2C434.8,502,435.1,500.8,434.6,500.1z"/>
	</g>
</g>
<g id="C01">
	<g>
		<path class="st4" d="M457.6,428.3c-1.9,0-3.7-0.9-4.9-2.4c-0.2,0-0.5,0.1-0.7,0.1c-1.4,0-2.8-0.7-3.6-1.8c-0.3-0.5-0.6-1-0.7-1.5
			c-0.5-0.3-0.9-0.7-1.2-1.2c-0.3-0.5-0.6-1-0.7-1.5c-0.5-0.3-0.9-0.7-1.2-1.2c-0.3-0.5-0.6-1-0.7-1.5c-0.5-0.3-0.9-0.7-1.2-1.2
			c-0.3-0.5-0.6-1-0.7-1.5c-0.5-0.3-0.9-0.7-1.2-1.1c-0.3-0.5-0.6-1-0.7-1.5c-0.5-0.3-0.9-0.7-1.2-1.2c-0.3-0.5-0.6-1-0.7-1.5
			c-0.5-0.3-0.9-0.7-1.2-1.1c-1-1.4-1-3.2-0.3-4.7l-3.2-4.6l-7.8,5.5l1.7,2.4l-2.3,1.6c-1.5,1-3.1,1.6-4.9,1.6c-2.8,0-5.4-1.3-7-3.6
			c-1.3-1.9-1.8-4.1-1.5-6.4c0.4-2.2,1.6-4.2,3.5-5.5l2.3-1.6l1.7,2.4l7.8-5.5l-41.6-58.6c-2-2.8-1.3-6.7,1.5-8.7
			c1.1-0.8,2.3-1.1,3.6-1.1c2,0,3.9,1,5.1,2.6l51.3,72.2c0.2,0,0.5-0.1,0.7-0.1c1.4,0,2.8,0.7,3.6,1.9c0.3,0.5,0.6,1,0.7,1.5
			c0.5,0.3,0.9,0.7,1.2,1.1c0.3,0.5,0.6,1,0.7,1.5c0.5,0.3,0.9,0.7,1.2,1.1c0.3,0.5,0.6,1,0.7,1.5c0.5,0.3,0.9,0.7,1.2,1.1
			c0.3,0.5,0.6,1,0.7,1.5c0.5,0.3,0.9,0.7,1.2,1.2c0.3,0.5,0.6,1,0.7,1.5c0.5,0.3,0.9,0.7,1.2,1.1c0.3,0.5,0.6,1,0.7,1.5
			c0.5,0.3,0.9,0.7,1.2,1.1c1,1.4,1,3.2,0.3,4.7c1.8,2.8,1.1,6.5-1.6,8.4C460.1,427.9,458.9,428.3,457.6,428.3L457.6,428.3z"/>
	</g>
	<g>
		<path class="st13" d="M388.4,324.7c-1.6,1.1-1.9,3.3-0.8,4.8l43.2,60.9l-12.3,8.7l3.2,4.5l12.3-8.7l20.7,29.1
			c1.1,1.6,3.3,1.9,4.8,0.8s1.9-3.3,0.8-4.8l-20.7-29.1l-3.2-4.5l-43.2-60.9C392.2,324,390,323.6,388.4,324.7z"/>
		<path class="st14" d="M416.9,396.7c-2.6,1.8-3.2,5.4-1.4,8c1.8,2.6,5.4,3.2,8,1.4L416.9,396.7z"/>
		<path class="st14" d="M450.8,402.2c-0.5-0.7-1.6-0.9-2.3-0.4c0.7-0.5,0.9-1.6,0.4-2.3c-0.5-0.7-1.6-0.9-2.3-0.4l-7,5
			c-0.7,0.5-0.9,1.6-0.4,2.3c0.5,0.7,1.6,0.9,2.3,0.4c-0.7,0.5-0.9,1.6-0.4,2.3c0.5,0.7,1.6,0.9,2.3,0.4c-0.7,0.5-0.9,1.6-0.4,2.3
			s1.6,0.9,2.3,0.4c-0.7,0.5-0.9,1.6-0.4,2.3c0.5,0.7,1.6,0.9,2.3,0.4c-0.7,0.5-0.9,1.6-0.4,2.3c0.5,0.7,1.6,0.9,2.3,0.4
			c-0.7,0.5-0.9,1.6-0.4,2.3c0.5,0.7,1.6,0.9,2.3,0.4c-0.7,0.5-0.9,1.6-0.4,2.3c0.5,0.7,1.6,0.9,2.3,0.4l7-5
			c0.7-0.5,0.9-1.6,0.4-2.3c-0.5-0.7-1.6-0.9-2.3-0.4c0.7-0.5,0.9-1.6,0.4-2.3c-0.5-0.7-1.6-0.9-2.3-0.4c0.7-0.5,0.9-1.6,0.4-2.3
			c-0.5-0.7-1.6-0.9-2.3-0.4c0.7-0.5,0.9-1.6,0.4-2.3c-0.5-0.7-1.6-0.9-2.3-0.4c0.7-0.5,0.9-1.6,0.4-2.3c-0.5-0.7-1.6-0.9-2.3-0.4
			C451.1,404,451.3,403,450.8,402.2z"/>
		<path class="st13" d="M460.4,420.1L439.7,391l-3.2-4.5l-43.2-60.9c-1.1-1.6-3.3-1.9-4.8-0.8l71.2,100.2
			C461.2,423.8,461.5,421.6,460.4,420.1z"/>
		<path class="st14" d="M448.9,399.6c-0.5-0.7-1.7-0.8-2.5-0.2l-4.2,3l13.3,18.8l4.2-3c0.9-0.6,1.2-1.7,0.6-2.5
			c-0.5-0.7-1.7-0.8-2.5-0.2c0.9-0.6,1.2-1.7,0.6-2.5c-0.5-0.7-1.7-0.8-2.5-0.2c0.9-0.6,1.2-1.7,0.6-2.5c-0.5-0.7-1.7-0.8-2.5-0.2
			c0.9-0.6,1.2-1.7,0.6-2.5c-0.5-0.7-1.7-0.8-2.5-0.2c0.9-0.6,1.2-1.7,0.6-2.5c-0.5-0.7-1.7-0.8-2.5-0.2c0.9-0.6,1.2-1.7,0.6-2.5
			c-0.5-0.7-1.7-0.8-2.5-0.2C449.1,401.4,449.4,400.3,448.9,399.6z"/>
	</g>
</g>
<g id="B06">
	<g>
		<path class="st4" d="M421.4,277.3c-1.9,0-3.7-0.9-4.9-2.4c-0.2,0-0.5,0.1-0.7,0.1c-1.4,0-2.8-0.7-3.6-1.9c-0.3-0.5-0.6-1-0.7-1.5
			c-0.5-0.3-0.9-0.7-1.2-1.1c-0.3-0.5-0.6-1-0.7-1.5c-0.5-0.3-0.9-0.7-1.2-1.1c-0.3-0.5-0.6-1-0.7-1.5c-0.5-0.3-0.9-0.7-1.2-1.1
			c-0.3-0.5-0.6-1-0.7-1.5c-0.5-0.3-0.9-0.7-1.2-1.1c-0.3-0.5-0.6-1-0.7-1.5c-0.5-0.3-0.9-0.7-1.2-1.2c-0.3-0.5-0.6-1-0.7-1.5
			c-0.5-0.3-0.9-0.7-1.2-1.1c-1-1.4-1-3.2-0.3-4.7l-3.2-4.6l-7.8,5.5l1.7,2.4l-2.3,1.6c-1.5,1-3.2,1.6-4.9,1.6c-2.8,0-5.4-1.3-7-3.6
			c-1.3-1.9-1.8-4.1-1.5-6.4c0.4-2.2,1.6-4.2,3.5-5.5l2.3-1.6l1.7,2.4l7.8-5.5l-41.6-58.6c-2-2.8-1.3-6.7,1.5-8.7
			c1.1-0.8,2.3-1.1,3.6-1.1c2,0,3.9,1,5.1,2.6l51.3,72.2c0.2,0,0.5-0.1,0.7-0.1c1.4,0,2.8,0.7,3.6,1.9c0.3,0.5,0.6,1,0.7,1.5
			c0.5,0.3,0.9,0.7,1.2,1.1c0.3,0.5,0.6,1,0.7,1.5c0.5,0.3,0.9,0.7,1.2,1.1c0.3,0.5,0.6,1,0.7,1.5c0.5,0.3,0.9,0.7,1.2,1.1
			c0.3,0.5,0.6,1,0.7,1.5c0.5,0.3,0.9,0.7,1.2,1.2c0.3,0.5,0.6,1,0.7,1.5c0.5,0.3,0.9,0.7,1.2,1.1c0.3,0.5,0.6,1,0.7,1.5
			c0.5,0.3,0.9,0.7,1.2,1.1c1,1.4,1,3.2,0.3,4.7c1.8,2.8,1.1,6.5-1.6,8.4C424,276.9,422.7,277.3,421.4,277.3L421.4,277.3z"/>
	</g>
	<g>
		<path class="st13" d="M352.3,173.7c-1.6,1.1-1.9,3.3-0.8,4.8l43.2,60.9l-12.3,8.7l3.2,4.5l12.3-8.7l20.7,29.1
			c1.1,1.6,3.3,1.9,4.8,0.8s1.9-3.3,0.8-4.8l-20.7-29.1l-3.2-4.5l-43.2-60.9C356,173,353.8,172.6,352.3,173.7z"/>
		<path class="st14" d="M380.7,245.7c-2.6,1.8-3.2,5.4-1.4,8s5.4,3.2,8,1.4L380.7,245.7z"/>
		<path class="st14" d="M414.6,251.2c-0.5-0.7-1.6-0.9-2.3-0.4c0.7-0.5,0.9-1.6,0.4-2.3c-0.5-0.7-1.6-0.9-2.3-0.4l-7,5
			c-0.7,0.5-0.9,1.6-0.4,2.3c0.5,0.7,1.6,0.9,2.3,0.4c-0.7,0.5-0.9,1.6-0.4,2.3c0.5,0.7,1.6,0.9,2.3,0.4c-0.7,0.5-0.9,1.6-0.4,2.3
			c0.5,0.7,1.6,0.9,2.3,0.4c-0.7,0.5-0.9,1.6-0.4,2.3c0.5,0.7,1.6,0.9,2.3,0.4c-0.7,0.5-0.9,1.6-0.4,2.3c0.5,0.7,1.6,0.9,2.3,0.4
			c-0.7,0.5-0.9,1.6-0.4,2.3c0.5,0.7,1.6,0.9,2.3,0.4c-0.7,0.5-0.9,1.6-0.4,2.3c0.5,0.7,1.6,0.9,2.3,0.4l7-5
			c0.7-0.5,0.9-1.6,0.4-2.3c-0.5-0.7-1.6-0.9-2.3-0.4c0.7-0.5,0.9-1.6,0.4-2.3c-0.5-0.7-1.6-0.9-2.3-0.4c0.7-0.5,0.9-1.6,0.4-2.3
			s-1.6-0.9-2.3-0.4c0.7-0.5,0.9-1.6,0.4-2.3c-0.5-0.7-1.6-0.9-2.3-0.4c0.7-0.5,0.9-1.6,0.4-2.3s-1.6-0.9-2.3-0.4
			C415,253,415.1,251.9,414.6,251.2z"/>
		<path class="st13" d="M424.3,269l-20.7-29.1l-3.2-4.5l-43.2-60.9c-1.1-1.6-3.3-1.9-4.8-0.8l71.2,100.2
			C425,272.8,425.3,270.6,424.3,269z"/>
		<path class="st14" d="M412.7,248.5c-0.5-0.7-1.7-0.8-2.5-0.2l-4.2,3l13.3,18.8l4.2-3c0.9-0.6,1.2-1.7,0.7-2.5
			c-0.5-0.7-1.7-0.8-2.5-0.2c0.9-0.6,1.2-1.7,0.7-2.5c-0.5-0.7-1.7-0.8-2.5-0.2c0.9-0.6,1.2-1.7,0.7-2.5s-1.7-0.8-2.5-0.2
			c0.9-0.6,1.2-1.7,0.7-2.5c-0.5-0.7-1.7-0.8-2.5-0.2c0.9-0.6,1.2-1.7,0.7-2.5s-1.7-0.8-2.5-0.2c0.9-0.6,1.2-1.7,0.7-2.5
			c-0.5-0.7-1.7-0.8-2.5-0.2C412.9,250.4,413.2,249.3,412.7,248.5z"/>
	</g>
</g>
<g id="B05">
	<g>
		<path class="st4" d="M648.4,236.7c-1.8,0-3.5-0.5-5.2-1.4l-29.9-16.7c-4.3-2.4-4.3-6.5-4.2-8.9c0-0.3,0-0.6,0-1v-28
			c0-0.2,0-0.3,0-0.5v-16.6c0-0.2,0-0.3,0-0.5v-36.9c0-5.9,4.8-10.7,10.7-10.7h57.3c5.9,0,10.7,4.8,10.7,10.7v82.4v0.5
			c0,2.1,0.1,7-4.2,9.4l-29.9,16.7C651.9,236.2,650.2,236.7,648.4,236.7z"/>
	</g>
	<g>
		<g>
			<path class="st15" d="M681.5,126.3c0-2.4-2-4.4-4.4-4.4h-57.3c-2.4,0-4.4,2-4.4,4.4v31.3h66.2V126.3z"/>
			<path class="st14" d="M681.5,157.6h-66.2v51.1c0,2.8-0.2,3.7,1,4.4l29.9,16.7c1.5,0.8,2.9,0.8,4.3,0l29.9-16.7c1.2-0.7,1-3,1-4.4
				L681.5,157.6L681.5,157.6z"/>
		</g>
		<rect x="615.3" y="163.6" class="st13" width="66.2" height="16.6"/>
		<g>
			<path class="st14" d="M630.5,169.4c-0.3,0.2-0.7,0.4-1.1,0.5l-0.1-0.1c0.7-0.5,1.3-1.5,1.6-2.3l0.1,0v-0.2h-1.5l-0.1-0.4h1.6v-1
				l1.9,0.1c0,0.2-0.1,0.3-0.4,0.3v0.5h1.3v-1l1.9,0.1c0,0.2-0.1,0.3-0.5,0.3v0.5h0.5l0.7-0.7c0,0,0.8,0.5,1.2,0.9
				c0,0.1-0.2,0.2-0.4,0.2h-2v0.3c0,0-0.3,0.3-1.1,0.3h-0.4v-0.5h-1.3v0.3c0,0-0.1,0.1-0.2,0.1l0.7,0.1c0,0.1-0.2,0.2-0.5,0.2
				c-0.1,0.1-0.2,0.2-0.3,0.3h2.8l0.8-0.6l1.4,0.9c-0.1,0.1-0.3,0.2-0.6,0.2c-0.1,1.4-0.3,2-0.8,2.3c-0.3,0.2-0.8,0.3-1.2,0.3
				c0-0.3,0-0.5-0.2-0.7c-0.1-0.1-0.3-0.2-0.5-0.3v0.4c0,0.1-0.7,0.3-1.1,0.3h-0.2v-0.4h-1v0.4c0,0.1-0.5,0.3-1,0.3h-0.2
				L630.5,169.4L630.5,169.4z M642.1,171.4c0,0,1,0.6,1.7,1.1c0,0.1-0.2,0.2-0.4,0.2h-3.4c0.3,0.1,1,0.5,1.5,0.8
				c0,0.1-0.2,0.2-0.4,0.2h-1c0.3,0.1,1,0.5,1.4,0.8c0,0.1-0.2,0.2-0.4,0.2h-8.7l-0.1-0.4h6.9l0.8-0.7h-7.5l-0.1-0.4h6.8l0.8-0.7
				h-9.9l-0.1-0.4h11.5L642.1,171.4z M631.8,168.5c-0.2,0.1-0.3,0.3-0.5,0.4l0.5,0.1h0.9l0.6-0.5l1.2,0.7c0,0.1-0.2,0.1-0.4,0.1v0.6
				c0.2,0,0.5,0,0.6,0c0.1,0,0.1,0,0.2-0.1c0.1-0.1,0.2-0.6,0.3-1.5L631.8,168.5L631.8,168.5z M632.7,170.2v-0.8h-1v0.8H632.7z
				 M639.3,175.5l0.8-0.7l1.7,1c-0.1,0.1-0.3,0.2-0.5,0.2v1.5c0,0.1-0.9,0.4-1.5,0.4h-0.3v-0.6h-5.7v0.2c0,0.1-0.8,0.4-1.5,0.4H632
				v-3.1l1.9,0.6L639.3,175.5L639.3,175.5z M632.2,171.4h6.5l0.9-0.8c0,0,1,0.6,1.6,1c0,0.1-0.2,0.2-0.4,0.2h-8.4L632.2,171.4z
				 M639.4,177v-1.1h-5.7v1.1H639.4z M642.7,167.7c-0.3,0.7-0.8,1.2-1.5,1.7c0.8,0.3,1.8,0.5,2.9,0.6l0,0.1c-0.6,0.2-0.9,0.6-1,1.3
				c-1.3-0.3-2.2-0.8-2.9-1.4c-1,0.5-2.2,0.8-3.6,1l-0.1-0.2c1.3-0.4,2.3-0.9,3.1-1.5c-0.3-0.4-0.6-0.7-0.8-1.1
				c-0.5,0.4-1.1,0.8-1.7,1l-0.2-0.1c0.7-0.8,1.4-2.1,1.6-3.4l2.2,0.6c-0.1,0.2-0.3,0.3-0.6,0.3c-0.2,0.3-0.3,0.5-0.5,0.7h1.9l0.9-1
				c0,0,1,0.7,1.6,1.1c0,0.1-0.2,0.2-0.4,0.2L642.7,167.7L642.7,167.7z M639.2,167.7c-0.1,0.1-0.2,0.2-0.3,0.3
				c0.3,0.3,0.7,0.6,1.1,0.8c0.3-0.4,0.6-0.8,0.8-1.2H639.2z"/>
			<path class="st14" d="M659.6,169.4c-0.1,0.1-0.3,0.1-0.6,0.2c-1.3,2.1-3.6,3.7-7.1,4.5l-0.1-0.2c1.8-0.7,3.3-1.7,4.4-2.9
				c-0.2,0-0.4,0-0.6-0.1c-0.1-0.3-0.3-0.6-0.6-0.9c-0.4,0.3-0.7,0.5-1.1,0.7c2.4,0.3,1.3,1.8,0.3,1.2c0-0.4-0.3-0.8-0.6-1
				c-0.4,0.2-0.9,0.4-1.4,0.6l-0.1-0.1c1.4-0.8,2.7-2.3,3.3-3.6l2,0.5c-0.1,0.1-0.2,0.2-0.6,0.2c-0.2,0.2-0.4,0.4-0.6,0.6h1.1
				l0.9-0.7L659.6,169.4z M664.6,169.4c-0.1,0.1-0.3,0.1-0.6,0.1c-0.4,0.4-1.1,0.9-1.8,1.2c1.2,0.6,2.6,1,4.1,1.3l0,0.1
				c-0.7,0.1-1.2,0.6-1.4,1.3c-2.8-1-4.7-2.4-5.6-5.3l0.2-0.1c0.5,1,1.3,1.9,2.3,2.5c0.2-0.4,0.4-0.9,0.6-1.2h-1.7l-0.1-0.4h1.8
				l0.8-0.7l0.4,0.3c0.1-0.3,0.1-0.6,0.2-0.9h-9.6c0.1,0.8-0.3,1.4-0.8,1.6c-0.5,0.3-1.1,0.2-1.3-0.3c-0.2-0.4,0.2-0.8,0.6-1
				c0.5-0.2,1-0.9,1-1.5h0.2c0.1,0.3,0.2,0.5,0.3,0.8h3.9v-1.4l2.4,0.1c0,0.2-0.1,0.3-0.6,0.4v0.9h3.8l0.9-0.8l1.6,1.2
				c-0.1,0.1-0.3,0.1-0.6,0.1c-0.4,0.3-1,0.7-1.6,0.9L664.6,169.4z M657.2,175.3c-0.1,0.1-0.2,0.2-0.6,0.1c-1,0.8-2.7,1.7-4.5,2.1
				l-0.1-0.2c1.4-0.8,2.7-2,3.3-3L657.2,175.3z M659.8,174.2v2.1c0,1-0.3,1.6-2.3,1.7c0-0.4-0.1-0.8-0.3-1c-0.2-0.2-0.5-0.4-1.1-0.5
				v-0.2c0,0,1.2,0.1,1.5,0.1c0.2,0,0.3-0.1,0.3-0.2v-2.1h-4.3l-0.1-0.4h8.3l0.9-0.9c0,0,1,0.6,1.7,1c0,0.1-0.2,0.2-0.4,0.2
				L659.8,174.2L659.8,174.2z M655.8,169.4c-0.2,0.1-0.3,0.3-0.5,0.4c0.9,0,1.3,0.3,1.4,0.6c0.3-0.3,0.5-0.7,0.6-1L655.8,169.4
				L655.8,169.4z M656.4,172.2h3.2l0.8-0.8c0,0,0.9,0.6,1.5,1c0,0.1-0.2,0.2-0.4,0.2h-5L656.4,172.2z M660.7,174.8
				c5.4,0.4,4.6,3.5,2.7,2.7c-0.5-1-1.8-2-2.8-2.6L660.7,174.8z"/>
		</g>
	</g>
</g>
<g id="B03-4">
	<g>
		<path class="st4" d="M703.8,338c-5.6,0-10.3-0.4-13.4-0.7c-1.2-0.1-2.4-0.2-2.8-0.2c-3.2,0-5.5-2-7.3-3.6
			c-1.5-1.4-2.5-2.2-3.5-2.2c-0.2,0-0.3,0-0.3,0c-0.2,0.2-0.4,1.3-0.4,1.8c0,1-0.3,2-1,2.8c-0.7,0.8-1.7,1.2-2.7,1.2h-30.8
			c-0.1,0-0.2,0-0.3,0c-3.1,0-5-1.3-6.1-2.4c-2.1-2.2-2.2-5-2.2-5.8v-4.4c0-1.3,0.4-2.5,1.2-3.5c0.1-0.8,0.3-1.5,0.5-2.1
			c-0.8-1.2-1.1-2.6-1-4.1l0.3-4.2c0.1-1.4,0.6-2.6,1.4-3.6c-1-1.3-1.4-2.9-1.3-4.5l0.3-4.2c0.1-1.4,0.6-2.6,1.4-3.6
			c-0.5-1-0.8-2.2-0.7-3.4l0.2-4.2c0.1-1.4,0.6-2.7,1.3-3.7c-1-1.2-1.6-2.9-1.5-4.6l0.2-4.2c0.1-1.3,0.5-2.5,1.2-3.6
			c-1.2-1.1-2-2.7-2.1-4.5l-0.2-4.2c-0.1-1.8,0.5-3.5,1.7-4.9c0.5-0.6,1.1-1,1.7-1.4c0-0.1,0-0.1,0-0.2c0-2.2,0.8-4.2,2.4-5.8
			c1.5-1.5,3.6-2.4,5.8-2.4h31.7c11.4,0,15,6.4,15.4,7.2c0.3,0.5,0.4,1.1,0.4,1.7v16.9c0,7.9,8.4,20.4,15.2,25.2c2.9,2,7.7,3,14.4,3
			c2.4,0,4.8-0.1,7-0.2c1.8-0.1,3.5-0.2,4.9-0.2c6.1,0,9.2,4.1,10.4,8.1c1.1,0.5,2,1.3,2.7,2.3l1.3,2c0.2,0.3,0.4,0.7,0.5,1.1
			c0.2,0.8,0.7,3.6-1.8,7.3c-2.7,4-8,7.8-15.9,11.1C724,336.4,714.6,338,703.8,338z"/>
	</g>
	<g>
		<path class="st14" d="M745.6,315.6l-1.3-2c-0.6-0.9-1.7-1.4-2.8-1.1c0,0-0.1-7.6-7-7.6c-6.9,0-20.7,2.1-28.5-3.3
			s-16.9-18.9-16.9-28.3s0-16.9,0-16.9s-2.6-5.1-12-5.1h-31.7c-2.4,0-4.4,2-4.3,4.4c0,1,0,2.1,0,3.2l-0.7,0
			c-1.6,0.1-2.9,1.5-2.8,3.1l0.2,4.2c0.1,1.6,1.5,2.9,3.1,2.8l0.4,0c0,1,0.1,1.9,0.1,2.9c-1.5,0.1-2.7,1.3-2.8,2.8l-0.2,4.2
			c-0.1,1.6,1.2,3,2.8,3.1l1,0c0.1,0.8,0.1,1.6,0.2,2.5l-0.7,0c-1.6-0.1-3,1.2-3.1,2.8l-0.2,4.2c-0.1,1.6,1.2,3,2.8,3.1l1,0
			c0,0.4-0.1,0.9-0.1,1.3l-1.2-0.1c-1.6-0.1-3,1.1-3.1,2.7l-0.3,4.2c-0.1,1.6,1.1,3,2.7,3.1l1,0.1c-0.1,0.8-0.2,1.5-0.2,2.2l-0.4,0
			c-1.6-0.1-3,1.1-3.1,2.7l-0.3,4.2c-0.1,1.4,0.9,2.7,2.2,3c-0.6,0.4-1.7,1.6-1.9,4.7v-0.1c0,0-0.1,0.1-0.2,0.2
			c-0.5,0.4-0.8,0.9-0.8,1.5v4.5c0,0-0.2,4.4,4.6,4.4c0,0,0,0,0,0c0.1,0,0.1,0,0.2,0c3.2,0,30.8,0,30.8,0s-0.3-5.8,4.4-5.8
			s7,5.8,10.9,5.8c3.8,0,25.4,3.7,42.6-3.7C747.4,322.1,745.6,315.6,745.6,315.6z"/>
	</g>
</g>
<g id="B02">
	<g>
		<path class="st4" d="M561.9,304.1c-1.8,0-3.5-0.5-5.2-1.4l-29.9-16.7c-4.3-2.4-4.3-6.5-4.2-8.9c0-0.3,0-0.6,0-1v-28
			c0-0.2,0-0.3,0-0.5v-16.6c0-0.2,0-0.3,0-0.5v-36.9c0-5.9,4.8-10.7,10.7-10.7h57.3c5.9,0,10.7,4.8,10.7,10.7v82.4v0.5
			c0,2.1,0.1,7-4.2,9.4l-29.9,16.7C565.4,303.7,563.7,304.1,561.9,304.1z"/>
	</g>
	<g>
		<g>
			<path class="st15" d="M595,193.7c0-2.4-2-4.4-4.4-4.4h-57.3c-2.4,0-4.4,2-4.4,4.4v31.3H595V193.7z"/>
			<path class="st14" d="M595,225.1h-66.2v51.1c0,2.8-0.2,3.7,1,4.4l29.9,16.7c1.5,0.8,2.8,0.8,4.3,0l29.9-16.7c1.2-0.7,1-3,1-4.4
				V225.1L595,225.1z"/>
		</g>
		<rect x="528.8" y="231.1" class="st13" width="66.2" height="16.6"/>
		<g>
			<path class="st14" d="M544,236.8c-0.3,0.2-0.7,0.4-1.1,0.5l-0.1-0.1c0.7-0.5,1.3-1.5,1.6-2.3l0.1,0v-0.2H543l-0.1-0.4h1.6v-1
				l1.9,0.1c0,0.2-0.1,0.3-0.4,0.3v0.5h1.3v-1l1.9,0.1c0,0.2-0.1,0.3-0.5,0.3v0.5h0.5l0.7-0.7c0,0,0.8,0.5,1.2,0.9
				c0,0.1-0.2,0.2-0.4,0.2h-2v0.3c0,0-0.3,0.3-1.1,0.3h-0.4v-0.5H546v0.3c0,0-0.1,0.1-0.2,0.1l0.7,0.1c0,0.1-0.2,0.2-0.5,0.2
				c-0.1,0.1-0.2,0.2-0.3,0.3h2.8l0.8-0.6l1.4,0.9c-0.1,0.1-0.3,0.2-0.6,0.2c-0.1,1.4-0.3,2-0.8,2.3c-0.3,0.2-0.8,0.3-1.1,0.3
				c0-0.3,0-0.5-0.2-0.7c-0.1-0.1-0.3-0.2-0.5-0.3v0.4c0,0.1-0.7,0.3-1.1,0.3h-0.2v-0.4h-1v0.4c0,0.1-0.5,0.3-1,0.3H544L544,236.8
				L544,236.8z M555.6,238.9c0,0,1,0.6,1.7,1.1c0,0.1-0.2,0.2-0.4,0.2h-3.4c0.3,0.1,1,0.5,1.5,0.8c0,0.1-0.2,0.2-0.4,0.2h-1
				c0.3,0.1,1,0.5,1.4,0.8c0,0.1-0.2,0.2-0.4,0.2h-8.7l-0.1-0.4h6.9l0.8-0.7h-7.5l-0.1-0.4h6.8l0.8-0.7h-9.9l-0.1-0.4h11.5
				L555.6,238.9z M545.3,236c-0.2,0.1-0.3,0.3-0.5,0.4l0.5,0.1h0.9l0.6-0.5l1.2,0.7c0,0.1-0.2,0.1-0.4,0.1v0.6c0.2,0,0.5,0,0.6,0
				c0.1,0,0.1,0,0.2-0.1c0.1-0.1,0.2-0.6,0.3-1.5L545.3,236L545.3,236z M546.2,237.7v-0.8h-1v0.8H546.2z M552.8,243l0.8-0.7l1.6,1
				c-0.1,0.1-0.3,0.2-0.5,0.2v1.5c0,0.1-0.9,0.4-1.5,0.4h-0.3v-0.6h-5.7v0.2c0,0.1-0.8,0.4-1.5,0.4h-0.3v-3.1l1.9,0.6L552.8,243
				L552.8,243z M545.7,238.8h6.5l0.9-0.8c0,0,1,0.6,1.6,1c0,0.1-0.2,0.2-0.4,0.2h-8.4L545.7,238.8z M552.9,244.5v-1.1h-5.7v1.1
				H552.9z M556.2,235.2c-0.3,0.7-0.8,1.2-1.5,1.7c0.8,0.3,1.8,0.5,2.8,0.6l0,0.1c-0.6,0.2-0.9,0.6-1,1.3c-1.3-0.3-2.2-0.8-2.9-1.4
				c-1,0.5-2.2,0.8-3.6,1l-0.1-0.2c1.3-0.4,2.3-0.9,3.1-1.5c-0.3-0.4-0.6-0.7-0.8-1.1c-0.5,0.4-1.1,0.8-1.7,1l-0.2-0.1
				c0.7-0.8,1.3-2.1,1.6-3.4l2.2,0.6c-0.1,0.2-0.3,0.3-0.6,0.3c-0.2,0.3-0.3,0.5-0.5,0.7h1.8l0.9-1c0,0,1,0.7,1.6,1.1
				c0,0.1-0.2,0.2-0.4,0.2L556.2,235.2L556.2,235.2z M552.7,235.2c-0.1,0.1-0.2,0.2-0.3,0.3c0.3,0.3,0.7,0.6,1.1,0.8
				c0.3-0.4,0.6-0.8,0.8-1.2H552.7z"/>
			<path class="st14" d="M573.1,236.8c-0.1,0.1-0.3,0.1-0.6,0.2c-1.3,2.1-3.6,3.7-7.1,4.5l-0.1-0.2c1.8-0.7,3.3-1.7,4.4-2.9
				c-0.2,0-0.4,0-0.6-0.1c-0.1-0.3-0.3-0.6-0.6-0.9c-0.4,0.3-0.7,0.5-1.1,0.7c2.4,0.3,1.3,1.8,0.3,1.2c0-0.4-0.3-0.8-0.6-1
				c-0.4,0.2-0.9,0.4-1.3,0.6l-0.1-0.1c1.4-0.8,2.7-2.3,3.3-3.6l2,0.5c-0.1,0.1-0.2,0.2-0.6,0.2c-0.2,0.2-0.4,0.4-0.6,0.6h1.1
				l0.9-0.7L573.1,236.8z M578.1,236.8c-0.1,0.1-0.3,0.1-0.6,0.1c-0.4,0.4-1.1,0.9-1.8,1.2c1.2,0.6,2.6,1,4.1,1.3l0,0.1
				c-0.7,0.1-1.2,0.6-1.4,1.3c-2.8-1-4.7-2.4-5.6-5.3l0.2-0.1c0.5,1,1.3,1.9,2.3,2.5c0.2-0.4,0.4-0.9,0.6-1.2h-1.7l-0.1-0.4h1.8
				l0.8-0.7l0.4,0.3c0.1-0.3,0.1-0.6,0.2-0.9h-9.6c0.1,0.8-0.3,1.4-0.8,1.6c-0.5,0.3-1.2,0.2-1.4-0.3c-0.2-0.4,0.2-0.8,0.6-1
				c0.5-0.2,1-0.9,1-1.5h0.2c0.1,0.3,0.2,0.5,0.3,0.8h3.9v-1.4l2.4,0.1c0,0.2-0.2,0.3-0.6,0.4v0.9h3.8l0.9-0.8l1.6,1.2
				c-0.1,0.1-0.3,0.1-0.6,0.1c-0.4,0.3-1,0.7-1.6,0.9L578.1,236.8z M570.7,242.8c-0.1,0.1-0.2,0.2-0.6,0.1c-1,0.8-2.7,1.7-4.5,2.1
				l-0.1-0.2c1.4-0.8,2.7-2,3.3-3L570.7,242.8z M573.3,241.6v2.1c0,1-0.3,1.6-2.3,1.7c0-0.4-0.1-0.8-0.3-1c-0.2-0.2-0.5-0.4-1.1-0.5
				v-0.2c0,0,1.2,0.1,1.5,0.1c0.2,0,0.3-0.1,0.3-0.2v-2.1h-4.3l-0.1-0.4h8.3l0.9-0.9c0,0,1,0.6,1.7,1c0,0.1-0.2,0.2-0.4,0.2
				L573.3,241.6L573.3,241.6z M569.3,236.8c-0.2,0.1-0.3,0.3-0.5,0.4c0.9,0,1.3,0.3,1.4,0.6c0.3-0.3,0.5-0.7,0.6-1L569.3,236.8
				L569.3,236.8z M569.9,239.6h3.2l0.8-0.8c0,0,0.9,0.6,1.5,1c0,0.1-0.2,0.2-0.4,0.2h-5L569.9,239.6z M574.2,242.2
				c5.4,0.4,4.6,3.5,2.7,2.7c-0.5-1-1.8-2-2.9-2.6L574.2,242.2z"/>
		</g>
	</g>
</g>
<g id="B01">
	<g>
		<path class="st4" d="M498.7,221c-1.9,0-3.7-0.9-4.9-2.4c-0.2,0-0.5,0.1-0.7,0.1c-1.4,0-2.8-0.7-3.6-1.9c-0.3-0.5-0.6-1-0.7-1.5
			c-0.5-0.3-0.9-0.7-1.2-1.2s-0.6-1-0.7-1.5c-0.5-0.3-0.9-0.7-1.2-1.1c-0.3-0.5-0.6-1-0.7-1.5c-0.5-0.3-0.9-0.7-1.2-1.1
			c-0.3-0.5-0.6-1-0.7-1.5c-0.5-0.3-0.9-0.7-1.2-1.1c-0.3-0.5-0.6-1-0.7-1.5c-0.5-0.3-0.9-0.7-1.2-1.2s-0.6-1-0.7-1.5
			c-0.5-0.3-0.9-0.7-1.2-1.1c-0.7-1-1-2.1-0.8-3.3c0.1-0.5,0.2-1,0.5-1.4l-3.2-4.6l-7.8,5.5l1.7,2.4l-2.3,1.6
			c-1.5,1-3.2,1.6-4.9,1.6c-2.8,0-5.4-1.3-7-3.6c-2.7-3.8-1.8-9.2,2-11.9l2.3-1.6l1.7,2.4l7.8-5.5l-41.6-58.6
			c-2-2.8-1.3-6.7,1.5-8.7c1.1-0.8,2.3-1.1,3.6-1.1c2,0,3.9,1,5.1,2.6l51.3,72.2c0.2,0,0.5-0.1,0.7-0.1c1.4,0,2.8,0.7,3.6,1.9
			c0.3,0.5,0.6,1,0.7,1.5c0.5,0.3,0.9,0.7,1.2,1.2c0.3,0.5,0.6,1,0.7,1.5c0.5,0.3,0.9,0.7,1.2,1.2s0.6,1,0.7,1.5
			c0.5,0.3,0.9,0.7,1.2,1.1c0.3,0.5,0.6,1,0.7,1.5c0.5,0.3,0.9,0.7,1.2,1.1c0.3,0.5,0.6,1,0.7,1.5c0.5,0.3,0.9,0.7,1.2,1.2
			s0.6,1,0.7,1.5c0.5,0.3,0.9,0.7,1.2,1.2c0.7,1,1,2.1,0.8,3.3c-0.1,0.5-0.2,1-0.5,1.4c0.8,1.3,1.1,2.9,0.9,4.4
			c-0.3,1.6-1.2,3.1-2.5,4C501.3,220.6,500,221,498.7,221L498.7,221z"/>
	</g>
	<g>
		<path class="st13" d="M429.6,117.4c-1.6,1.1-1.9,3.3-0.8,4.8l43.2,60.9l-12.3,8.7l3.2,4.5l12.3-8.7l20.7,29.1
			c1.1,1.6,3.3,1.9,4.8,0.8c1.6-1.1,1.9-3.3,0.8-4.8l-20.7-29.1l-3.2-4.5l-43.2-60.9C433.3,116.6,431.2,116.3,429.6,117.4z"/>
		<path class="st14" d="M458,189.4c-2.6,1.8-3.2,5.4-1.4,8s5.4,3.2,8,1.4L458,189.4z"/>
		<path class="st14" d="M491.9,194.9c-0.5-0.7-1.6-0.9-2.3-0.4c0.7-0.5,0.9-1.6,0.4-2.3c-0.5-0.7-1.6-0.9-2.3-0.4l-7,5
			c-0.7,0.5-0.9,1.6-0.4,2.3c0.5,0.7,1.6,0.9,2.3,0.4c-0.7,0.5-0.9,1.6-0.4,2.3s1.6,0.9,2.3,0.4c-0.7,0.5-0.9,1.6-0.4,2.3
			c0.5,0.7,1.6,0.9,2.3,0.4c-0.7,0.5-0.9,1.6-0.4,2.3c0.5,0.7,1.6,0.9,2.3,0.4c-0.7,0.5-0.9,1.6-0.4,2.3c0.5,0.7,1.6,0.9,2.3,0.4
			c-0.7,0.5-0.9,1.6-0.4,2.3c0.5,0.7,1.6,0.9,2.3,0.4c-0.7,0.5-0.9,1.6-0.4,2.3c0.5,0.7,1.6,0.9,2.3,0.4l7-5
			c0.7-0.5,0.9-1.6,0.4-2.3c-0.5-0.7-1.6-0.9-2.3-0.4c0.7-0.5,0.9-1.6,0.4-2.3c-0.5-0.7-1.6-0.9-2.3-0.4c0.7-0.5,0.9-1.6,0.4-2.3
			c-0.5-0.7-1.6-0.9-2.3-0.4c0.7-0.5,0.9-1.6,0.4-2.3c-0.5-0.7-1.6-0.9-2.3-0.4c0.7-0.5,0.9-1.6,0.4-2.3c-0.5-0.7-1.6-0.9-2.3-0.4
			C492.3,196.7,492.5,195.6,491.9,194.9z"/>
		<path class="st13" d="M501.6,212.7l-20.7-29.1l-3.2-4.5l-43.2-60.9c-1.1-1.6-3.3-1.9-4.8-0.8l71.2,100.2
			C502.3,216.5,502.7,214.3,501.6,212.7z"/>
		<path class="st14" d="M490,192.2c-0.5-0.7-1.7-0.8-2.5-0.2l-4.2,3l13.3,18.8l4.2-3c0.9-0.6,1.2-1.7,0.6-2.5
			c-0.5-0.7-1.7-0.8-2.5-0.2c0.9-0.6,1.2-1.7,0.6-2.5c-0.5-0.7-1.7-0.8-2.5-0.2c0.9-0.6,1.2-1.7,0.6-2.5c-0.5-0.7-1.7-0.8-2.5-0.2
			c0.9-0.6,1.2-1.7,0.6-2.5c-0.5-0.7-1.7-0.8-2.5-0.2c0.9-0.6,1.2-1.7,0.6-2.5c-0.5-0.7-1.7-0.8-2.5-0.2c0.9-0.6,1.2-1.7,0.6-2.5
			s-1.7-0.8-2.5-0.2C490.3,194.1,490.6,193,490,192.2z"/>
	</g>
</g>
<g id="A02_1_">
	<g>
		<path class="st4" d="M194.6,119.2c-1.9,0-3.7-0.9-4.9-2.4c-0.2,0-0.5,0.1-0.7,0.1c-1.4,0-2.8-0.7-3.6-1.9c-0.3-0.5-0.6-1-0.7-1.5
			c-0.5-0.3-0.9-0.7-1.2-1.2s-0.6-1-0.7-1.5c-0.5-0.3-0.9-0.7-1.2-1.1c-0.3-0.5-0.6-1-0.7-1.5c-0.5-0.3-0.9-0.7-1.2-1.1
			c-0.3-0.5-0.6-1-0.7-1.5c-0.5-0.3-0.9-0.7-1.2-1.1c-0.3-0.5-0.6-1-0.7-1.5c-0.5-0.3-0.9-0.7-1.2-1.2s-0.6-1-0.7-1.5
			c-0.5-0.3-0.9-0.7-1.2-1.1c-0.7-1-1-2.1-0.8-3.3c0.1-0.5,0.2-0.9,0.5-1.4l-3.2-4.6l-7.8,5.5l1.7,2.4l-2.3,1.6
			c-1.5,1-3.2,1.6-4.9,1.6c-2.8,0-5.4-1.3-7-3.6c-2.7-3.8-1.8-9.2,2-11.9l2.3-1.6l1.7,2.4l7.8-5.5L122.4,22c-2-2.8-1.3-6.7,1.5-8.7
			c1.1-0.8,2.3-1.2,3.6-1.2c2,0,3.9,1,5.1,2.6L183.9,87c0.2,0,0.5-0.1,0.7-0.1c1.4,0,2.8,0.7,3.6,1.9c0.3,0.5,0.6,1,0.7,1.5
			c0.5,0.3,0.9,0.7,1.2,1.2c0.3,0.5,0.6,1,0.7,1.5c0.5,0.3,0.9,0.7,1.2,1.2s0.6,1,0.7,1.5c0.5,0.3,0.9,0.7,1.2,1.1
			c0.3,0.5,0.6,1,0.7,1.5c0.5,0.3,0.9,0.7,1.2,1.1c0.3,0.5,0.6,1,0.7,1.5c0.5,0.3,0.9,0.7,1.2,1.2s0.6,1,0.7,1.5
			c0.5,0.3,0.9,0.7,1.2,1.2c0.7,1,1,2.1,0.8,3.3c-0.1,0.5-0.2,0.9-0.5,1.4c0.8,1.3,1.2,2.9,0.9,4.4c-0.3,1.6-1.2,3.1-2.5,4
			C197.2,118.8,195.9,119.2,194.6,119.2L194.6,119.2z"/>
	</g>
	<g>
		<path class="st13" d="M125.5,15.6c-1.6,1.1-1.9,3.3-0.8,4.8l43.2,60.9L155.6,90l3.2,4.5l12.3-8.7l20.7,29.1
			c1.1,1.6,3.3,1.9,4.8,0.8c1.6-1.1,1.9-3.3,0.8-4.8l-20.7-29.1l-3.2-4.5l-43.2-60.9C129.2,14.8,127,14.5,125.5,15.6z"/>
		<path class="st14" d="M153.9,87.6c-2.6,1.8-3.2,5.4-1.4,8s5.4,3.2,8,1.4L153.9,87.6z"/>
		<path class="st14" d="M187.8,93.1c-0.5-0.7-1.6-0.9-2.3-0.4c0.7-0.5,0.9-1.6,0.4-2.3c-0.5-0.7-1.6-0.9-2.3-0.4l-7,5
			c-0.7,0.5-0.9,1.6-0.4,2.3c0.5,0.7,1.6,0.9,2.3,0.4c-0.7,0.5-0.9,1.6-0.4,2.3c0.5,0.7,1.6,0.9,2.3,0.4c-0.7,0.5-0.9,1.6-0.4,2.3
			c0.5,0.7,1.6,0.9,2.3,0.4c-0.7,0.5-0.9,1.6-0.4,2.3c0.5,0.7,1.6,0.9,2.3,0.4c-0.7,0.5-0.9,1.6-0.4,2.3c0.5,0.7,1.6,0.9,2.3,0.4
			c-0.7,0.5-0.9,1.6-0.4,2.3c0.5,0.7,1.6,0.9,2.3,0.4c-0.7,0.5-0.9,1.6-0.4,2.3c0.5,0.7,1.6,0.9,2.3,0.4l7-5
			c0.7-0.5,0.9-1.6,0.4-2.3c-0.5-0.7-1.6-0.9-2.3-0.4c0.7-0.5,0.9-1.6,0.4-2.3c-0.5-0.7-1.6-0.9-2.3-0.4c0.7-0.5,0.9-1.6,0.4-2.3
			c-0.5-0.7-1.6-0.9-2.3-0.4c0.7-0.5,0.9-1.6,0.4-2.3c-0.5-0.7-1.6-0.9-2.3-0.4c0.7-0.5,0.9-1.6,0.4-2.3c-0.5-0.7-1.6-0.9-2.3-0.4
			C188.1,94.9,188.3,93.8,187.8,93.1z"/>
		<path class="st13" d="M197.4,110.9l-20.7-29.1l-3.2-4.5l-43.2-60.9c-1.1-1.6-3.3-1.9-4.8-0.8l71.2,100.2
			C198.2,114.7,198.5,112.5,197.4,110.9z"/>
		<path class="st14" d="M185.9,90.4c-0.5-0.7-1.7-0.8-2.5-0.2l-4.2,3l13.3,18.8l4.2-3c0.9-0.6,1.2-1.7,0.7-2.5
			c-0.5-0.7-1.7-0.8-2.5-0.2c0.9-0.6,1.2-1.7,0.7-2.5c-0.5-0.7-1.7-0.8-2.5-0.2c0.9-0.6,1.2-1.7,0.7-2.5c-0.5-0.7-1.7-0.8-2.5-0.2
			c0.9-0.6,1.2-1.7,0.7-2.5c-0.5-0.7-1.7-0.8-2.5-0.2c0.9-0.6,1.2-1.7,0.7-2.5c-0.5-0.7-1.7-0.8-2.5-0.2c0.9-0.6,1.2-1.7,0.7-2.5
			c-0.5-0.7-1.7-0.8-2.5-0.2C186.1,92.3,186.4,91.1,185.9,90.4z"/>
	</g>
</g>
<g id="A01">
	<g>
		<path class="st4" d="M706.5,117.3c-1.9,0-3.7-0.9-4.9-2.4c-0.2,0-0.5,0.1-0.7,0.1c-1.4,0-2.8-0.7-3.6-1.9c-0.3-0.5-0.6-1-0.7-1.5
			c-0.5-0.3-0.9-0.7-1.2-1.2s-0.6-1-0.7-1.5c-0.5-0.3-0.9-0.7-1.2-1.1c-0.3-0.5-0.6-1-0.7-1.5c-0.5-0.3-0.9-0.7-1.2-1.1
			c-0.3-0.5-0.6-1-0.7-1.5c-0.5-0.3-0.9-0.7-1.2-1.1c-0.3-0.5-0.6-1-0.7-1.5c-0.5-0.3-0.9-0.7-1.2-1.2s-0.6-1-0.7-1.5
			c-0.5-0.3-0.9-0.7-1.2-1.1c-0.7-1-1-2.1-0.8-3.3c0.1-0.5,0.2-0.9,0.5-1.4l-3.2-4.6l-7.8,5.5l1.7,2.4l-2.3,1.6
			c-1.5,1-3.1,1.6-4.9,1.6c-2.8,0-5.4-1.3-7-3.6c-2.7-3.8-1.8-9.2,2-11.9l2.3-1.6l1.7,2.4l7.8-5.5l-41.6-58.6
			c-2-2.8-1.3-6.7,1.5-8.7c1.1-0.8,2.3-1.2,3.6-1.2c2,0,3.9,1,5.1,2.6l51.3,72.2c0.2,0,0.5-0.1,0.7-0.1c1.4,0,2.8,0.7,3.6,1.9
			c0.3,0.5,0.6,1,0.7,1.5c0.5,0.3,0.9,0.7,1.2,1.2c0.3,0.5,0.6,1,0.7,1.5c0.5,0.3,0.9,0.7,1.2,1.2c0.3,0.5,0.6,1,0.7,1.5
			c0.5,0.3,0.9,0.7,1.2,1.1c0.3,0.5,0.6,1,0.7,1.5c0.5,0.3,0.9,0.7,1.2,1.1c0.3,0.5,0.6,1,0.7,1.5c0.5,0.3,0.9,0.7,1.2,1.2
			s0.6,1,0.7,1.5c0.5,0.3,0.9,0.7,1.2,1.2c0.7,1,1,2.1,0.8,3.3c-0.1,0.5-0.2,0.9-0.5,1.4c0.8,1.3,1.2,2.9,0.9,4.4
			c-0.3,1.6-1.2,3.1-2.5,4C709.1,116.9,707.8,117.3,706.5,117.3L706.5,117.3z"/>
	</g>
	<g>
		<path class="st13" d="M637.4,13.7c-1.6,1.1-1.9,3.3-0.8,4.8l43.2,60.9l-12.3,8.7l3.2,4.5l12.3-8.7l20.7,29.1
			c1.1,1.6,3.3,1.9,4.8,0.8c1.6-1.1,1.9-3.3,0.8-4.8l-20.7-29.1l-3.2-4.5l-43.2-60.9C641.1,12.9,638.9,12.6,637.4,13.7z"/>
		<path class="st14" d="M665.8,85.7c-2.6,1.8-3.2,5.4-1.4,8s5.4,3.2,8,1.4L665.8,85.7z"/>
		<path class="st14" d="M699.7,91.2c-0.5-0.7-1.6-0.9-2.3-0.4c0.7-0.5,0.9-1.6,0.4-2.3c-0.5-0.7-1.6-0.9-2.3-0.4l-7,5
			c-0.7,0.5-0.9,1.6-0.4,2.3c0.5,0.7,1.6,0.9,2.3,0.4c-0.7,0.5-0.9,1.6-0.4,2.3c0.5,0.7,1.6,0.9,2.3,0.4c-0.7,0.5-0.9,1.6-0.4,2.3
			c0.5,0.7,1.6,0.9,2.3,0.4c-0.7,0.5-0.9,1.6-0.4,2.3c0.5,0.7,1.6,0.9,2.3,0.4c-0.7,0.5-0.9,1.6-0.4,2.3c0.5,0.7,1.6,0.9,2.3,0.4
			c-0.7,0.5-0.9,1.6-0.4,2.3c0.5,0.7,1.6,0.9,2.3,0.4c-0.7,0.5-0.9,1.6-0.4,2.3c0.5,0.7,1.6,0.9,2.3,0.4l7-5
			c0.7-0.5,0.9-1.6,0.4-2.3c-0.5-0.7-1.6-0.9-2.3-0.4c0.7-0.5,0.9-1.6,0.4-2.3c-0.5-0.7-1.6-0.9-2.3-0.4c0.7-0.5,0.9-1.6,0.4-2.3
			c-0.5-0.7-1.6-0.9-2.3-0.4c0.7-0.5,0.9-1.6,0.4-2.3c-0.5-0.7-1.6-0.9-2.3-0.4c0.7-0.5,0.9-1.6,0.4-2.3c-0.5-0.7-1.6-0.9-2.3-0.4
			C700.1,93,700.3,91.9,699.7,91.2z"/>
		<path class="st13" d="M709.4,109l-20.7-29.1l-3.2-4.5l-43.2-60.9c-1.1-1.6-3.3-1.9-4.8-0.8l71.2,100.2
			C710.1,112.8,710.5,110.6,709.4,109z"/>
		<path class="st14" d="M697.8,88.5c-0.5-0.7-1.7-0.8-2.5-0.2l-4.2,3l13.3,18.8l4.2-3c0.9-0.6,1.2-1.7,0.7-2.5
			c-0.5-0.7-1.7-0.8-2.6-0.2c0.9-0.6,1.2-1.7,0.7-2.5c-0.5-0.7-1.7-0.8-2.6-0.2c0.9-0.6,1.2-1.7,0.7-2.5c-0.5-0.7-1.7-0.8-2.5-0.2
			c0.9-0.6,1.2-1.7,0.6-2.5c-0.5-0.7-1.7-0.8-2.5-0.2c0.9-0.6,1.2-1.7,0.6-2.5c-0.5-0.7-1.7-0.8-2.5-0.2c0.9-0.6,1.2-1.7,0.7-2.5
			c-0.5-0.7-1.7-0.8-2.6-0.2C698.1,90.4,698.3,89.3,697.8,88.5z"/>
	</g>
</g>
</svg>
