<?xml version="1.0" encoding="utf-8"?>
<!-- Generator: Adobe Illustrator 23.1.0, SVG Export Plug-In . SVG Version: 6.00 Build 0)  -->
<svg version="1.1" id="圖層_1" xmlns="http://www.w3.org/2000/svg" xmlns:xlink="http://www.w3.org/1999/xlink" x="0px" y="0px"
	 viewBox="0 0 616.3 553.9" style="enable-background:new 0 0 616.3 553.9;" xml:space="preserve">
<style type="text/css">
	.st0{opacity:0.29;fill:#FFFFFF;enable-background:new    ;}
	.st1{opacity:0.33;fill:#FFFFFF;enable-background:new    ;}
	.st2{fill:#212529;}
	.st3{font-family:'MingLiU';}
	.st4{font-size:27.8578px;}
	.st5{font-size:25.3697px;}
	.st6{font-size:27.5155px;glyph-orientation-vertical:0;writing-mode:tb;}
	.st7{font-size:22.6364px;glyph-orientation-vertical:0;writing-mode:tb;}
	.st8{fill:#FF931E;}
	.st9{fill:#29282A;}
	.st10{fill:#5060EF;}
	.st11{opacity:0.17;fill:#3942EA;}
</style>
<g id="map">
	<title>map</title>
	<path class="st0" d="M239.2,0l-24.9,49.5l336.1,97.2l14.1-57.4l6.3-30.9l18.7,34.5l-18.7,61l45.4,13.3l-10.7,14.1l-41-12.4
		L480.1,486l42.7,13.3l-5.3,25.6l-46.2-11.5L457.1,551l-23.5,3l16.5-45.3L64.9,420.5l-19.3,48.9l-33.1-13.6l24.8-49.2L0,394
		l16.9-24.7l29.3,3.5L168.9,81.4l-48-16.1l24.9-30l34.7,8.8L210.8,0H239.2z M84.1,391.5l371.5,88.3l88.5-301.2L203.2,89.4
		L84.1,391.5z"/>
	<path class="st1" d="M308.1,219.4l6-22.6L224.3,162l-10.4,30.4L173,320.2l-40-10.4L210.4,129l7.8,5.2l1.8-14.8l88.2,26.1
		c-0.2,3.5-0.2,7,0,10.4c0.4,3.5,71.8,16.5,71.8,16.5l2.6-7.8l138.2,39.1l-8.7,41.7h-5.2l-9.6,27.8l5.2,3.7l-47.8,176.3l-36.5-10.4
		l13-50.4l-13.9-3.5l3.5-13.9h17.4l2.6-14.8l-24.3-6.1l23.5-94.2l14.8,5.5l7-31.3L347,203.6l-9.6,26.1l73,21.7V284l-23.5,63v9.6
		l-16.5,2.6l-56.3-17.4v5.2l-6-1.7l-7.3,19.1l-23.5-8.7V334l-66.9-24.3l26.1-106L308.1,219.4z M298.1,244l-42-11l-15.6,59.7l42,11
		L298.1,244z M381,272l-45.6-14.4l-18.6,58.8l45.6,14.4L381,272z"/>
	<text transform="matrix(0.9757 0.219 -0.219 0.9757 208.7884 446.9811)" class="st2 st3 st4">忠孝西路</text>
	<text transform="matrix(0.9757 0.219 -0.219 0.9757 311.5327 108.4768)" class="st2 st3 st5">北平東路</text>
	<text transform="matrix(0.933 0.36 -0.36 0.933 146.5886 183.585)" class="st2 st3 st6">中山北路</text>
	<text transform="matrix(0.9668 0.2556 -0.2556 0.9668 519.0577 298.7799)" class="st2 st3 st7">天津街</text>
	<g>
		<g>
			<g>
				<text transform="matrix(0.9709 0.2395 -0.2395 0.9709 264.5123 366.9202)" class="st2 st3 st5">正門</text>
			</g>
		</g>
	</g>
</g>
<g id="A01">
	<circle class="st8" cx="470.8" cy="143.5" r="19.5"/>
	<path class="st9" d="M439.2,124.3c-0.7,1.1-0.4,2.1,0.4,2.5l30.6,17.8l-3.4,6.2l2.5,1.4l3.8-6.2l14.4,8.6c0.7,0.4,1.8,0.4,2.5-0.7
		c0.4-0.7,0.4-1.8-0.7-2.5l-14.8-8.6l-2.5-1.1l-30.6-17.8C440.6,123.4,439.5,123.7,439.2,124.3z"/>
	<path class="st10" d="M465.3,150.1c-0.7,1.4-0.4,3.2,1.1,3.8c1.4,0.7,3.2,0.4,3.8-1.1L465.3,150.1z"/>
	<path class="st10" d="M481.2,146c-0.4-0.4-0.7,0-1.1,0.4c0.4-0.4,0-0.7-0.4-1.1s-0.7,0-1.1,0.4l-2.1,3.4c-0.4,0.4,0,0.7,0.4,1.1
		s0.7,0,1.1-0.4c-0.4,0.4,0,0.7,0.4,1.1s0.7,0,1.1-0.4c-0.4,0.4,0,0.7,0.4,1.1s0.7,0,1.1-0.4c-0.4,0.4,0,0.7,0.4,1.1s0.7,0,1.1-0.4
		c-0.4,0.4,0,0.7,0.4,1.1s0.7,0,1.1-0.4c-0.4,0.4,0,0.7,0.4,1.1s0.7,0,1.1-0.4c-0.4,0.4,0,0.7,0.4,1.1s0.7,0,1.1-0.4l2.1-3.4
		c0.4-0.4,0-0.7-0.4-1.1s-0.7,0-1.1,0.4c0.4-0.4,0-0.7-0.4-1.1s-0.7,0-1.1,0.4c0.4-0.4,0-0.7-0.4-1.1s-0.7,0-1.1,0.4
		c0.4-0.4,0-0.7-0.4-1.1s-0.7,0-1.1,0.4c0.4-0.4,0-0.7-0.4-1.1s-0.7,0-1.1,0.4C481.9,146.7,481.5,146.4,481.2,146z"/>
	<path class="st9" d="M489,151.9l-14.8-8.6l-2.5-1.4l-30.6-17.8c-0.7-0.7-1.8-0.4-2.1,0.4l50.6,29.6
		C490.1,153.3,489.7,152.2,489,151.9z"/>
	<path class="st10" d="M479.8,145.3c-0.4-0.4-1.1,0-1.1,0.4l-1.1,2.1l9.3,5.5l1.4-2.1c0.4-0.4,0-1.1-0.4-1.1s-1.1-0.4-1.1,0.4
		c0.4-0.4,0-1.1-0.4-1.1c-0.4-0.4-1.1,0-1.1,0.4c0.4-0.4,0-1.1-0.4-1.1c-0.4-0.4-1.1,0-1.1,0.4c0.4-0.4,0-1.1-0.4-1.1
		c-0.4-0.4-1.1,0-1.1,0.4c0.4-0.4,0-1.1-0.4-1.1c-0.4-0.4-1.1,0-1.1,0.4c0.4-0.4,0-1.1-0.4-1.1c-0.4-0.4-1.1,0-1.1,0.4
		C480.5,146,480.5,145.3,479.8,145.3z"/>
</g>
<g id="B05">
	<circle class="st8" cx="408" cy="216.1" r="16.4"/>
	<path class="st9" d="M381.4,200c-0.6,0.9-0.3,1.8,0.3,2.1l25.7,15l-2.9,5.2l2.1,1.2l3.2-5.2l12.1,7.2c0.6,0.3,1.5,0.3,2.1-0.6
		c0.3-0.6,0.3-1.5-0.6-2.1l-12.4-7.2l-2.1-0.9l-25.7-15C382.6,199.3,381.7,199.5,381.4,200z"/>
	<path class="st10" d="M403.3,221.7c-0.6,1.2-0.3,2.7,0.9,3.2c1.2,0.6,2.7,0.3,3.2-0.9L403.3,221.7z"/>
	<path class="st10" d="M416.7,218.2c-0.3-0.3-0.6,0-0.9,0.3c0.3-0.3,0-0.6-0.3-0.9c-0.3-0.3-0.6,0-0.9,0.3l-1.8,2.9
		c-0.3,0.3,0,0.6,0.3,0.9c0.3,0.3,0.6,0,0.9-0.3c-0.3,0.3,0,0.6,0.3,0.9c0.3,0.3,0.6,0,0.9-0.3c-0.3,0.3,0,0.6,0.3,0.9
		c0.3,0.3,0.6,0,0.9-0.3c-0.3,0.3,0,0.6,0.3,0.9c0.3,0.3,0.6,0,0.9-0.3c-0.3,0.3,0,0.6,0.3,0.9c0.3,0.3,0.6,0,0.9-0.3
		c-0.3,0.3,0,0.6,0.3,0.9c0.3,0.3,0.6,0,0.9-0.3c-0.3,0.3,0,0.6,0.3,0.9c0.3,0.3,0.6,0,0.9-0.3l1.8-2.9c0.3-0.3,0-0.6-0.3-0.9
		c-0.3-0.3-0.6,0-0.9,0.3c0.3-0.3,0-0.6-0.3-0.9c-0.3-0.3-0.6,0-0.9,0.3c0.3-0.3,0-0.6-0.3-0.9c-0.3-0.3-0.6,0-0.9,0.3
		c0.3-0.3,0-0.6-0.3-0.9c-0.3-0.3-0.6,0-0.9,0.3c0.3-0.3,0-0.6-0.3-0.9c-0.3-0.3-0.6,0-0.9,0.3C417.3,218.8,416.9,218.6,416.7,218.2
		z"/>
	<path class="st9" d="M423.2,223.2l-12.4-7.2l-2.1-1.2l-25.7-15c-0.6-0.6-1.5-0.3-1.8,0.3l42.5,24.9
		C424.2,224.4,423.8,223.5,423.2,223.2z"/>
	<path class="st10" d="M415.5,217.7c-0.3-0.3-0.9,0-0.9,0.3l-0.9,1.8l7.8,4.6l1.2-1.8c0.3-0.3,0-0.9-0.3-0.9c-0.3,0-0.9-0.3-0.9,0.3
		c0.3-0.3,0-0.9-0.3-0.9c-0.3-0.3-0.9,0-0.9,0.3c0.3-0.3,0-0.9-0.3-0.9c-0.3-0.3-0.9,0-0.9,0.3c0.3-0.3,0-0.9-0.3-0.9
		c-0.3-0.3-0.9,0-0.9,0.3c0.3-0.3,0-0.9-0.3-0.9c-0.3-0.3-0.9,0-0.9,0.3c0.3-0.3,0-0.9-0.3-0.9c-0.3-0.3-0.9,0-0.9,0.3
		C416.1,218.2,416.1,217.7,415.5,217.7z"/>
</g>
<g id="B06">
	<circle class="st8" cx="319.3" cy="209.4" r="16.4"/>
	<path class="st9" d="M292.8,193.2c-0.6,0.9-0.3,1.8,0.3,2.1l25.7,15l-2.9,5.2l2.1,1.2l3.2-5.2l12.1,7.2c0.6,0.3,1.5,0.3,2.1-0.6
		c0.3-0.6,0.3-1.5-0.6-2.1l-12.4-7.2l-2.1-0.9l-25.7-15C294,192.5,293.1,192.7,292.8,193.2z"/>
	<path class="st10" d="M314.7,214.9c-0.6,1.2-0.3,2.7,0.9,3.2c1.2,0.6,2.7,0.3,3.2-0.9L314.7,214.9z"/>
	<path class="st10" d="M328.1,211.5c-0.3-0.3-0.6,0-0.9,0.3c0.3-0.3,0-0.6-0.3-0.9c-0.3-0.3-0.6,0-0.9,0.3l-1.8,2.9
		c-0.3,0.3,0,0.6,0.3,0.9c0.3,0.3,0.6,0,0.9-0.3c-0.3,0.3,0,0.6,0.3,0.9c0.3,0.3,0.6,0,0.9-0.3c-0.3,0.3,0,0.6,0.3,0.9
		c0.3,0.3,0.6,0,0.9-0.3c-0.3,0.3,0,0.6,0.3,0.9c0.3,0.3,0.6,0,0.9-0.3c-0.3,0.3,0,0.6,0.3,0.9c0.3,0.3,0.6,0,0.9-0.3
		c-0.3,0.3,0,0.6,0.3,0.9c0.3,0.3,0.6,0,0.9-0.3c-0.3,0.3,0,0.6,0.3,0.9c0.3,0.3,0.6,0,0.9-0.3l1.8-2.9c0.3-0.3,0-0.6-0.3-0.9
		c-0.3-0.3-0.6,0-0.9,0.3c0.3-0.3,0-0.6-0.3-0.9c-0.3-0.3-0.6,0-0.9,0.3c0.3-0.3,0-0.6-0.3-0.9c-0.3-0.3-0.6,0-0.9,0.3
		c0.3-0.3,0-0.6-0.3-0.9c-0.3-0.3-0.6,0-0.9,0.3c0.3-0.3,0-0.6-0.3-0.9c-0.3-0.3-0.6,0-0.9,0.3C328.7,212.1,328.3,211.8,328.1,211.5
		z"/>
	<path class="st9" d="M334.6,216.4l-12.4-7.2l-2.1-1.2l-25.7-15c-0.6-0.6-1.5-0.3-1.8,0.3l42.5,24.9
		C335.6,217.6,335.2,216.7,334.6,216.4z"/>
	<path class="st10" d="M326.9,210.9c-0.3-0.3-0.9,0-0.9,0.3l-0.9,1.8l7.8,4.6l1.2-1.8c0.3-0.3,0-0.9-0.3-0.9s-0.9-0.3-0.9,0.3
		c0.3-0.3,0-0.9-0.3-0.9c-0.3-0.3-0.9,0-0.9,0.3c0.3-0.3,0-0.9-0.3-0.9c-0.3-0.3-0.9,0-0.9,0.3c0.3-0.3,0-0.9-0.3-0.9
		c-0.3-0.3-0.9,0-0.9,0.3c0.3-0.3,0-0.9-0.3-0.9c-0.3-0.3-0.9,0-0.9,0.3c0.3-0.3,0-0.9-0.3-0.9c-0.3-0.3-0.9,0-0.9,0.3
		C327.5,211.5,327.5,210.9,326.9,210.9z"/>
</g>
<g id="A02">
	<circle class="st8" cx="229.8" cy="75.3" r="19.5"/>
	<path class="st9" d="M198.2,56.1c-0.7,1.1-0.4,2.1,0.4,2.5l30.6,17.8l-3.4,6.2l2.5,1.4l3.8-6.2l14.4,8.6c0.7,0.4,1.8,0.4,2.5-0.7
		c0.4-0.7,0.4-1.8-0.7-2.5l-14.8-8.6l-2.5-1.1l-30.6-17.8C199.6,55.2,198.5,55.5,198.2,56.1z"/>
	<path class="st10" d="M224.3,81.9c-0.7,1.4-0.4,3.2,1.1,3.8c1.4,0.7,3.2,0.4,3.8-1.1L224.3,81.9z"/>
	<path class="st10" d="M240.2,77.8c-0.4-0.4-0.7,0-1.1,0.4c0.4-0.4,0-0.7-0.4-1.1s-0.7,0-1.1,0.4l-2.1,3.4c-0.4,0.4,0,0.7,0.4,1.1
		s0.7,0,1.1-0.4c-0.4,0.4,0,0.7,0.4,1.1s0.7,0,1.1-0.4c-0.4,0.4,0,0.7,0.4,1.1s0.7,0,1.1-0.4c-0.4,0.4,0,0.7,0.4,1.1s0.7,0,1.1-0.4
		c-0.4,0.4,0,0.7,0.4,1.1s0.7,0,1.1-0.4c-0.4,0.4,0,0.7,0.4,1.1s0.7,0,1.1-0.4c-0.4,0.4,0,0.7,0.4,1.1s0.7,0,1.1-0.4l2.1-3.4
		c0.4-0.4,0-0.7-0.4-1.1s-0.7,0-1.1,0.4c0.4-0.4,0-0.7-0.4-1.1s-0.7,0-1.1,0.4c0.4-0.4,0-0.7-0.4-1.1s-0.7,0-1.1,0.4
		c0.4-0.4,0-0.7-0.4-1.1s-0.7,0-1.1,0.4c0.4-0.4,0-0.7-0.4-1.1s-0.7,0-1.1,0.4C240.9,78.5,240.5,78.2,240.2,77.8z"/>
	<path class="st9" d="M248,83.7l-14.8-8.6l-2.5-1.4l-30.6-17.8c-0.7-0.7-1.8-0.4-2.1,0.4l50.6,29.6C249.1,85.1,248.7,84,248,83.7z"
		/>
	<path class="st10" d="M238.8,77.1c-0.4-0.4-1.1,0-1.1,0.4l-1.1,2.1l9.3,5.5l1.4-2.1c0.4-0.4,0-1.1-0.4-1.1s-1.1-0.4-1.1,0.4
		c0.4-0.4,0-1.1-0.4-1.1c-0.4-0.4-1.1,0-1.1,0.4c0.4-0.4,0-1.1-0.4-1.1c-0.4-0.4-1.1,0-1.1,0.4c0.4-0.4,0-1.1-0.4-1.1
		c-0.4-0.4-1.1,0-1.1,0.4c0.4-0.4,0-1.1-0.4-1.1c-0.4-0.4-1.1,0-1.1,0.4c0.4-0.4,0-1.1-0.4-1.1c-0.4-0.4-1.1,0-1.1,0.4
		C239.5,77.8,239.5,77.1,238.8,77.1z"/>
</g>
<g id="C01_1_">
	<circle class="st8" cx="301.3" cy="317.5" r="19.5"/>
	<path class="st9" d="M269.7,298.3c-0.7,1.1-0.4,2.1,0.4,2.5l30.6,17.8l-3.4,6.2l2.5,1.4l3.8-6.2l14.4,8.6c0.7,0.4,1.8,0.4,2.5-0.7
		c0.4-0.7,0.4-1.8-0.7-2.5l-14.8-8.6l-2.5-1.1l-30.6-17.8C271.1,297.4,270,297.7,269.7,298.3z"/>
	<path class="st10" d="M295.8,324.1c-0.7,1.4-0.4,3.2,1.1,3.8c1.4,0.7,3.2,0.4,3.8-1.1L295.8,324.1z"/>
	<path class="st10" d="M311.7,320c-0.4-0.4-0.7,0-1.1,0.4c0.4-0.4,0-0.7-0.4-1.1s-0.7,0-1.1,0.4l-2.1,3.4c-0.4,0.4,0,0.7,0.4,1.1
		s0.7,0,1.1-0.4c-0.4,0.4,0,0.7,0.4,1.1s0.7,0,1.1-0.4c-0.4,0.4,0,0.7,0.4,1.1s0.7,0,1.1-0.4c-0.4,0.4,0,0.7,0.4,1.1s0.7,0,1.1-0.4
		c-0.4,0.4,0,0.7,0.4,1.1s0.7,0,1.1-0.4c-0.4,0.4,0,0.7,0.4,1.1s0.7,0,1.1-0.4c-0.4,0.4,0,0.7,0.4,1.1s0.7,0,1.1-0.4l2.1-3.4
		c0.4-0.4,0-0.7-0.4-1.1s-0.7,0-1.1,0.4c0.4-0.4,0-0.7-0.4-1.1s-0.7,0-1.1,0.4c0.4-0.4,0-0.7-0.4-1.1s-0.7,0-1.1,0.4
		c0.4-0.4,0-0.7-0.4-1.1s-0.7,0-1.1,0.4c0.4-0.4,0-0.7-0.4-1.1s-0.7,0-1.1,0.4C312.4,320.7,312,320.4,311.7,320z"/>
	<path class="st9" d="M319.5,325.9l-14.8-8.6l-2.5-1.4l-30.6-17.8c-0.7-0.7-1.8-0.4-2.1,0.4l50.6,29.6
		C320.6,327.3,320.2,326.2,319.5,325.9z"/>
	<path class="st10" d="M310.3,319.3c-0.4-0.4-1.1,0-1.1,0.4l-1.1,2.1l9.3,5.5l1.4-2.1c0.4-0.4,0-1.1-0.4-1.1s-1.1-0.4-1.1,0.4
		c0.4-0.4,0-1.1-0.4-1.1c-0.4-0.4-1.1,0-1.1,0.4c0.4-0.4,0-1.1-0.4-1.1c-0.4-0.4-1.1,0-1.1,0.4c0.4-0.4,0-1.1-0.4-1.1
		c-0.4-0.4-1.1,0-1.1,0.4c0.4-0.4,0-1.1-0.4-1.1c-0.4-0.4-1.1,0-1.1,0.4c0.4-0.4,0-1.1-0.4-1.1c-0.4-0.4-1.1,0-1.1,0.4
		C311,320,311,319.3,310.3,319.3z"/>
</g>
<g id="D01-3">
	<circle class="st8" cx="257.4" cy="392.2" r="19.5"/>
	<path class="st9" d="M225.8,373c-0.7,1.1-0.4,2.1,0.4,2.5l30.6,17.8l-3.4,6.2l2.5,1.4l3.8-6.2l14.4,8.6c0.7,0.4,1.8,0.4,2.5-0.7
		c0.4-0.7,0.4-1.8-0.7-2.5l-14.8-8.6l-2.5-1.1L228,372.6C227.2,372.1,226.1,372.4,225.8,373z"/>
	<path class="st10" d="M251.9,398.8c-0.7,1.4-0.4,3.2,1.1,3.8c1.4,0.7,3.2,0.4,3.8-1.1L251.9,398.8z"/>
	<path class="st10" d="M267.8,394.7c-0.4-0.4-0.7,0-1.1,0.4c0.4-0.4,0-0.7-0.4-1.1s-0.7,0-1.1,0.4l-2.1,3.4c-0.4,0.4,0,0.7,0.4,1.1
		s0.7,0,1.1-0.4c-0.4,0.4,0,0.7,0.4,1.1s0.7,0,1.1-0.4c-0.4,0.4,0,0.7,0.4,1.1s0.7,0,1.1-0.4c-0.4,0.4,0,0.7,0.4,1.1s0.7,0,1.1-0.4
		c-0.4,0.4,0,0.7,0.4,1.1s0.7,0,1.1-0.4c-0.4,0.4,0,0.7,0.4,1.1s0.7,0,1.1-0.4c-0.4,0.4,0,0.7,0.4,1.1s0.7,0,1.1-0.4l2.1-3.4
		c0.4-0.4,0-0.7-0.4-1.1s-0.7,0-1.1,0.4c0.4-0.4,0-0.7-0.4-1.1s-0.7,0-1.1,0.4c0.4-0.4,0-0.7-0.4-1.1s-0.7,0-1.1,0.4
		c0.4-0.4,0-0.7-0.4-1.1s-0.7,0-1.1,0.4c0.4-0.4,0-0.7-0.4-1.1s-0.7,0-1.1,0.4C268.5,395.4,268.1,395.1,267.8,394.7z"/>
	<path class="st9" d="M275.6,400.6l-14.8-8.6l-2.5-1.4l-30.6-17.8c-0.7-0.7-1.8-0.4-2.1,0.4l50.6,29.6
		C276.7,402,276.3,400.9,275.6,400.6z"/>
	<path class="st10" d="M266.4,394c-0.4-0.4-1.1,0-1.1,0.4l-1.1,2.1l9.3,5.5l1.4-2.1c0.4-0.4,0-1.1-0.4-1.1s-1.1-0.4-1.1,0.4
		c0.4-0.4,0-1.1-0.4-1.1c-0.4-0.4-1.1,0-1.1,0.4c0.4-0.4,0-1.1-0.4-1.1c-0.4-0.4-1.1,0-1.1,0.4c0.4-0.4,0-1.1-0.4-1.1
		c-0.4-0.4-1.1,0-1.1,0.4c0.4-0.4,0-1.1-0.4-1.1c-0.4-0.4-1.1,0-1.1,0.4c0.4-0.4,0-1.1-0.4-1.1c-0.4-0.4-1.1,0-1.1,0.4
		C267.1,394.7,267.1,394,266.4,394z"/>
</g>
<g id="D05">
	<circle class="st8" cx="224.2" cy="343.1" r="19.5"/>
	<path class="st9" d="M192.6,323.9c-0.7,1.1-0.4,2.1,0.4,2.5l30.6,17.8l-3.4,6.2l2.5,1.4l3.8-6.2l14.4,8.6c0.7,0.4,1.8,0.4,2.5-0.7
		c0.4-0.7,0.4-1.8-0.7-2.5l-14.8-8.6l-2.5-1.1l-30.6-17.8C194,323,192.9,323.3,192.6,323.9z"/>
	<path class="st10" d="M218.7,349.7c-0.7,1.4-0.4,3.2,1.1,3.8c1.4,0.7,3.2,0.4,3.8-1.1L218.7,349.7z"/>
	<path class="st10" d="M234.6,345.6c-0.4-0.4-0.7,0-1.1,0.4c0.4-0.4,0-0.7-0.4-1.1s-0.7,0-1.1,0.4l-2.1,3.4c-0.4,0.4,0,0.7,0.4,1.1
		s0.7,0,1.1-0.4c-0.4,0.4,0,0.7,0.4,1.1s0.7,0,1.1-0.4c-0.4,0.4,0,0.7,0.4,1.1s0.7,0,1.1-0.4c-0.4,0.4,0,0.7,0.4,1.1s0.7,0,1.1-0.4
		c-0.4,0.4,0,0.7,0.4,1.1s0.7,0,1.1-0.4c-0.4,0.4,0,0.7,0.4,1.1s0.7,0,1.1-0.4c-0.4,0.4,0,0.7,0.4,1.1s0.7,0,1.1-0.4l2.1-3.4
		c0.4-0.4,0-0.7-0.4-1.1s-0.7,0-1.1,0.4c0.4-0.4,0-0.7-0.4-1.1s-0.7,0-1.1,0.4c0.4-0.4,0-0.7-0.4-1.1s-0.7,0-1.1,0.4
		c0.4-0.4,0-0.7-0.4-1.1s-0.7,0-1.1,0.4c0.4-0.4,0-0.7-0.4-1.1s-0.7,0-1.1,0.4C235.3,346.3,234.9,346,234.6,345.6z"/>
	<path class="st9" d="M242.4,351.5l-14.8-8.6l-2.5-1.4l-30.6-17.8c-0.7-0.7-1.8-0.4-2.1,0.4l50.6,29.6
		C243.5,352.9,243.1,351.8,242.4,351.5z"/>
	<path class="st10" d="M233.2,344.9c-0.4-0.4-1.1,0-1.1,0.4l-1.1,2.1l9.3,5.5l1.4-2.1c0.4-0.4,0-1.1-0.4-1.1s-1.1-0.4-1.1,0.4
		c0.4-0.4,0-1.1-0.4-1.1c-0.4-0.4-1.1,0-1.1,0.4c0.4-0.4,0-1.1-0.4-1.1c-0.4-0.4-1.1,0-1.1,0.4c0.4-0.4,0-1.1-0.4-1.1
		c-0.4-0.4-1.1,0-1.1,0.4c0.4-0.4,0-1.1-0.4-1.1c-0.4-0.4-1.1,0-1.1,0.4c0.4-0.4,0-1.1-0.4-1.1c-0.4-0.4-1.1,0-1.1,0.4
		C233.9,345.6,233.9,344.9,233.2,344.9z"/>
</g>
<g id="D04">
	<circle class="st8" cx="196" cy="380.4" r="22"/>
	<rect x="179.9" y="387.1" class="st9" width="31" height="3.3"/>
	<polygon class="st9" points="179.9,387.1 179.9,372.6 171.4,372.6 166.7,381.5 166.7,390.3 176.1,390.3 179.9,390.3 189.9,390.3 
		189.9,387.1 	"/>
	<polygon class="st10" points="177.5,382.4 169.8,382.4 169.8,380.1 172.7,374.4 177.5,374.4 	"/>
	<rect x="186" y="386.3" class="st9" width="7.9" height="4.5"/>
	<g>
		<circle class="st10" cx="172.7" cy="390.3" r="3.6"/>
		<circle class="st9" cx="172.7" cy="390.3" r="1.6"/>
	</g>
	<g>
		<circle class="st10" cx="204.1" cy="390.3" r="3.6"/>
		<circle class="st9" cx="204.1" cy="390.3" r="1.6"/>
	</g>
	<polygon class="st10" points="206.4,369.3 183,369.3 183,366.1 183,366.1 183,363.8 176.4,363.8 176.4,366.9 179.9,366.9 
		179.9,369.3 179.9,375.4 179.9,387.1 205.8,387.1 209.5,381.5 	"/>
	
		<rect x="182.8" y="371.4" transform="matrix(-1 -3.784230e-11 3.784230e-11 -1 367.4229 756.775)" class="st9" width="1.9" height="14"/>
	
		<rect x="186.8" y="371.4" transform="matrix(-1 -3.784230e-11 3.784230e-11 -1 375.5038 756.775)" class="st9" width="1.9" height="14"/>
	
		<rect x="190.9" y="371.4" transform="matrix(-1 -3.784230e-11 3.784230e-11 -1 383.5848 756.775)" class="st9" width="1.9" height="14"/>
	
		<rect x="194.9" y="371.4" transform="matrix(-1 -3.784230e-11 3.784230e-11 -1 391.6658 756.775)" class="st9" width="1.9" height="14"/>
	
		<rect x="198.9" y="371.4" transform="matrix(-1 -3.784230e-11 3.784230e-11 -1 399.7467 756.775)" class="st9" width="1.9" height="14"/>
	
		<rect x="203" y="371.4" transform="matrix(-1 -3.784230e-11 3.784230e-11 -1 407.8277 756.775)" class="st9" width="1.9" height="14"/>
</g>
<g id="B02">
	<circle class="st8" cx="365" cy="216.9" r="16.1"/>
	<g>
		<path class="st11" d="M375.8,195.2c0-0.7-0.6-1.4-1.4-1.4h-17.6c-0.7,0-1.4,0.6-1.4,1.4v9.6h20.3V195.2z"/>
		<path class="st10" d="M375.8,204.8h-20.3v15.7c0,0.9-0.1,1.1,0.3,1.4l9.2,5.1c0.5,0.3,0.9,0.3,1.3,0l9.2-5.1
			c0.4-0.2,0.3-0.9,0.3-1.4V204.8z"/>
	</g>
	<rect x="355.5" y="206.7" class="st9" width="20.3" height="5.1"/>
	<g>
		<path class="st10" d="M360.2,208.4c-0.1,0.1-0.2,0.1-0.3,0.1l0,0c0.2-0.2,0.4-0.5,0.5-0.7l0,0v-0.1h-0.5l0-0.1h0.5v-0.3l0.6,0
			c0,0,0,0.1-0.1,0.1v0.2h0.4v-0.3l0.6,0c0,0.1,0,0.1-0.1,0.1v0.2h0.1l0.2-0.2c0,0,0.2,0.2,0.4,0.3c0,0-0.1,0.1-0.1,0.1h-0.6v0.1
			c0,0-0.1,0.1-0.3,0.1h-0.1v-0.2h-0.4v0.1c0,0,0,0-0.1,0l0.2,0c0,0-0.1,0.1-0.2,0.1c0,0-0.1,0.1-0.1,0.1h0.9l0.2-0.2l0.4,0.3
			c0,0-0.1,0.1-0.2,0.1c0,0.4-0.1,0.6-0.2,0.7c-0.1,0.1-0.2,0.1-0.4,0.1c0-0.1,0-0.2-0.1-0.2c0,0-0.1-0.1-0.1-0.1v0.1
			c0,0-0.2,0.1-0.3,0.1h-0.1v-0.1h-0.3v0.1c0,0-0.2,0.1-0.3,0.1h0V208.4z M363.7,209.1c0,0,0.3,0.2,0.5,0.3c0,0-0.1,0.1-0.1,0.1
			h-1.1c0.1,0,0.3,0.2,0.5,0.3c0,0-0.1,0.1-0.1,0.1h-0.3c0.1,0,0.3,0.2,0.4,0.3c0,0-0.1,0.1-0.1,0.1h-2.7l0-0.1h2.1l0.2-0.2h-2.3
			l0-0.1h2.1l0.2-0.2H360l0-0.1h3.5L363.7,209.1z M360.6,208.2c0,0-0.1,0.1-0.2,0.1l0.1,0h0.3l0.2-0.1l0.4,0.2c0,0-0.1,0-0.1,0v0.2
			c0.1,0,0.1,0,0.2,0c0,0,0,0,0,0c0,0,0.1-0.2,0.1-0.5H360.6z M360.8,208.7v-0.2h-0.3v0.2H360.8z M362.9,210.3l0.2-0.2l0.5,0.3
			c0,0-0.1,0.1-0.1,0.1v0.5c0,0-0.3,0.1-0.5,0.1h-0.1v-0.2h-1.7v0.1c0,0-0.2,0.1-0.5,0.1h-0.1v-0.9l0.6,0.2H362.9z M360.7,209.1h2
			l0.3-0.3c0,0,0.3,0.2,0.5,0.3c0,0-0.1,0.1-0.1,0.1h-2.6L360.7,209.1z M362.9,210.8v-0.3h-1.7v0.3H362.9z M363.9,207.9
			c-0.1,0.2-0.2,0.4-0.4,0.5c0.2,0.1,0.5,0.1,0.9,0.2l0,0c-0.2,0.1-0.3,0.2-0.3,0.4c-0.4-0.1-0.7-0.2-0.9-0.4
			c-0.3,0.1-0.7,0.2-1.1,0.3l0-0.1c0.4-0.1,0.7-0.3,1-0.4c-0.1-0.1-0.2-0.2-0.2-0.3c-0.2,0.1-0.3,0.2-0.5,0.3l-0.1,0
			c0.2-0.3,0.4-0.6,0.5-1.1l0.7,0.2c0,0.1-0.1,0.1-0.2,0.1c0,0.1-0.1,0.1-0.1,0.2h0.6l0.3-0.3c0,0,0.3,0.2,0.5,0.3
			c0,0-0.1,0.1-0.1,0.1H363.9z M362.8,207.9c0,0-0.1,0.1-0.1,0.1c0.1,0.1,0.2,0.2,0.3,0.3c0.1-0.1,0.2-0.2,0.2-0.4H362.8z"/>
		<path class="st10" d="M369.1,208.4c0,0-0.1,0-0.2,0.1c-0.4,0.6-1.1,1.1-2.2,1.4l0-0.1c0.6-0.2,1-0.5,1.4-0.9c-0.1,0-0.1,0-0.2,0
			c0-0.1-0.1-0.2-0.2-0.3c-0.1,0.1-0.2,0.1-0.3,0.2c0.7,0.1,0.4,0.6,0.1,0.4c0-0.1-0.1-0.2-0.2-0.3c-0.1,0.1-0.3,0.1-0.4,0.2l0,0
			c0.4-0.2,0.8-0.7,1-1.1l0.6,0.1c0,0-0.1,0.1-0.2,0.1c-0.1,0.1-0.1,0.1-0.2,0.2h0.3l0.3-0.2L369.1,208.4z M370.6,208.4
			c0,0-0.1,0-0.2,0c-0.1,0.1-0.3,0.3-0.6,0.4c0.4,0.2,0.8,0.3,1.3,0.4l0,0c-0.2,0-0.4,0.2-0.4,0.4c-0.9-0.3-1.4-0.7-1.7-1.6l0.1,0
			c0.1,0.3,0.4,0.6,0.7,0.8c0.1-0.1,0.1-0.3,0.2-0.4h-0.5l0-0.1h0.6l0.2-0.2l0.1,0.1c0-0.1,0-0.2,0.1-0.3h-2.9
			c0,0.2-0.1,0.4-0.2,0.5c-0.1,0.1-0.4,0.1-0.4-0.1c0-0.1,0-0.2,0.2-0.3c0.2-0.1,0.3-0.3,0.3-0.5h0.1c0,0.1,0.1,0.2,0.1,0.2h1.2
			v-0.4l0.7,0c0,0.1,0,0.1-0.2,0.1v0.3h1.2l0.3-0.2l0.5,0.4c0,0-0.1,0-0.2,0c-0.1,0.1-0.3,0.2-0.5,0.3L370.6,208.4z M368.4,210.3
			c0,0-0.1,0.1-0.2,0c-0.3,0.3-0.8,0.5-1.4,0.6l0-0.1c0.4-0.2,0.8-0.6,1-0.9L368.4,210.3z M369.2,209.9v0.7c0,0.3-0.1,0.5-0.7,0.5
			c0-0.1,0-0.2-0.1-0.3c-0.1-0.1-0.1-0.1-0.3-0.1v-0.1c0,0,0.4,0,0.5,0c0.1,0,0.1,0,0.1-0.1v-0.6h-1.3l0-0.1h2.5l0.3-0.3
			c0,0,0.3,0.2,0.5,0.3c0,0-0.1,0.1-0.1,0.1H369.2z M367.9,208.4c-0.1,0-0.1,0.1-0.2,0.1c0.3,0,0.4,0.1,0.4,0.2
			c0.1-0.1,0.1-0.2,0.2-0.3H367.9z M368.1,209.3h1l0.3-0.2c0,0,0.3,0.2,0.5,0.3c0,0-0.1,0.1-0.1,0.1h-1.5L368.1,209.3z M369.5,210.1
			c1.7,0.1,1.4,1.1,0.8,0.8C370.1,210.6,369.7,210.3,369.5,210.1L369.5,210.1z"/>
	</g>
</g>
</svg>
