<?xml version="1.0" encoding="utf-8"?>
<!-- Generator: Adobe Illustrator 23.1.0, SVG Export Plug-In . SVG Version: 6.00 Build 0)  -->
<svg version="1.1" id="圖層_1" xmlns="http://www.w3.org/2000/svg" xmlns:xlink="http://www.w3.org/1999/xlink" x="0px" y="0px"
	 viewBox="0 0 616.3 553.9" style="enable-background:new 0 0 616.3 553.9;" xml:space="preserve">
<style type="text/css">
	.st0{opacity:0.29;fill:#FFFFFF;enable-background:new    ;}
	.st1{opacity:0.33;fill:#FFFFFF;enable-background:new    ;}
	.st2{fill:#212529;}
	.st3{font-family:'MingLiU';}
	.st4{font-size:27.8578px;}
	.st5{font-size:25.3697px;}
	.st6{font-size:27.5143px;glyph-orientation-vertical:0;writing-mode:tb;}
	.st7{font-size:22.6364px;glyph-orientation-vertical:0;writing-mode:tb;}
	.st8{fill:#FF931E;}
	.st9{fill:#29282A;}
	.st10{fill:#5060EF;}
</style>
<g id="map">
	<title>map</title>
	<path class="st0" d="M239.2,0l-24.9,49.5l336.1,97.2l14.1-57.4l6.3-30.9l18.7,34.5l-18.7,61l45.4,13.3l-10.7,14.1l-41-12.4
		L480.1,486l42.7,13.3l-5.3,25.6l-46.2-11.5L457.1,551l-23.5,3l16.5-45.3L64.9,420.5l-19.3,48.9l-33.1-13.6l24.8-49.2L0,394
		l16.9-24.7l29.3,3.5L168.9,81.4l-48-16.1l24.9-30l34.7,8.8L210.8,0H239.2z M84.1,391.5l371.5,88.3l88.5-301.2L203.2,89.4
		L84.1,391.5z"/>
	<path class="st1" d="M308.1,219.4l6-22.6L224.3,162l-10.4,30.4L173,320.2l-40-10.4L210.4,129l7.8,5.2l1.8-14.8l88.2,26.1
		c-0.2,3.5-0.2,7,0,10.4c0.4,3.5,71.8,16.5,71.8,16.5l2.6-7.8l138.2,39.1l-8.7,41.7h-5.2l-9.6,27.8l5.2,3.7l-47.8,176.3l-36.5-10.4
		l13-50.4l-13.9-3.5l3.5-13.9h17.4l2.6-14.8l-24.3-6.1l23.5-94.2l14.8,5.5l7-31.3L347,203.6l-9.6,26.1l73,21.7V284l-23.5,63v9.6
		l-16.5,2.6l-56.3-17.4v5.2l-6-1.7l-7.3,19.1l-23.5-8.7V334l-66.9-24.3l26.1-106L308.1,219.4z M298.1,244l-42-11l-15.6,59.7l42,11
		L298.1,244z M381,272l-45.6-14.4l-18.6,58.8l45.6,14.4L381,272z"/>
	<text transform="matrix(0.9757 0.219 -0.219 0.9757 208.7884 446.9811)" class="st2 st3 st4">忠孝西路</text>
	<text transform="matrix(0.9757 0.219 -0.219 0.9757 311.5327 108.4768)" class="st2 st3 st5">北平東路</text>
	<text transform="matrix(0.933 0.36 -0.36 0.933 146.5886 183.585)" class="st2 st3 st6">中山北路</text>
	<text transform="matrix(0.9668 0.2556 -0.2556 0.9668 519.0577 298.7799)" class="st2 st3 st7">天津街</text>
	<g>
		<g>
			<g>
				<text transform="matrix(0.9709 0.2395 -0.2395 0.9709 264.5123 366.9203)" class="st2 st3 st5">正門</text>
			</g>
		</g>
	</g>
</g>
<g id="C01">
	<circle class="st8" cx="304.2" cy="328" r="19.5"/>
	<path class="st9" d="M272.6,308.8c-0.7,1.1-0.4,2.1,0.4,2.5l30.6,17.8l-3.4,6.2l2.5,1.4l3.8-6.2l14.4,8.6c0.7,0.4,1.8,0.4,2.5-0.7
		c0.4-0.7,0.4-1.8-0.7-2.5l-14.8-8.6l-2.5-1.1l-30.6-17.8C274,307.9,272.9,308.2,272.6,308.8z"/>
	<path class="st10" d="M298.7,334.6c-0.7,1.4-0.4,3.2,1.1,3.8c1.4,0.7,3.2,0.4,3.8-1.1L298.7,334.6z"/>
	<path class="st10" d="M314.6,330.5c-0.4-0.4-0.7,0-1.1,0.4c0.4-0.4,0-0.7-0.4-1.1s-0.7,0-1.1,0.4l-2.1,3.4c-0.4,0.4,0,0.7,0.4,1.1
		s0.7,0,1.1-0.4c-0.4,0.4,0,0.7,0.4,1.1s0.7,0,1.1-0.4c-0.4,0.4,0,0.7,0.4,1.1s0.7,0,1.1-0.4c-0.4,0.4,0,0.7,0.4,1.1s0.7,0,1.1-0.4
		c-0.4,0.4,0,0.7,0.4,1.1s0.7,0,1.1-0.4c-0.4,0.4,0,0.7,0.4,1.1s0.7,0,1.1-0.4c-0.4,0.4,0,0.7,0.4,1.1s0.7,0,1.1-0.4l2.1-3.4
		c0.4-0.4,0-0.7-0.4-1.1s-0.7,0-1.1,0.4c0.4-0.4,0-0.7-0.4-1.1s-0.7,0-1.1,0.4c0.4-0.4,0-0.7-0.4-1.1s-0.7,0-1.1,0.4
		c0.4-0.4,0-0.7-0.4-1.1s-0.7,0-1.1,0.4c0.4-0.4,0-0.7-0.4-1.1s-0.7,0-1.1,0.4C315.3,331.2,314.9,330.9,314.6,330.5z"/>
	<path class="st9" d="M322.4,336.4l-14.8-8.6l-2.5-1.4l-30.6-17.8c-0.7-0.7-1.8-0.4-2.1,0.4l50.6,29.6
		C323.5,337.8,323.1,336.7,322.4,336.4z"/>
	<path class="st10" d="M313.2,329.8c-0.4-0.4-1.1,0-1.1,0.4l-1.1,2.1l9.3,5.5l1.4-2.1c0.4-0.4,0-1.1-0.4-1.1s-1.1-0.4-1.1,0.4
		c0.4-0.4,0-1.1-0.4-1.1c-0.4-0.4-1.1,0-1.1,0.4c0.4-0.4,0-1.1-0.4-1.1c-0.4-0.4-1.1,0-1.1,0.4c0.4-0.4,0-1.1-0.4-1.1
		c-0.4-0.4-1.1,0-1.1,0.4c0.4-0.4,0-1.1-0.4-1.1c-0.4-0.4-1.1,0-1.1,0.4c0.4-0.4,0-1.1-0.4-1.1c-0.4-0.4-1.1,0-1.1,0.4
		C313.9,330.5,313.9,329.8,313.2,329.8z"/>
</g>
</svg>
