<?xml version="1.0" encoding="utf-8"?>
<!-- Generator: Adobe Illustrator 23.1.0, SVG Export Plug-In . SVG Version: 6.00 Build 0)  -->
<svg version="1.1" id="圖層_1" xmlns="http://www.w3.org/2000/svg" xmlns:xlink="http://www.w3.org/1999/xlink" x="0px" y="0px"
	 viewBox="0 0 45 94" style="enable-background:new 0 0 45 94;" xml:space="preserve">
<style type="text/css">
	.st0{fill:#FF931E;}
</style>
<path class="st0" d="M12.9,68c0-0.9,0-1.7,0-2.6c0.4-5.2,0.3-10-5.8-12.6C3.3,51.2,4,47.1,4,43.5c0-6.8,1.2-13.4,4.6-19.4
	c1-1.8,2.9-3.4,4.7-4.5c1.6-0.9,2.1-1.8,1.8-3.5c-0.2-1.7-0.3-3.4-0.2-5.1c0.3-4.1,2.4-6.2,6.1-6.5c3.9-0.3,6,1.3,7,5.4
	c0.2,1,0.4,2.1,0.6,3.1c0.5,3.1,1.2,5.8,4.5,7.5c1.8,0.9,3.1,3.2,4,5.2c3.9,8.1,5.7,16.5,2.8,25.4c-0.4,1.2-1.1,2.4-2.1,3.1
	c-2.8,2-3.2,4.9-3.2,7.9c-0.1,7.2-0.2,14.5-0.3,21.7c0,1.4-0.3,2.7-0.5,4.1c-0.3,2-1.5,3.4-3.4,2.9c-1.2-0.3-2.7-1.9-2.9-3.1
	c-0.9-6.1-1.4-12.3-2-18.4c-0.2-1.8,0.6-4.5-2.1-4.5c-1.1,0-2.7,2.5-3,4.1c-0.7,2.9-0.6,5.9-0.8,8.9c-0.1,2-0.9,3.8-2.9,3.3
	c-1.5-0.4-3.5-2.1-3.7-3.5c-0.6-3.2-0.2-6.6-0.2-9.9C12.8,68,12.8,68,12.9,68z"/>
</svg>
